<svg xmlns="http://www.w3.org/2000/svg" width="311" height="68" viewBox="0 0 311 68">
  <g id="Group_96" data-name="Group 96" transform="translate(-404 -5662)">
    <g id="Group_75" data-name="Group 75" transform="translate(407.576 5662)">
      <path id="Path_12" data-name="Path 12" d="M145.6,4.616c-.583,0-1,0-1,.823V17c0,.744,0,1.608-.984,1.608s-.984-.9-.984-1.608V4.6a1.784,1.784,0,0,1,1.847-1.866h5.521v-1.1c0-.724,0-1.625,1.044-1.625C152.1,0,152.1.822,152.1,1.626v1.1h5.722a1.768,1.768,0,0,1,1.827,1.807v10.82c0,1.906-.261,3.072-3.876,3.072-1.506,0-3.09-.019-3.09-1.084,0-1,.7-1.144.943-1.144.16,0,.843.12.984.141a15.356,15.356,0,0,0,1.887.12c1.144,0,1.164-.382,1.164-1.366V5.52c0-.9-.342-.9-1.1-.9H152.2c.542,3.393,3.09,5.622,4.737,6.967a1.157,1.157,0,0,1,.562.964,1.112,1.112,0,0,1-1,1.043c-.642,0-1.345-.643-2.811-2.127a13.76,13.76,0,0,1-2.53-3.655c-2.147,4.517-4.9,5.742-5.32,5.742a1.063,1.063,0,0,1-1.064-1.043c0-.5.341-.744.863-1.125a9.887,9.887,0,0,0,4.3-6.766Z" transform="translate(-142.624 -0.001)" fill="#fff"/>
      <path id="Path_13" data-name="Path 13" d="M165.811,7.677a29.759,29.759,0,0,0,1.887,2.45c.943,1.1.943,1.124.943,1.506a1.032,1.032,0,0,1-1.024,1.043c-.583,0-1.225-.9-1.807-1.706v6.1c0,.9,0,1.586-.923,1.586-.9,0-.9-.682-.9-1.586v-6a16.215,16.215,0,0,1-1.948,2.49c-.362.38-.562.521-.964.521a.924.924,0,0,1-.963-.964c0-.4.18-.6.542-1.024a17.219,17.219,0,0,0,3.092-4.719h-1.586c-.783,0-1.606,0-1.606-1,0-1.024.823-1.024,1.606-1.024h1.827V3.3a18.982,18.982,0,0,1-2.209.281.945.945,0,0,1-.743-.261,1.126,1.126,0,0,1-.342-.782c0-.7.544-.964,1.065-1.043a23.522,23.522,0,0,0,4.116-.823,3.828,3.828,0,0,1,1.2-.3.958.958,0,0,1,1,1.043c0,.823-.582,1.065-2.268,1.467V5.349h1.144c.783,0,1.606,0,1.606,1.024,0,1-.823,1-1.606,1h-1.144Zm11.363,5.461v3.754c0,.784,0,1.608-1.024,1.608-1,0-1-.823-1-1.608V13.539l-4.879.964a3.476,3.476,0,0,1-.862.12.93.93,0,0,1-.924-.963c0-.784.623-.9,1.385-1.064l5.28-1.084V1.737c0-.764,0-1.608,1.024-1.608,1,0,1,.844,1,1.608v9.374a5.605,5.605,0,0,1,1.124-.182c.823,0,.9.864.9,1.025,0,.784-.583.9-1.406,1.065Zm-4-2.991c-.4,0-.5-.079-2.208-1.565-.24-.222-1.446-1.145-1.647-1.406a1,1,0,0,1-.2-.623.985.985,0,0,1,1-1c.421,0,.542.1,1.685,1,1.385,1.084,2.43,1.948,2.43,2.51a1.057,1.057,0,0,1-1.065,1.084m.282-5.18c-.321,0-.442-.079-1.385-.862-.321-.26-1.727-1.366-2.007-1.586a.986.986,0,0,1-.481-.844.925.925,0,0,1,.922-.943c.322,0,.463,0,2.39,1.565,1.164.924,1.486,1.265,1.486,1.746a.917.917,0,0,1-.924.924" transform="translate(-141.169 0.01)" fill="#fff"/>
      <path id="Path_14" data-name="Path 14" d="M183.921,8.79A1.987,1.987,0,1,1,181.934,6.8a1.978,1.978,0,0,1,1.988,1.988" transform="translate(-139.518 0.565)" fill="#fff"/>
      <path id="Path_15" data-name="Path 15" d="M188.109,10.811c-.381.421-1.024,1.043-1.485,1.043a.925.925,0,0,1-.964-.942c0-.443.3-.764.864-1.285a15.846,15.846,0,0,0,2.75-3.394c.7-1.144.782-1.265,1.245-1.265a.832.832,0,0,1,.9.9c0,.361-.12.883-1.4,2.611v8.592c0,.763,0,1.605-1,1.605-.9,0-.9-.742-.9-1.605Zm3.011-9.736c0,.9-1.866,2.89-2.73,3.713-.984.943-1.2,1-1.525,1A1.062,1.062,0,0,1,185.8,4.768c0-.421.261-.662,1.1-1.384a15.647,15.647,0,0,0,2.35-2.691c.24-.3.442-.582.823-.582a.982.982,0,0,1,1.043.964m2.37,4.5c-.021,1.687-.041,6.867-.181,8.01-.221,1.906-.823,3.935-1.746,3.935a.886.886,0,0,1-.924-.763,14.3,14.3,0,0,1,.542-1.647c.2-.663.463-1.467.463-6.726,0-.663-.041-3.915-.041-4.659,0-1.825.021-2.71,2.169-2.71a47.827,47.827,0,0,0,6.606-.441c.441-.06,2.589-.442,2.71-.442a.908.908,0,0,1,.983.9c0,.823-.321.884-3.994,1.326V3.8h2.951c.763,0,1.586,0,1.586.883s-.8.884-1.586.884h-2.951v1.1h2.368a1.494,1.494,0,0,1,1.566,1.746v7.99a1.592,1.592,0,0,1-1.566,1.746h-6.564c-1.285,0-1.565-.964-1.565-1.746V8.323A1.484,1.484,0,0,1,195.9,6.676h2.269v-1.1Zm0-1.767h4.677V2.54c-1.065.081-2.891.16-3.774.16-.823,0-.9.261-.9.863ZM202.2,9.746v-.8c0-.382-.26-.522-.582-.522h-4.959c-.341,0-.583.16-.583.522v.8Zm-6.123,3.192H202.2v-1.4H196.08Zm0,1.687V15.89a.513.513,0,0,0,.583.522h4.959c.322,0,.582-.141.582-.522V14.625Z" transform="translate(-139.042 0.008)" fill="#fff"/>
      <path id="Path_16" data-name="Path 16" d="M208.367,6.92c.823,0,1.687,0,1.687.923s-.863.924-1.687.924v4.778a2.815,2.815,0,0,1,.984-.3.894.894,0,0,1,.843.984c0,.5-.2.7-1.365,1.124a19.521,19.521,0,0,1-3.313.9.933.933,0,0,1-.943-.964.8.8,0,0,1,.562-.842c.221-.081,1.224-.283,1.425-.342V8.767c-1.024,0-1.827,0-1.827-.924s.8-.923,1.827-.923v-4.2c-1.124,0-1.908,0-1.908-.9,0-.883.9-.883,1.586-.883h2.228c.684,0,1.587,0,1.587.9,0,.883-.884.883-1.687.883Zm13.511,5.24A1.459,1.459,0,0,1,221.6,13a.914.914,0,0,1,1.023.784c0,.562-1.043,1.364-1.766,1.906.22.1,1.3.562,1.566.663a.947.947,0,0,1-.282,1.826,9.991,9.991,0,0,1-5.5-3.654v2.449c0,.764,0,1.587-.9,1.587s-.9-.823-.9-1.587v-2.55c-1.084,1.225-3.835,3.314-5,3.314a.766.766,0,0,1-.763-.844c0-.522.281-.682,1.285-1.245a12.619,12.619,0,0,0,3.071-2.329H212.06A1.088,1.088,0,0,1,210.9,12.16V9.832a1.11,1.11,0,0,1,1.164-1.185h8.673a1.1,1.1,0,0,1,1.144,1.185Zm-10.2-4.3c-.663,0-1.587,0-1.587-.843,0-.823.924-.823,1.587-.823h9.8c.663,0,1.586,0,1.586.843,0,.823-.923.823-1.586.823ZM221.054.555a1.07,1.07,0,0,1,1.225,1.124v2.69a1.078,1.078,0,0,1-1.225,1.146H212.12A1.082,1.082,0,0,1,210.9,4.369V1.679A1.072,1.072,0,0,1,212.12.555ZM214.128,2.16H213.2c-.522,0-.522.242-.522.562v.6c0,.321,0,.562.522.562h.924Zm-.823,8.032c-.481,0-.543.16-.543.6v.523c0,.4.1.441.724.441h6.1c.5,0,.544-.261.544-.582V10.7c0-.323-.081-.5-.5-.5Zm2.51-6.3H217.3V2.16h-1.486Zm2.228,9.436a8.134,8.134,0,0,0,1.145,1.324,14.846,14.846,0,0,0,1.785-1.344.862.862,0,0,1-.239.021Zm.985-9.436h1c.521,0,.521-.242.521-.562v-.6c0-.321,0-.562-.521-.562h-1Z" transform="translate(-137.468 0.045)" fill="#fff"/>
      <path id="Path_17" data-name="Path 17" d="M239.643,7.478c.642,0,1.586,0,1.586.823,0,.8-.964.8-1.586.8h-2.931a9.555,9.555,0,0,0,3.413,1.706c1.163.3,1.446.381,1.446,1.124a1.036,1.036,0,0,1-1.005,1.025,1.487,1.487,0,0,1-.38-.062v3.413c0,1.084-.342,1.908-1.687,1.908h-4.016a1.518,1.518,0,0,1-1.687-1.787V12.517a1.364,1.364,0,0,1,1.486-1.385h1.887a9.167,9.167,0,0,1-2.088-2.027h-2.529a12.406,12.406,0,0,1-2.39,2.027h.723c1.346,0,1.708.823,1.708,1.385v3.915a1.531,1.531,0,0,1-1.567,1.787h-3.9c-.521,0-1.746,0-1.746-1.486V12.979c-.441.041-1.345,0-1.345-.942,0-.7.543-.863,1.206-1.024a12.614,12.614,0,0,0,4.437-1.908h-3.754c-.643,0-1.567,0-1.567-.823,0-.8.946-.8,1.567-.8h5.481a6.411,6.411,0,0,0,.642-.923.949.949,0,0,1,.883-.6c.1,0,1,.121,1,.984a.961.961,0,0,1-.16.543ZM229.966.592a1.447,1.447,0,0,1,1.665,1.526v2.65a1.548,1.548,0,0,1-1.746,1.627h-3.893c-1.627,0-1.728-.984-1.728-1.546V1.918c0-1.326,1.326-1.326,1.728-1.326ZM226.774,2.4c-.483,0-.643.04-.643.522V4.066c0,.6.261.6.643.6h2.409c.582,0,.582-.12.582-.622V2.921c0-.522-.341-.522-.562-.522Zm.381,10.48c-.582,0-.843.019-.843.763V15.89c0,.482.141.542.742.542H229c.261,0,.723,0,.723-.542V13.422c0-.443-.16-.543-.582-.543ZM238.6.633c1.747,0,1.787,1.244,1.787,1.263V4.667c0,.7-.04,1.728-1.467,1.728h-4.1c-1.223,0-1.886-.242-1.886-1.627V2.118A1.442,1.442,0,0,1,234.624.633Zm-3.132,12.246c-.682,0-.742.242-.742.823V15.81c0,.622.281.622.742.622h2.048c.622,0,.742-.239.742-.742V13.56c0-.481-.061-.681-.623-.681Zm0-10.48c-.461,0-.643.1-.643.643V4.085c0,.582.182.582.764.582h2.35c.543,0,.562-.261.562-.6V2.841c0-.442-.362-.442-.6-.442Z" transform="translate(-135.931 0.048)" fill="#fff"/>
      <path id="Path_18" data-name="Path 18" d="M245.276,4.616c-.585,0-1.005,0-1.005.823V17c0,.744,0,1.608-.984,1.608s-.984-.9-.984-1.608V4.6a1.784,1.784,0,0,1,1.847-1.866h5.52v-1.1c0-.724,0-1.625,1.045-1.625,1.063,0,1.063.821,1.063,1.625v1.1H257.5a1.768,1.768,0,0,1,1.826,1.807v10.82c0,1.906-.261,3.072-3.875,3.072-1.507,0-3.09-.019-3.09-1.084,0-1,.7-1.144.942-1.144.16,0,.843.12.984.141a15.36,15.36,0,0,0,1.888.12c1.144,0,1.162-.382,1.162-1.366V5.52c0-.9-.34-.9-1.1-.9h-4.356c.542,3.393,3.09,5.622,4.736,6.967a1.155,1.155,0,0,1,.562.964,1.111,1.111,0,0,1-1,1.043c-.643,0-1.345-.643-2.812-2.127a13.822,13.822,0,0,1-2.529-3.655c-2.148,4.517-4.9,5.742-5.321,5.742a1.063,1.063,0,0,1-1.063-1.043c0-.5.34-.744.863-1.125a9.891,9.891,0,0,0,4.3-6.766Z" transform="translate(-134.328 -0.001)" fill="#fff"/>
      <path id="Path_19" data-name="Path 19" d="M265.49,7.677a29.442,29.442,0,0,0,1.888,2.45c.943,1.1.943,1.124.943,1.506a1.032,1.032,0,0,1-1.025,1.043c-.582,0-1.225-.9-1.807-1.706v6.1c0,.9,0,1.586-.923,1.586-.9,0-.9-.682-.9-1.586v-6a16.292,16.292,0,0,1-1.948,2.49c-.362.38-.562.521-.964.521a.925.925,0,0,1-.964-.964c0-.4.181-.6.543-1.024a17.247,17.247,0,0,0,3.092-4.719h-1.587c-.782,0-1.605,0-1.605-1,0-1.024.823-1.024,1.605-1.024h1.828V3.3a19.038,19.038,0,0,1-2.209.281.946.946,0,0,1-.744-.261,1.125,1.125,0,0,1-.341-.782c0-.7.543-.964,1.064-1.043a23.5,23.5,0,0,0,4.116-.823,3.831,3.831,0,0,1,1.206-.3.958.958,0,0,1,1,1.043c0,.823-.581,1.065-2.268,1.467V5.349h1.144c.784,0,1.607,0,1.607,1.024,0,1-.823,1-1.607,1H265.49Zm11.363,5.461v3.754c0,.784,0,1.608-1.024,1.608-1,0-1-.823-1-1.608V13.539l-4.879.964a3.482,3.482,0,0,1-.863.12.931.931,0,0,1-.924-.963c0-.784.623-.9,1.385-1.064l5.281-1.084V1.737c0-.764,0-1.608,1.024-1.608,1,0,1,.844,1,1.608v9.374a5.628,5.628,0,0,1,1.124-.182c.823,0,.9.864.9,1.025,0,.784-.583.9-1.406,1.065Zm-3.995-2.991c-.4,0-.5-.079-2.209-1.565C270.41,8.359,269.2,7.436,269,7.175a1.011,1.011,0,0,1-.2-.623.984.984,0,0,1,1-1c.421,0,.543.1,1.687,1,1.385,1.084,2.429,1.948,2.429,2.51a1.058,1.058,0,0,1-1.064,1.084m.282-5.18c-.321,0-.442-.079-1.385-.862-.321-.26-1.727-1.366-2.007-1.586a.986.986,0,0,1-.481-.844.923.923,0,0,1,.922-.943c.322,0,.461,0,2.39,1.565,1.164.924,1.486,1.265,1.486,1.746a.918.918,0,0,1-.924.924" transform="translate(-132.873 0.01)" fill="#fff"/>
    </g>
    <g id="Group_76" data-name="Group 76" transform="translate(404 5692.694)">
      <path id="Path_105" data-name="Path 105" d="M168.629,54.823a2.07,2.07,0,0,1,1.571,2.141,2.337,2.337,0,0,1-.689,1.648,2.3,2.3,0,0,1-1.606.648,3.526,3.526,0,0,1-.842-.113q-1.378-.459-2.869-1.031a5.407,5.407,0,0,1-.727-.23,4.615,4.615,0,0,0-.727-.269,5.443,5.443,0,0,1-.727-.229,2.817,2.817,0,0,1-.726-.271,4.31,4.31,0,0,1-.727-.23,4.419,4.419,0,0,1-.726-.228q-.689-.228-1.491-.461-1.493-.38-2.985-.877-3.1-.919-6.772-1.837c-1.145-.231-2.3-.5-3.441-.8-1.15-.233-2.294-.486-3.442-.765a2.171,2.171,0,0,1-1.758-2.257,2.406,2.406,0,0,1,.648-1.648,2.218,2.218,0,0,1,1.606-.686,1.8,1.8,0,0,1,.423.038h.079a25.681,25.681,0,0,1,3.632.84,5.935,5.935,0,0,1,.954.232l.92.23c.456.077,1.057.219,1.8.42a5.455,5.455,0,0,1,.955.233c.306.075.613.15.918.229q.954.225,1.834.456a2.131,2.131,0,0,1,.537.156,5.636,5.636,0,0,1,.844.228,199.477,199.477,0,0,0,1.68.459,5.564,5.564,0,0,1,.841.229,2.284,2.284,0,0,1,.5.155q1.493.457,3.366,1.107,1.61.463,3.328,1.072c.307.1.638.217,1,.345.46.15.931.331,1.415.534a10.188,10.188,0,0,1,1.413.536m-.113-10.785a2.049,2.049,0,0,1-2.256,2.334,2.473,2.473,0,0,1-.46-.04c-.153-.026-.28-.05-.383-.075q-5.164-1.948-10.711-3.559-5.278-1.492-10.67-2.638h-.075a2.058,2.058,0,0,1-1.84-2.258,2.327,2.327,0,0,1,.69-1.643,2.247,2.247,0,0,1,1.645-.69h.113a2.333,2.333,0,0,0,.346.076q1.266.231,2.714.575c.309.078.638.153,1,.228.307.078.6.154.879.229a4.016,4.016,0,0,1,.879.192q.916.231,1.874.461c.689.15,1.365.318,2.03.5a9.036,9.036,0,0,1,1.031.3,1.637,1.637,0,0,1,.5.151,1.878,1.878,0,0,1,.5.116c.636.179,1.247.372,1.834.574a6.71,6.71,0,0,1,.919.3,1.31,1.31,0,0,1,.461.155,1.341,1.341,0,0,1,.421.116c1.377.381,2.7.817,3.975,1.3a.306.306,0,0,1,.115.038c1,.382,1.5.575,1.53.575.484.153.984.331,1.493.535a2.232,2.232,0,0,1,1.453,2.144m2.064-11.591a2.195,2.195,0,0,1-.686,1.606,2.332,2.332,0,0,1-1.646.651,1.942,1.942,0,0,1-.727-.113c-.255-.079-.7-.221-1.336-.423-.257-.075-.7-.23-1.34-.459-.485-.153-.931-.291-1.338-.419q-.383-.117-1.341-.46c-.252-.075-.7-.214-1.337-.423-.23-.073-.446-.138-.651-.19-.227-.076-.458-.152-.688-.226a2.465,2.465,0,0,1-.649-.192,2.293,2.293,0,0,1-.691-.195c-.228-.075-.446-.139-.648-.191-.231-.075-.461-.152-.69-.228q-2.641-.685-5.774-1.489c-.92-.232-1.874-.461-2.871-.693q-1.378-.267-2.866-.648a2.056,2.056,0,0,1-1.839-2.258,2.384,2.384,0,0,1,.652-1.644,2.282,2.282,0,0,1,1.684-.689,1.519,1.519,0,0,1,.5.078q1.067.228,2.181.457a10.1,10.1,0,0,0,1.069.27,1.348,1.348,0,0,1,.537.154,2.032,2.032,0,0,1,.535.117q1.033.225,2.141.495a2.183,2.183,0,0,1,.54.153c.225.078.315.1.262.078a.721.721,0,0,1,.272.075c.329.076.671.167,1.032.268a5.477,5.477,0,0,1,.954.229,5.4,5.4,0,0,1,.957.228c.23.079.549.167.958.271a1.562,1.562,0,0,1,.5.151,3.173,3.173,0,0,1,.461.115q1.867.571,3.784,1.145c.562.179,1.136.373,1.721.575.537.179,1.1.37,1.684.574a23.38,23.38,0,0,1,3.139,1.071,2.126,2.126,0,0,1,1.563,2.18" transform="translate(-139.945 -23.138)" fill="#fff"/>
      <path id="Path_106" data-name="Path 106" d="M208.865,37.955a26.753,26.753,0,0,1-.268,3.825q-.113.844-.345,1.915c-.153.634-.343,1.287-.574,1.95a23.463,23.463,0,0,1-4.015,7.229,16.812,16.812,0,0,1-5.279,3.978,23.15,23.15,0,0,1-3.368,1.3,40.015,40.015,0,0,1-3.9.955c-.486.075-.88.141-1.184.193-.486.075-.882.14-1.188.192l-2.412.231a2.261,2.261,0,0,1-2.41-1.418,2.463,2.463,0,0,1,.155-2.065,2.412,2.412,0,0,1,1.761-1.109,29.848,29.848,0,0,0,4.513-.613,3.231,3.231,0,0,0,.88-.152c.178-.024.33-.052.457-.076a1.288,1.288,0,0,0,.421-.118,12.954,12.954,0,0,0,1.721-.495c.692-.228,1.278-.433,1.763-.613a7.451,7.451,0,0,0,1.682-.841,11.1,11.1,0,0,0,2.525-1.991,13.211,13.211,0,0,0,2.218-3.174,23.606,23.606,0,0,0,1.186-2.678,16.618,16.618,0,0,0,.8-3.172c.1-.842.167-1.925.191-3.254V33.709a2.769,2.769,0,0,0-.534-1.952,3.011,3.011,0,0,0-1.95-.493H185.378a3.089,3.089,0,0,0-1.991.495,2.483,2.483,0,0,0-.573,1.953v7.458a2.327,2.327,0,0,1-.689,1.642,2.233,2.233,0,0,1-1.645.689,2.2,2.2,0,0,1-1.606-.689,2.237,2.237,0,0,1-.689-1.642V33.025q0-6.429,6.5-6.43h17.633q6.543,0,6.541,6.428Z" transform="translate(-143.585 -23.408)" fill="#fff"/>
      <path id="Path_107" data-name="Path 107" d="M218.151,30.23a3.539,3.539,0,0,1,2.829-1.186h10.711V25.869a2.582,2.582,0,0,1,.615-1.8,2.239,2.239,0,0,1,1.567-.651,2.342,2.342,0,0,1,1.567.613,2.564,2.564,0,0,1,.649,1.835v3.175h10.216a3.651,3.651,0,0,1,2.75,1.149,4,4,0,0,1,1.263,2.83V54.862a4.695,4.695,0,0,1-4.553,5.319,22.814,22.814,0,0,1-5.239-.343,2.768,2.768,0,0,1-1.759-1.113,2.914,2.914,0,0,1-.27-1.8,2.364,2.364,0,0,1,1.075-1.454,2.512,2.512,0,0,1,1.986-.268,13.732,13.732,0,0,0,2.411.575,1.99,1.99,0,0,0,.918-.153,2.721,2.721,0,0,0,1.031-2.448V34.9a1.677,1.677,0,0,0-.458-1.032,1.538,1.538,0,0,0-1-.423h-8.415q-.115,1.76-.27,3.176a4.109,4.109,0,0,0-.151.765.414.414,0,0,1,.116.077q1.07,1.188,3.747,4.281,2.6,2.989,4.437,5.549a2.482,2.482,0,0,1,.46,1.8,2.408,2.408,0,0,1-.879,1.413,2.305,2.305,0,0,1-1.607.384,2.415,2.415,0,0,1-1.567-1.11q-1.722-2.446-4.169-5.353c-.841-.918-1.5-1.686-1.99-2.295-.152.356-.317.726-.5,1.107a22.423,22.423,0,0,1-1.528,2.715,19.1,19.1,0,0,1-1.876,2.258,18.216,18.216,0,0,1-2.334,2.066,13.235,13.235,0,0,1-1.721,1.074,2.409,2.409,0,0,1-1.873.264,2.053,2.053,0,0,1-1.341-1.031,2.627,2.627,0,0,1-.228-1.643,2.741,2.741,0,0,1,1.261-1.453,7.284,7.284,0,0,0,1.378-.883,14.568,14.568,0,0,0,1.531-1.3,21.394,21.394,0,0,0,1.758-2.106,20.574,20.574,0,0,0,1.375-2.448,17.919,17.919,0,0,0,.881-2.522,13.559,13.559,0,0,0,.572-2.831,16.392,16.392,0,0,0,.118-1.953h-8.57a1.541,1.541,0,0,0-1.184.5,1.658,1.658,0,0,0-.495,1.145L221.4,58a2.681,2.681,0,0,1-.652,1.756,2.267,2.267,0,0,1-1.567.651,2.365,2.365,0,0,1-1.57-.613A2.685,2.685,0,0,1,217,58V32.984a3.844,3.844,0,0,1,1.148-2.754" transform="translate(-147.28 -23.105)" fill="#fff"/>
      <path id="Path_108" data-name="Path 108" d="M268.421,59.751a2.279,2.279,0,0,1-1.569.651,2.348,2.348,0,0,1-1.566-.613,2.687,2.687,0,0,1-.613-1.8l0-10.517q-1.5,2.675-2.908,4.74a2.423,2.423,0,0,1-1.571,1.031,2.147,2.147,0,0,1-1.646-.419,2.3,2.3,0,0,1-.88-1.415,2.508,2.508,0,0,1,.575-1.838,45.767,45.767,0,0,0,3.825-5.584,42.04,42.04,0,0,0,1.878-4.131h-3.98a2.1,2.1,0,0,1-1.608-.611,2.259,2.259,0,0,1-.613-1.608,2.137,2.137,0,0,1,.613-1.568,2.109,2.109,0,0,1,1.608-.613h4.708V29.5q-1.8.19-3.636.345a2.65,2.65,0,0,1-1.723-.5,2.336,2.336,0,0,1-.765-1.529,1.975,1.975,0,0,1,.5-1.569,2.449,2.449,0,0,1,1.723-.687A60.572,60.572,0,0,0,271.1,23.874a2.5,2.5,0,0,1,1.837.075,2.019,2.019,0,0,1,.993,1.3,2.25,2.25,0,0,1-.153,1.643,2.5,2.5,0,0,1-1.455,1.073c-1.019.3-2.1.585-3.25.838v6.657h3.748a2.115,2.115,0,0,1,1.57.575A2.264,2.264,0,0,1,275,37.641a2.129,2.129,0,0,1-.613,1.57,2.065,2.065,0,0,1-1.57.649h-3.748v2.793a2.3,2.3,0,0,1,1.569-.535,2.43,2.43,0,0,1,1.569.878,20.981,20.981,0,0,1,2.333,3.367,2.413,2.413,0,0,1,.268,1.8,2.226,2.226,0,0,1-1.072,1.3,1.992,1.992,0,0,1-1.646.192,3.076,3.076,0,0,1-1.378-1.3,14.131,14.131,0,0,0-1.642-2.41V57.991a2.706,2.706,0,0,1-.652,1.76m17.826-34.2a2.166,2.166,0,0,1,.575-1.606,2.253,2.253,0,0,1,1.608-.613,2.149,2.149,0,0,1,1.528.574,2.1,2.1,0,0,1,.689,1.646V45.637l1.186-.228a2.484,2.484,0,0,1,1.873.3,2.109,2.109,0,0,1,.842,1.452,2.068,2.068,0,0,1-.268,1.608,2.334,2.334,0,0,1-1.643.956l-1.991.383v7.879a2.714,2.714,0,0,1-.648,1.76,2.285,2.285,0,0,1-1.569.652,2.353,2.353,0,0,1-1.567-.615,2.676,2.676,0,0,1-.615-1.8V50.915l-8.91,1.568a2.843,2.843,0,0,1-1.8-.23,2.188,2.188,0,0,1-.957-1.415,2.423,2.423,0,0,1,.307-1.721,2.343,2.343,0,0,1,1.646-.956l9.713-1.72Zm-10.558,13.5a2,2,0,0,1,.194-1.644,2.3,2.3,0,0,1,1.26-1.037,2.957,2.957,0,0,1,1.876.346q.613.38,2.144,1.417a26.8,26.8,0,0,1,2.559,1.912,2.341,2.341,0,0,1,.883,1.608,2.2,2.2,0,0,1-.5,1.6,2.532,2.532,0,0,1-1.492.764,2.471,2.471,0,0,1-1.758-.687,27.487,27.487,0,0,0-2.22-1.72c-.918-.587-1.5-.967-1.758-1.146a2.435,2.435,0,0,1-1.189-1.415m.884-10.79a2.015,2.015,0,0,1,.267-1.643,2.275,2.275,0,0,1,1.3-1,2.466,2.466,0,0,1,1.876.422c.383.28,1.069.78,2.064,1.491.946.712,1.761,1.378,2.45,1.989a2.443,2.443,0,0,1,.841,1.683,2.225,2.225,0,0,1-.576,1.569,2.183,2.183,0,0,1-1.49.687,2.85,2.85,0,0,1-1.761-.763A20.567,20.567,0,0,0,279.4,30.95c-.869-.639-1.428-1.047-1.684-1.227a2.582,2.582,0,0,1-1.145-1.454" transform="translate(-151.149 -23.097)" fill="#fff"/>
      <path id="Path_109" data-name="Path 109" d="M342,43.345a2.421,2.421,0,0,1-.653-1.567V25.254a2.24,2.24,0,0,1,4.478,0V41.778c-.132,1.478-.88,2.219-2.258,2.219A2.457,2.457,0,0,1,342,43.345m19.69-1.837a7.651,7.651,0,0,1-.268,1.914,13.936,13.936,0,0,1-.61,1.757,7.351,7.351,0,0,1-.8,1.648,10.97,10.97,0,0,1-2.329,2.752,8.151,8.151,0,0,1-1.422,1.031,8.479,8.479,0,0,1-1.487.92,18.539,18.539,0,0,1-3.711,1.571,13.313,13.313,0,0,1-1.876.534c-.715.155-1.348.269-1.9.344a2.066,2.066,0,0,0-1.84,2.219,2.483,2.483,0,0,0,.651,1.569,2.41,2.41,0,0,0,1.57.65h.418c.509-.1.916-.191,1.221-.266.613-.154,1.007-.245,1.184-.269.792-.206,1.569-.432,2.334-.689a38.709,38.709,0,0,0,3.981-1.684,26.793,26.793,0,0,0,3.515-2.334,17.532,17.532,0,0,0,3.943-4.854c.15-.309.38-.78.686-1.417a10.462,10.462,0,0,0,.538-1.607,11,11,0,0,0,.61-3.519V25.254a2.162,2.162,0,0,0-.651-1.568,2.077,2.077,0,0,0-1.528-.613,1.947,1.947,0,0,0-2.223,2.182V41.509Z" transform="translate(-159.115 -23.072)" fill="#fff"/>
      <path id="Path_110" data-name="Path 110" d="M374.74,56.5a2.211,2.211,0,0,1-1.611-.689,2.4,2.4,0,0,1-.648-1.645,2.542,2.542,0,0,1,.648-1.643,2.331,2.331,0,0,1,1.646-.69l30.452,0a2.248,2.248,0,0,1,1.643.689,2.336,2.336,0,0,1,.686,1.643,2.251,2.251,0,0,1-.686,1.645,2.329,2.329,0,0,1-1.643.689Zm.38-24.367a2.314,2.314,0,0,1-.686-1.643,2.347,2.347,0,0,1,2.294-2.294H403.2a2.291,2.291,0,0,1,2.338,2.294,2.3,2.3,0,0,1-2.338,2.334H376.728a2.2,2.2,0,0,1-1.608-.69" transform="translate(-162.078 -23.56)" fill="#fff"/>
      <path id="Path_111" data-name="Path 111" d="M414.038,34.581a2.305,2.305,0,0,1-.077-2.294,2.215,2.215,0,0,1,1.758-1.072,2.39,2.39,0,0,1,1.84.765c.733.944,1.386,1.848,1.946,2.716a43.739,43.739,0,0,1,4.284,7.916,2.7,2.7,0,0,1,.191,1.836,2.076,2.076,0,0,1-1.454,1.455,2.106,2.106,0,0,1-1.95-.382,5.324,5.324,0,0,1-.768-1,7.949,7.949,0,0,1-.5-1.223q-1.1-2.219-2.179-4.055-1.374-2.257-2.562-3.864c-.18-.281-.307-.471-.38-.574a.532.532,0,0,1-.153-.23m18.7,12.469A16.856,16.856,0,0,1,429.64,50a6.3,6.3,0,0,1-.837.651,4.971,4.971,0,0,1-.883.575,15.868,15.868,0,0,1-1.872,1.032,32.7,32.7,0,0,1-7.995,2.829c-.029.053-.126.09-.306.114l-.077.04a2.206,2.206,0,0,0-1.186,2.866,2.427,2.427,0,0,0,2.906,1.263,46.728,46.728,0,0,0,5.126-1.607,31.784,31.784,0,0,0,4.859-2.332,27.472,27.472,0,0,0,4.322-3.1,21.829,21.829,0,0,0,3.634-4.056,26.591,26.591,0,0,0,3.63-7.344,40.693,40.693,0,0,0,1.761-8.074,5.063,5.063,0,0,0,.192-1.108,3.285,3.285,0,0,0-.035-1.146,2.124,2.124,0,0,0-2.983-1.643,2.5,2.5,0,0,0-1,.916,2.628,2.628,0,0,0-.377,1.108l-.117.916c-.127,1.2-.321,2.412-.574,3.638q-.425,1.95-.917,3.557a24.141,24.141,0,0,1-3.179,6.54,2.6,2.6,0,0,1-.345.536c-.127.2-.188.293-.188.266l-.195.27a.979.979,0,0,0-.265.343m-9.908-17.516a2.233,2.233,0,0,1,2.906-.574,2.611,2.611,0,0,1,.571.494,19.557,19.557,0,0,1,1.458,1.988c.18.259.345.5.5.73A31.634,31.634,0,0,1,430.6,36a41.873,41.873,0,0,1,1.95,4.051,3.743,3.743,0,0,1,.194,1.836,2.086,2.086,0,0,1-1.454,1.418,2.5,2.5,0,0,1-2.026-.344,3.787,3.787,0,0,1-.993-1.608,6.416,6.416,0,0,1-.268-.612,34.145,34.145,0,0,0-2.144-4.092q-1.183-1.987-2.564-3.864c-.127-.1-.189-.19-.189-.268a.7.7,0,0,1-.233-.267.381.381,0,0,1-.15-.191,2.317,2.317,0,0,1,.112-2.524" transform="translate(-166.001 -23.605)" fill="#fff"/>
      <path id="Path_112" data-name="Path 112" d="M330.539,27.041a3.142,3.142,0,0,0-2.438-1.127H311.65c-3.123,0-3.684,1.151-4.16,2.834-1.669,5.917-4.585,7.807-6.051,9.255a2.4,2.4,0,0,0-.863,2.258,2.1,2.1,0,0,0,1.464,1.818,1.883,1.883,0,0,0,.707.148,2.042,2.042,0,0,0,1.378-.437,21.6,21.6,0,0,0,7.178-9.851,1.717,1.717,0,0,1,1.661-1.252l13.406.005c.277.071.577.28.468.882-.076.416-.129.708-.156.876-.044.231-.071.365-.082.444a1.408,1.408,0,0,0-.109.405c-.13.414-.281.97-.46,1.663-1.178,4.2-3.174,9.679-6.381,12.554-6.127,5.5-14.816,6.694-14.825,6.7a2.291,2.291,0,0,0,.716,4.471c1.036-.083,13.044-2.8,18.845-9.5s6.807-14.641,7.084-19.007V29.8a3.69,3.69,0,0,0-.93-2.758" transform="translate(-155.231 -23.343)" fill="#fff"/>
      <path id="Path_113" data-name="Path 113" d="M328.1,25.913H311.65c-3.124,0-3.684,1.151-4.16,2.834-1.67,5.917-4.585,7.808-6.051,9.256a2.4,2.4,0,0,0-.862,2.257,2.1,2.1,0,0,0,1.463,1.819,1.887,1.887,0,0,0,.707.148,2.043,2.043,0,0,0,1.378-.437,21.594,21.594,0,0,0,7.179-9.851,1.715,1.715,0,0,1,1.66-1.253l13.407.006c.276.071.576.28.468.881-.077.417-.129.708-.157.876-.043.232-.07.366-.082.445a1.408,1.408,0,0,0-.108.4c-.129.414-.28.97-.46,1.664-1.177,4.2-3.174,9.678-6.38,12.553-6.128,5.5-14.817,6.694-14.825,6.7a2.292,2.292,0,0,0,.715,4.472c1.558-.11,13.23-2.64,18.845-9.5,5.851-7.154,7.172-16.737,7.438-19.255a3.641,3.641,0,0,0-3.722-4.016" transform="translate(-155.231 -23.343)" fill="#fff"/>
      <path id="Path_114" data-name="Path 114" d="M476.62,25.912H460.175c-3.127,0-3.689,1.15-4.163,2.836-1.667,5.915-4.587,7.806-6.048,9.254a2.4,2.4,0,0,0-.869,2.259,2.1,2.1,0,0,0,1.463,1.817,1.874,1.874,0,0,0,.713.147,2.03,2.03,0,0,0,1.374-.436,21.623,21.623,0,0,0,7.179-9.851,1.706,1.706,0,0,1,1.66-1.252l13.409,0c.271.071.571.28.462.883-.077.416-.129.708-.153.876-.044.232-.074.365-.082.444a1.32,1.32,0,0,0-.109.4c-.129.415-.28.97-.462,1.664-1.169,4.2-3.174,9.68-6.381,12.56-6.124,5.5-14.819,6.689-14.822,6.692a2.292,2.292,0,0,0,.712,4.472c1.561-.11,13.23-2.64,18.845-9.5,5.851-7.156,7.179-16.737,7.444-19.255a3.65,3.65,0,0,0-3.728-4.017" transform="translate(-169.367 -23.343)" fill="#fff"/>
    </g>
  </g>
</svg>
