<svg xmlns="http://www.w3.org/2000/svg" width="191.757" height="153" viewBox="0 0 191.757 153">
  <g id="Group_18" data-name="Group 18" transform="translate(-28 -48)">
    <g id="Group_14" data-name="Group 14" transform="translate(76 48)">
      <rect id="Rectangle_12" data-name="Rectangle 12" width="27.379" height="27.385" transform="translate(0)" fill="#8cb80c"/>
      <rect id="Rectangle_13" data-name="Rectangle 13" width="27.383" height="27.385" transform="translate(34.282)" fill="#8cb80c"/>
      <rect id="Rectangle_14" data-name="Rectangle 14" width="27.38" height="27.384" transform="translate(68.567)" fill="#8cb80c"/>
      <rect id="Rectangle_15" data-name="Rectangle 15" width="27.38" height="27.38" transform="translate(0 34.311)" fill="#8cb80c"/>
      <rect id="Rectangle_16" data-name="Rectangle 16" width="27.381" height="27.381" transform="translate(68.565 34.31)" fill="#8cb80c"/>
      <rect id="Rectangle_17" data-name="Rectangle 17" width="27.38" height="27.382" transform="translate(0 68.618)" fill="#8cb80c"/>
      <rect id="Rectangle_18" data-name="Rectangle 18" width="27.383" height="27.381" transform="translate(34.282 68.617)" fill="#8cb80c"/>
      <rect id="Rectangle_19" data-name="Rectangle 19" width="27.38" height="27.381" transform="translate(68.567 68.617)" fill="#8cb80c"/>
      <path id="Path_104" data-name="Path 104" d="M80.792,54.682l-1.524.589,1.524-.592c-1.374-3.093-4.86-3.824-8.989-3.877-.409,0-.846.027-1.28.046,1.929-2.289,3.647-4.516,5.079-6.6,3.132-4.64,5.075-8.45,5.139-11.644a4.429,4.429,0,0,0-1.163-3.184,4.529,4.529,0,0,0-3.325-1.252c-3.179.061-7.04,1.915-11.722,4.932a104.218,104.218,0,0,0-15.2,12.459,103.9,103.9,0,0,0-12.92,15.005c-3.14,4.641-5.078,8.451-5.148,11.644a5.066,5.066,0,0,0,.352,1.884c0,.019-.006.035-.006.056a2.8,2.8,0,0,0,.008.287c.229,2.972,2.861,4.905,6.247,6.238A37.533,37.533,0,0,0,51.01,82.763c.809,0,1.634-.019,2.468-.06A41.384,41.384,0,0,0,67.889,79.65c3.685-1.681,6.464-3.875,6.573-7.1,0-.084,0-.14,0-.182l-1.445.025,1.445-.066a6.258,6.258,0,0,0-3.112-4.7c1.221-.768,2.356-1.55,3.378-2.336,3.71-2.939,6.25-5.725,6.368-8.966a4.618,4.618,0,0,0-.3-1.648m-28.974-6.57A101.639,101.639,0,0,1,66.485,36.086c4.267-2.832,7.99-4.347,9.67-4.347h.1c.6.007.74.142.769.17L78.3,30.661l-1.278,1.254c.023.022.142.147.149.689.063,1.563-1.507,5.317-4.514,9.619a88.667,88.667,0,0,1-7.385,9.208A67.18,67.18,0,0,0,52.7,55.015a65.681,65.681,0,0,0-12.475,6.334,104.161,104.161,0,0,1,11.59-13.236m3.245,18.712a39.66,39.66,0,0,1,9.217,1.01c-1.774.871-3.659,1.707-5.65,2.482a58.84,58.84,0,0,1-15.3,3.85c1.308-.7,2.684-1.513,4.149-2.456,2.1-1.376,4.338-3.013,6.64-4.862.313-.007.637-.024.945-.024M35.757,73.071a1.456,1.456,0,0,1-.724-.132c-.024-.025-.055-.05-.081-.075v-.008a10.25,10.25,0,0,1,4.4-3.167,33.378,33.378,0,0,1,8.064-2.256c-.643.452-1.274.883-1.887,1.286-4.355,2.895-8.138,4.4-9.768,4.351m16.15-9.028a40.869,40.869,0,0,0-13.732,3.008c-.054.027-.105.055-.159.08a22.465,22.465,0,0,1,1.76-1.469,58.364,58.364,0,0,1,14.107-7.6,69.934,69.934,0,0,1,7.344-2.394c-.344.344-.685.688-1.035,1.033-2.8,2.728-5.6,5.188-8.285,7.345m19.667,8.384h0c0,.061,0,.105,0,.128.109,1.083-1.465,2.986-4.856,4.454A38.674,38.674,0,0,1,53.342,79.82c-.788.038-1.567.052-2.332.052A34.821,34.821,0,0,1,38.9,77.98a13.857,13.857,0,0,1-1.474-.664,23.57,23.57,0,0,0,3.278.249c5.16,0,11.95-1.443,19.1-4.205a71.839,71.839,0,0,0,8.7-4.049c2.078,1.047,3.066,2.268,3.071,3.116m1.158-9.717a44.109,44.109,0,0,1-4.845,3.2A35.657,35.657,0,0,0,57.523,64c1.705-1.486,3.432-3.063,5.16-4.749,1.659-1.615,3.217-3.234,4.694-4.84a33.219,33.219,0,0,1,4.426-.344c3.808-.055,5.844,1.077,5.941,1.786a1.255,1.255,0,0,1,.084.476c.117,1.085-1.611,3.777-5.1,6.379" transform="translate(-8.206 -7.466)" fill="#8fd0e1"/>
    </g>
    <g id="Group_15" data-name="Group 15" transform="translate(73 155)">
      <path id="Path_12" data-name="Path 12" d="M144.691,3.211c-.405,0-.7,0-.7.573v8.044c0,.518,0,1.118-.684,1.118s-.684-.629-.684-1.118V3.2a1.241,1.241,0,0,1,1.285-1.3h3.841V1.131c0-.5,0-1.13.726-1.13s.74.571.74,1.13V1.9h3.98a1.23,1.23,0,0,1,1.271,1.257v7.527c0,1.326-.182,2.137-2.7,2.137-1.047,0-2.15-.014-2.15-.754,0-.7.488-.8.656-.8.111,0,.586.084.684.1a10.681,10.681,0,0,0,1.313.084c.8,0,.81-.266.81-.95V3.84c0-.629-.238-.629-.768-.629h-3.031a8.173,8.173,0,0,0,3.3,4.847.805.805,0,0,1,.391.671.773.773,0,0,1-.7.726c-.447,0-.936-.448-1.955-1.48a9.571,9.571,0,0,1-1.76-2.542c-1.493,3.142-3.407,3.994-3.7,3.994a.74.74,0,0,1-.74-.726c0-.35.237-.518.6-.783a6.878,6.878,0,0,0,2.988-4.706Z" transform="translate(-142.624 -0.001)" fill="#5f5e5e"/>
      <path id="Path_13" data-name="Path 13" d="M164.076,5.379a20.715,20.715,0,0,0,1.313,1.7c.656.768.656.782.656,1.047a.718.718,0,0,1-.712.726c-.405,0-.852-.628-1.257-1.187v4.246c0,.628,0,1.1-.642,1.1s-.628-.475-.628-1.1V7.74a11.277,11.277,0,0,1-1.355,1.732c-.252.264-.391.362-.671.362a.643.643,0,0,1-.67-.671c0-.28.125-.419.377-.712a11.977,11.977,0,0,0,2.151-3.282h-1.1c-.545,0-1.117,0-1.117-.7s.573-.712,1.117-.712h1.271V2.335a13.2,13.2,0,0,1-1.536.2.658.658,0,0,1-.517-.182.784.784,0,0,1-.238-.544c0-.489.378-.671.741-.726a16.363,16.363,0,0,0,2.863-.573A2.663,2.663,0,0,1,164.956.3a.667.667,0,0,1,.7.726c0,.573-.4.741-1.578,1.02V3.76h.8c.545,0,1.117,0,1.117.712s-.573.7-1.117.7h-.8Zm7.9,3.8V11.79c0,.546,0,1.118-.712,1.118s-.7-.573-.7-1.118V9.457l-3.394.671a2.418,2.418,0,0,1-.6.084.647.647,0,0,1-.643-.67c0-.546.433-.628.964-.74l3.673-.754v-6.8c0-.531,0-1.118.712-1.118s.7.587.7,1.118V7.768a3.9,3.9,0,0,1,.782-.127c.573,0,.628.6.628.713,0,.546-.405.629-.978.741ZM169.2,7.1c-.279,0-.348-.055-1.536-1.089-.167-.154-1.006-.8-1.145-.978a.7.7,0,0,1-.139-.433.685.685,0,0,1,.7-.7c.293,0,.377.069,1.172.7.964.754,1.69,1.355,1.69,1.746a.736.736,0,0,1-.741.754m.2-3.6c-.223,0-.307-.055-.964-.6-.223-.181-1.2-.95-1.4-1.1A.686.686,0,0,1,166.7,1.2a.643.643,0,0,1,.641-.656c.224,0,.322,0,1.662,1.089.81.643,1.034.88,1.034,1.215a.638.638,0,0,1-.643.643" transform="translate(-146.934 -0.033)" fill="#5f5e5e"/>
      <path id="Path_14" data-name="Path 14" d="M182.712,8.185A1.382,1.382,0,1,1,181.329,6.8a1.376,1.376,0,0,1,1.383,1.383" transform="translate(-151.824 -1.677)" fill="#5f5e5e"/>
      <path id="Path_15" data-name="Path 15" d="M187.364,7.554c-.265.293-.712.726-1.033.726a.644.644,0,0,1-.671-.656c0-.308.21-.531.6-.894a11.023,11.023,0,0,0,1.913-2.361c.488-.8.544-.88.866-.88a.579.579,0,0,1,.628.629c0,.251-.084.614-.977,1.816v5.977c0,.53,0,1.117-.7,1.117-.628,0-.628-.516-.628-1.117ZM189.458.782c0,.628-1.3,2.01-1.9,2.583-.684.656-.838.7-1.061.7a.739.739,0,0,1-.741-.712c0-.293.182-.46.768-.963A10.882,10.882,0,0,0,188.16.516c.167-.209.307-.4.573-.4a.683.683,0,0,1,.726.671m1.649,3.128c-.014,1.173-.029,4.776-.126,5.572-.154,1.326-.573,2.737-1.215,2.737a.616.616,0,0,1-.643-.53,9.945,9.945,0,0,1,.377-1.145c.14-.461.322-1.02.322-4.679,0-.461-.029-2.723-.029-3.241,0-1.27.014-1.885,1.509-1.885A33.27,33.27,0,0,0,195.9.432c.307-.041,1.8-.307,1.885-.307a.631.631,0,0,1,.683.628c0,.573-.223.615-2.778.922V2.68h2.053c.53,0,1.1,0,1.1.614s-.558.615-1.1.615h-2.053v.769h1.647a1.039,1.039,0,0,1,1.09,1.215v5.558a1.107,1.107,0,0,1-1.09,1.215h-4.566c-.894,0-1.089-.671-1.089-1.215V5.823a1.032,1.032,0,0,1,1.1-1.145h1.579V3.909Zm0-1.229h3.254V1.8c-.741.057-2.011.112-2.625.112-.573,0-.628.182-.628.6Zm6.06,4.133V6.256c0-.266-.181-.363-.4-.363h-3.45c-.237,0-.405.112-.405.363v.558Zm-4.26,2.221h4.26V8.057h-4.26Zm0,1.173v.88a.357.357,0,0,0,.405.363h3.45c.224,0,.4-.1.4-.363v-.88Z" transform="translate(-153.232 -0.028)" fill="#5f5e5e"/>
      <path id="Path_16" data-name="Path 16" d="M207.212,4.983c.573,0,1.173,0,1.173.642s-.6.643-1.173.643V9.591a1.958,1.958,0,0,1,.684-.209.622.622,0,0,1,.586.684c0,.349-.139.489-.949.782a13.578,13.578,0,0,1-2.3.628.649.649,0,0,1-.656-.671.557.557,0,0,1,.391-.585c.154-.057.851-.2.992-.238V6.267c-.712,0-1.271,0-1.271-.643s.559-.642,1.271-.642V2.063c-.782,0-1.327,0-1.327-.628s.628-.614,1.1-.614h1.55c.475,0,1.1,0,1.1.628s-.615.614-1.173.614Zm9.4,3.645a1.015,1.015,0,0,1-.2.586.636.636,0,0,1,.711.546c0,.391-.726.949-1.228,1.326.153.07.907.391,1.09.461a.659.659,0,0,1-.2,1.27,6.95,6.95,0,0,1-3.826-2.542v1.7c0,.531,0,1.1-.628,1.1s-.628-.573-.628-1.1V10.205c-.754.852-2.667,2.3-3.477,2.3a.533.533,0,0,1-.53-.587c0-.363.2-.475.894-.866a8.779,8.779,0,0,0,2.136-1.62h-.949a.757.757,0,0,1-.81-.81V7.008a.772.772,0,0,1,.81-.824h6.033a.763.763,0,0,1,.8.824Zm-7.094-2.989c-.461,0-1.1,0-1.1-.586s.643-.573,1.1-.573h6.815c.461,0,1.1,0,1.1.586s-.642.573-1.1.573ZM216.037.555a.744.744,0,0,1,.852.782V3.208a.75.75,0,0,1-.852.8h-6.215a.753.753,0,0,1-.851-.8V1.337a.746.746,0,0,1,.851-.782Zm-4.818,1.117h-.643c-.363,0-.363.168-.363.391v.42c0,.223,0,.391.363.391h.643Zm-.573,5.587c-.335,0-.378.112-.378.418v.364c0,.279.07.307.5.307h4.245c.35,0,.378-.182.378-.4V7.609c0-.225-.057-.35-.35-.35Zm1.746-4.385h1.034v-1.2h-1.034Zm1.55,6.564a5.656,5.656,0,0,0,.8.921,10.327,10.327,0,0,0,1.242-.935.6.6,0,0,1-.167.014Zm.685-6.564h.7c.362,0,.362-.168.362-.391v-.42c0-.223,0-.391-.362-.391h-.7Z" transform="translate(-157.894 -0.137)" fill="#5f5e5e"/>
      <path id="Path_17" data-name="Path 17" d="M234.589,5.382c.447,0,1.1,0,1.1.573s-.671.559-1.1.559H232.55A6.646,6.646,0,0,0,234.924,7.7c.809.209,1.006.265,1.006.782a.721.721,0,0,1-.7.713,1.034,1.034,0,0,1-.265-.043v2.374c0,.754-.238,1.327-1.173,1.327H231a1.056,1.056,0,0,1-1.173-1.243V8.887a.949.949,0,0,1,1.034-.964h1.313a6.377,6.377,0,0,1-1.453-1.41h-1.759a8.63,8.63,0,0,1-1.662,1.41h.5c.937,0,1.188.573,1.188.964v2.723a1.065,1.065,0,0,1-1.09,1.243h-2.71c-.362,0-1.215,0-1.215-1.034V9.208c-.307.029-.936,0-.936-.656,0-.489.378-.6.839-.712a8.774,8.774,0,0,0,3.086-1.327h-2.612c-.448,0-1.09,0-1.09-.573s.658-.559,1.09-.559h3.813a4.459,4.459,0,0,0,.447-.642.66.66,0,0,1,.614-.42c.069,0,.7.084.7.684a.669.669,0,0,1-.112.378ZM227.858.592a1.007,1.007,0,0,1,1.158,1.062V3.5A1.076,1.076,0,0,1,227.8,4.629h-2.708c-1.132,0-1.2-.684-1.2-1.075V1.514c0-.922.922-.922,1.2-.922Zm-2.221,1.257c-.336,0-.448.028-.448.363v.8c0,.418.182.418.448.418h1.676c.4,0,.4-.084.4-.433V2.212c0-.363-.237-.363-.391-.363Zm.265,7.29c-.4,0-.586.014-.586.53v1.564c0,.335.1.377.516.377h1.355c.182,0,.5,0,.5-.377V9.517c0-.308-.112-.378-.4-.378Zm7.96-8.518c1.215,0,1.243.865,1.243.879V3.427c0,.489-.028,1.2-1.02,1.2h-2.849c-.851,0-1.312-.168-1.312-1.132V1.654A1,1,0,0,1,231.1.621Zm-2.178,8.518c-.475,0-.516.168-.516.573v1.466c0,.433.2.433.516.433h1.425c.433,0,.516-.167.516-.516V9.613c0-.335-.042-.474-.433-.474Zm0-7.29c-.321,0-.448.07-.448.448v.726c0,.4.127.4.531.4H233.4c.378,0,.391-.182.391-.418V2.156c0-.307-.252-.307-.42-.307Z" transform="translate(-162.446 -0.147)" fill="#5f5e5e"/>
      <path id="Path_18" data-name="Path 18" d="M244.372,3.211c-.407,0-.7,0-.7.573v8.044c0,.518,0,1.118-.684,1.118s-.684-.629-.684-1.118V3.2a1.241,1.241,0,0,1,1.285-1.3h3.84V1.131c0-.5,0-1.13.727-1.13s.739.571.739,1.13V1.9h3.981a1.23,1.23,0,0,1,1.27,1.257v7.527c0,1.326-.182,2.137-2.7,2.137-1.048,0-2.15-.014-2.15-.754,0-.7.488-.8.656-.8.112,0,.586.084.684.1a10.684,10.684,0,0,0,1.313.084c.8,0,.809-.266.809-.95V3.84c0-.629-.237-.629-.767-.629h-3.03a8.175,8.175,0,0,0,3.294,4.847.8.8,0,0,1,.391.671.773.773,0,0,1-.7.726c-.448,0-.936-.448-1.956-1.48a9.614,9.614,0,0,1-1.759-2.542c-1.494,3.142-3.406,3.994-3.7,3.994A.74.74,0,0,1,243.8,8.7c0-.35.237-.518.6-.783a6.88,6.88,0,0,0,2.988-4.706Z" transform="translate(-167.194 -0.001)" fill="#5f5e5e"/>
      <path id="Path_19" data-name="Path 19" d="M263.755,5.379a20.493,20.493,0,0,0,1.313,1.7c.656.768.656.782.656,1.047a.718.718,0,0,1-.713.726c-.4,0-.852-.628-1.257-1.187v4.246c0,.628,0,1.1-.642,1.1s-.628-.475-.628-1.1V7.74a11.329,11.329,0,0,1-1.355,1.732c-.252.264-.391.362-.671.362a.643.643,0,0,1-.671-.671c0-.28.126-.419.378-.712a12,12,0,0,0,2.151-3.282h-1.1c-.544,0-1.117,0-1.117-.7s.573-.712,1.117-.712h1.272V2.335a13.245,13.245,0,0,1-1.536.2.658.658,0,0,1-.518-.182.783.783,0,0,1-.237-.544c0-.489.378-.671.74-.726A16.348,16.348,0,0,0,263.8.507,2.665,2.665,0,0,1,264.636.3a.666.666,0,0,1,.7.726c0,.573-.4.741-1.578,1.02V3.76h.8c.546,0,1.118,0,1.118.712s-.573.7-1.118.7h-.8Zm7.9,3.8V11.79c0,.546,0,1.118-.712,1.118s-.7-.573-.7-1.118V9.457l-3.394.671a2.422,2.422,0,0,1-.6.084.647.647,0,0,1-.643-.67c0-.546.433-.628.964-.74l3.673-.754v-6.8c0-.531,0-1.118.712-1.118s.7.587.7,1.118V7.768a3.915,3.915,0,0,1,.782-.127c.573,0,.629.6.629.713,0,.546-.405.629-.978.741ZM268.88,7.1c-.279,0-.348-.055-1.536-1.089-.167-.154-1.005-.8-1.145-.978a.7.7,0,0,1-.139-.433.685.685,0,0,1,.7-.7c.293,0,.378.069,1.173.7.964.754,1.689,1.355,1.689,1.746a.736.736,0,0,1-.74.754m.2-3.6c-.223,0-.307-.055-.964-.6-.223-.181-1.2-.95-1.4-1.1a.686.686,0,0,1-.335-.587.642.642,0,0,1,.641-.656c.224,0,.321,0,1.662,1.089.81.643,1.034.88,1.034,1.215a.638.638,0,0,1-.643.643" transform="translate(-171.504 -0.033)" fill="#5f5e5e"/>
    </g>
    <g id="Group_16" data-name="Group 16" transform="translate(28 178)">
      <path id="Path_105" data-name="Path 105" d="M157.631,42.914a1.276,1.276,0,0,1,.968,1.32,1.441,1.441,0,0,1-.425,1.016,1.418,1.418,0,0,1-.99.4,2.174,2.174,0,0,1-.519-.07q-.849-.283-1.769-.636a3.337,3.337,0,0,1-.448-.142,2.844,2.844,0,0,0-.448-.166,3.357,3.357,0,0,1-.449-.141,1.735,1.735,0,0,1-.447-.167,2.658,2.658,0,0,1-.449-.142,2.722,2.722,0,0,1-.447-.141q-.425-.141-.919-.284-.92-.234-1.84-.541-1.911-.567-4.175-1.133c-.706-.142-1.415-.306-2.122-.495-.709-.144-1.414-.3-2.122-.472a1.339,1.339,0,0,1-1.084-1.391,1.484,1.484,0,0,1,.4-1.016,1.367,1.367,0,0,1,.99-.423,1.112,1.112,0,0,1,.261.023h.048a15.835,15.835,0,0,1,2.239.518,3.66,3.66,0,0,1,.588.143l.567.142c.281.047.652.135,1.109.259a3.362,3.362,0,0,1,.589.143c.189.046.378.093.566.141q.588.139,1.131.281a1.314,1.314,0,0,1,.331.1,3.473,3.473,0,0,1,.52.141,123.275,123.275,0,0,0,1.036.283,3.432,3.432,0,0,1,.518.141,1.408,1.408,0,0,1,.307.1q.921.282,2.075.683.992.285,2.052.661c.189.064.393.134.614.213.283.093.574.2.873.329a6.282,6.282,0,0,1,.871.33m-.07-6.65A1.263,1.263,0,0,1,156.17,37.7a1.523,1.523,0,0,1-.283-.025c-.094-.016-.173-.031-.236-.046q-3.184-1.2-6.6-2.194-3.254-.92-6.579-1.626h-.046a1.269,1.269,0,0,1-1.135-1.392,1.435,1.435,0,0,1,.426-1.013,1.385,1.385,0,0,1,1.014-.426h.07a1.44,1.44,0,0,0,.213.047q.781.142,1.673.354c.191.048.393.094.615.141.189.048.369.095.542.141a2.476,2.476,0,0,1,.542.118q.565.142,1.155.285c.425.093.842.2,1.251.307a5.57,5.57,0,0,1,.635.188,1.009,1.009,0,0,1,.306.093,1.158,1.158,0,0,1,.308.071c.392.11.769.229,1.131.354a4.132,4.132,0,0,1,.567.188.808.808,0,0,1,.284.1.827.827,0,0,1,.259.071c.849.235,1.665.5,2.451.8a.189.189,0,0,1,.071.023c.614.235.928.354.943.354.3.094.606.2.921.33a1.376,1.376,0,0,1,.9,1.322m1.273-7.147a1.353,1.353,0,0,1-.423.99,1.438,1.438,0,0,1-1.015.4,1.2,1.2,0,0,1-.449-.07c-.157-.049-.432-.136-.824-.261-.158-.046-.434-.142-.826-.283l-.825-.258q-.236-.072-.827-.283c-.156-.046-.431-.132-.825-.261-.142-.045-.275-.085-.4-.117L152,28.836a1.519,1.519,0,0,1-.4-.118,1.414,1.414,0,0,1-.426-.12c-.141-.046-.275-.086-.4-.118l-.426-.141q-1.628-.423-3.56-.918c-.567-.143-1.155-.284-1.77-.427q-.849-.165-1.767-.4a1.268,1.268,0,0,1-1.134-1.392,1.47,1.47,0,0,1,.4-1.014,1.407,1.407,0,0,1,1.038-.425.937.937,0,0,1,.306.048q.658.141,1.345.282a6.228,6.228,0,0,0,.659.166.831.831,0,0,1,.331.095,1.252,1.252,0,0,1,.33.072q.637.139,1.32.305a1.346,1.346,0,0,1,.333.094c.139.048.194.062.162.048a.445.445,0,0,1,.168.046c.2.047.414.1.636.165a3.376,3.376,0,0,1,.588.141,3.33,3.33,0,0,1,.59.141c.142.049.339.1.591.167a.963.963,0,0,1,.306.093,1.952,1.952,0,0,1,.284.071q1.152.352,2.333.706c.346.11.7.23,1.061.355.331.11.676.228,1.038.354a14.411,14.411,0,0,1,1.935.661,1.311,1.311,0,0,1,.964,1.344" transform="translate(-139.945 -23.377)" fill="#5f5e5e"/>
      <path id="Path_106" data-name="Path 106" d="M197.1,33.6a16.494,16.494,0,0,1-.165,2.358q-.069.521-.213,1.18c-.094.391-.211.793-.354,1.2A14.466,14.466,0,0,1,193.9,42.8a10.366,10.366,0,0,1-3.255,2.453,14.269,14.269,0,0,1-2.076.8,24.672,24.672,0,0,1-2.405.589c-.3.046-.543.087-.73.119-.3.046-.544.086-.733.118l-1.487.142a1.394,1.394,0,0,1-1.486-.874,1.519,1.519,0,0,1,.1-1.273,1.487,1.487,0,0,1,1.086-.684,18.4,18.4,0,0,0,2.783-.378,1.992,1.992,0,0,0,.543-.094c.11-.014.2-.032.282-.047a.794.794,0,0,0,.259-.073,7.985,7.985,0,0,0,1.061-.305c.427-.141.788-.267,1.087-.378a4.6,4.6,0,0,0,1.037-.518,6.842,6.842,0,0,0,1.557-1.227,8.145,8.145,0,0,0,1.367-1.957,14.554,14.554,0,0,0,.731-1.651,10.243,10.243,0,0,0,.495-1.956c.062-.519.1-1.187.118-2.006V30.981a1.708,1.708,0,0,0-.329-1.2,1.856,1.856,0,0,0-1.2-.3H182.621a1.9,1.9,0,0,0-1.227.305,1.531,1.531,0,0,0-.353,1.2v4.6a1.435,1.435,0,0,1-.425,1.013,1.377,1.377,0,0,1-1.014.425,1.355,1.355,0,0,1-.99-.425,1.379,1.379,0,0,1-.425-1.013V30.559q0-3.964,4.01-3.964h10.872q4.034,0,4.033,3.963Z" transform="translate(-156.852 -24.629)" fill="#5f5e5e"/>
      <path id="Path_107" data-name="Path 107" d="M217.711,27.619a2.182,2.182,0,0,1,1.744-.731h6.6V24.93a1.592,1.592,0,0,1,.379-1.108,1.38,1.38,0,0,1,.966-.4,1.444,1.444,0,0,1,.966.378,1.581,1.581,0,0,1,.4,1.131v1.958h6.3a2.251,2.251,0,0,1,1.7.709,2.463,2.463,0,0,1,.779,1.745V42.806a2.895,2.895,0,0,1-2.807,3.28,14.065,14.065,0,0,1-3.23-.211,1.706,1.706,0,0,1-1.085-.686,1.8,1.8,0,0,1-.166-1.108,1.458,1.458,0,0,1,.663-.9,1.549,1.549,0,0,1,1.225-.165,8.466,8.466,0,0,0,1.487.355,1.227,1.227,0,0,0,.566-.094,1.678,1.678,0,0,0,.636-1.509V30.5a1.034,1.034,0,0,0-.282-.637.949.949,0,0,0-.614-.261h-5.188q-.071,1.085-.166,1.958a2.533,2.533,0,0,0-.093.472.255.255,0,0,1,.071.047q.659.732,2.31,2.639,1.605,1.843,2.736,3.422a1.53,1.53,0,0,1,.283,1.109,1.485,1.485,0,0,1-.542.871,1.422,1.422,0,0,1-.991.237,1.489,1.489,0,0,1-.966-.685q-1.062-1.508-2.571-3.3c-.519-.566-.927-1.039-1.227-1.415-.094.219-.2.447-.307.682a13.824,13.824,0,0,1-.942,1.674,11.776,11.776,0,0,1-1.157,1.392,11.229,11.229,0,0,1-1.439,1.274,8.169,8.169,0,0,1-1.061.662,1.486,1.486,0,0,1-1.155.163,1.266,1.266,0,0,1-.827-.636,1.62,1.62,0,0,1-.141-1.013,1.69,1.69,0,0,1,.778-.9,4.494,4.494,0,0,0,.85-.545,8.977,8.977,0,0,0,.944-.8,13.191,13.191,0,0,0,1.084-1.3,12.691,12.691,0,0,0,.848-1.51,11.039,11.039,0,0,0,.543-1.555,8.36,8.36,0,0,0,.353-1.746,10.094,10.094,0,0,0,.073-1.2h-5.284a.95.95,0,0,0-.73.308,1.022,1.022,0,0,0-.305.706l0,14.129a1.652,1.652,0,0,1-.4,1.083,1.4,1.4,0,0,1-.966.4,1.458,1.458,0,0,1-.968-.378A1.655,1.655,0,0,1,217,44.743V29.317a2.37,2.37,0,0,1,.708-1.7" transform="translate(-174.014 -23.231)" fill="#5f5e5e"/>
      <path id="Path_108" data-name="Path 108" d="M264.293,45.789a1.4,1.4,0,0,1-.967.4,1.448,1.448,0,0,1-.966-.378,1.656,1.656,0,0,1-.378-1.108l0-6.484q-.922,1.649-1.793,2.923a1.494,1.494,0,0,1-.968.636,1.324,1.324,0,0,1-1.015-.258,1.415,1.415,0,0,1-.543-.873,1.546,1.546,0,0,1,.354-1.133,28.225,28.225,0,0,0,2.358-3.443,25.939,25.939,0,0,0,1.158-2.547h-2.454a1.293,1.293,0,0,1-.991-.377,1.393,1.393,0,0,1-.378-.991,1.317,1.317,0,0,1,.378-.967,1.3,1.3,0,0,1,.991-.378h2.9V27.134q-1.111.117-2.242.213a1.634,1.634,0,0,1-1.062-.308,1.441,1.441,0,0,1-.472-.943,1.218,1.218,0,0,1,.307-.967,1.51,1.51,0,0,1,1.062-.423,37.346,37.346,0,0,0,6.369-1.037,1.539,1.539,0,0,1,1.133.046,1.245,1.245,0,0,1,.612.8,1.388,1.388,0,0,1-.094,1.013,1.543,1.543,0,0,1-.9.662c-.628.187-1.3.361-2,.517v4.1h2.311a1.3,1.3,0,0,1,.968.355,1.4,1.4,0,0,1,.378.99,1.313,1.313,0,0,1-.378.968,1.273,1.273,0,0,1-.968.4H264.7v1.722a1.419,1.419,0,0,1,.967-.33,1.5,1.5,0,0,1,.967.541,12.946,12.946,0,0,1,1.438,2.076,1.489,1.489,0,0,1,.165,1.109,1.372,1.372,0,0,1-.661.8,1.228,1.228,0,0,1-1.015.118,1.9,1.9,0,0,1-.85-.8,8.717,8.717,0,0,0-1.013-1.486V44.7a1.669,1.669,0,0,1-.4,1.085M275.284,24.7a1.336,1.336,0,0,1,.354-.99,1.389,1.389,0,0,1,.991-.378,1.325,1.325,0,0,1,.942.354A1.293,1.293,0,0,1,278,24.7V37.086l.731-.141a1.532,1.532,0,0,1,1.155.187,1.3,1.3,0,0,1,.519.9,1.275,1.275,0,0,1-.165.991,1.439,1.439,0,0,1-1.013.59L278,39.846V44.7a1.674,1.674,0,0,1-.4,1.085,1.409,1.409,0,0,1-.967.4,1.452,1.452,0,0,1-.966-.379,1.65,1.65,0,0,1-.379-1.108V40.34l-5.494.967a1.753,1.753,0,0,1-1.109-.142,1.349,1.349,0,0,1-.59-.873,1.494,1.494,0,0,1,.189-1.061,1.445,1.445,0,0,1,1.015-.59l5.989-1.061Zm-6.51,8.326a1.235,1.235,0,0,1,.119-1.014,1.419,1.419,0,0,1,.777-.639,1.823,1.823,0,0,1,1.156.213q.378.234,1.322.874a16.535,16.535,0,0,1,1.578,1.179,1.444,1.444,0,0,1,.544.991,1.355,1.355,0,0,1-.307.989,1.562,1.562,0,0,1-.92.471,1.523,1.523,0,0,1-1.084-.423,16.939,16.939,0,0,0-1.369-1.061c-.566-.362-.928-.6-1.084-.707a1.5,1.5,0,0,1-.733-.873m.545-6.653a1.242,1.242,0,0,1,.165-1.013,1.4,1.4,0,0,1,.8-.614,1.521,1.521,0,0,1,1.157.26c.236.173.659.481,1.273.919.583.439,1.086.85,1.511,1.226a1.506,1.506,0,0,1,.519,1.038,1.372,1.372,0,0,1-.355.967,1.346,1.346,0,0,1-.919.423,1.757,1.757,0,0,1-1.086-.47,12.686,12.686,0,0,0-1.32-1.084c-.536-.394-.88-.645-1.038-.756a1.591,1.591,0,0,1-.706-.9" transform="translate(-191.984 -23.191)" fill="#5f5e5e"/>
      <path id="Path_109" data-name="Path 109" d="M341.752,35.572a1.493,1.493,0,0,1-.4-.966V24.417a1.381,1.381,0,0,1,2.761,0V34.606c-.081.912-.543,1.368-1.393,1.368a1.515,1.515,0,0,1-.966-.4m12.14-1.133a4.715,4.715,0,0,1-.165,1.18,8.59,8.59,0,0,1-.376,1.083,4.531,4.531,0,0,1-.5,1.016,6.761,6.761,0,0,1-1.436,1.7,5.022,5.022,0,0,1-.877.636,5.231,5.231,0,0,1-.917.567,11.427,11.427,0,0,1-2.288.968,8.214,8.214,0,0,1-1.156.329c-.441.1-.831.166-1.174.212a1.274,1.274,0,0,0-1.135,1.368,1.531,1.531,0,0,0,.4.967,1.485,1.485,0,0,0,.968.4h.258c.314-.062.565-.118.753-.164.378-.095.621-.151.73-.166.488-.127.967-.267,1.439-.425a23.867,23.867,0,0,0,2.455-1.038,16.52,16.52,0,0,0,2.167-1.439,10.811,10.811,0,0,0,2.431-2.993c.093-.191.234-.481.423-.874a6.45,6.45,0,0,0,.332-.991,6.778,6.778,0,0,0,.376-2.17V24.417a1.333,1.333,0,0,0-.4-.967,1.281,1.281,0,0,0-.942-.378,1.2,1.2,0,0,0-1.371,1.345V34.44Z" transform="translate(-228.991 -23.072)" fill="#5f5e5e"/>
      <path id="Path_110" data-name="Path 110" d="M373.874,45.647a1.363,1.363,0,0,1-.993-.425,1.482,1.482,0,0,1-.4-1.014,1.567,1.567,0,0,1,.4-1.013,1.437,1.437,0,0,1,1.015-.426h18.776a1.386,1.386,0,0,1,1.013.425,1.44,1.44,0,0,1,.423,1.013,1.387,1.387,0,0,1-.423,1.014,1.436,1.436,0,0,1-1.013.425Zm.234-15.024a1.427,1.427,0,0,1-.423-1.013A1.447,1.447,0,0,1,375.1,28.2H391.42a1.413,1.413,0,0,1,1.442,1.414,1.416,1.416,0,0,1-1.442,1.439H375.1a1.357,1.357,0,0,1-.991-.426" transform="translate(-242.753 -25.336)" fill="#5f5e5e"/>
      <path id="Path_111" data-name="Path 111" d="M413.905,32.312a1.421,1.421,0,0,1-.047-1.414,1.366,1.366,0,0,1,1.084-.661,1.474,1.474,0,0,1,1.135.472c.452.582.855,1.139,1.2,1.675a26.965,26.965,0,0,1,2.642,4.881,1.667,1.667,0,0,1,.118,1.132,1.28,1.28,0,0,1-.9.9,1.3,1.3,0,0,1-1.2-.235,3.277,3.277,0,0,1-.474-.614,4.887,4.887,0,0,1-.307-.754q-.681-1.368-1.343-2.5-.847-1.392-1.579-2.382c-.111-.174-.189-.291-.234-.354a.328.328,0,0,1-.094-.142M425.437,40a10.4,10.4,0,0,1-1.911,1.816,3.879,3.879,0,0,1-.516.4,3.063,3.063,0,0,1-.545.355,9.78,9.78,0,0,1-1.154.637,20.165,20.165,0,0,1-4.93,1.745c-.018.033-.077.056-.189.07l-.047.025a1.36,1.36,0,0,0-.731,1.767,1.5,1.5,0,0,0,1.792.779,28.811,28.811,0,0,0,3.16-.991,19.593,19.593,0,0,0,3-1.438,16.938,16.938,0,0,0,2.665-1.91,13.459,13.459,0,0,0,2.24-2.5,16.392,16.392,0,0,0,2.238-4.528,25.084,25.084,0,0,0,1.086-4.978,3.124,3.124,0,0,0,.118-.683,2.022,2.022,0,0,0-.022-.706,1.309,1.309,0,0,0-1.839-1.013,1.542,1.542,0,0,0-.615.565A1.617,1.617,0,0,0,429,30.1l-.073.565c-.078.741-.2,1.487-.354,2.243q-.262,1.2-.565,2.193a14.888,14.888,0,0,1-1.961,4.032,1.6,1.6,0,0,1-.213.33c-.078.126-.116.181-.116.164l-.12.166a.6.6,0,0,0-.163.211m-6.109-10.8a1.377,1.377,0,0,1,1.792-.354,1.608,1.608,0,0,1,.352.3,12.1,12.1,0,0,1,.9,1.226c.111.16.212.309.308.45a19.516,19.516,0,0,1,1.436,2.359,25.829,25.829,0,0,1,1.2,2.5,2.307,2.307,0,0,1,.12,1.132,1.287,1.287,0,0,1-.9.874,1.542,1.542,0,0,1-1.249-.212,2.335,2.335,0,0,1-.612-.991,3.976,3.976,0,0,1-.165-.377,21.046,21.046,0,0,0-1.322-2.523q-.73-1.225-1.581-2.383c-.078-.062-.117-.117-.117-.165a.43.43,0,0,1-.143-.165.234.234,0,0,1-.093-.118,1.428,1.428,0,0,1,.069-1.556" transform="translate(-260.97 -25.545)" fill="#5f5e5e"/>
      <path id="Path_112" data-name="Path 112" d="M319.037,26.609a1.938,1.938,0,0,0-1.5-.7H307.39c-1.926,0-2.271.71-2.565,1.747a10.6,10.6,0,0,1-3.731,5.707,1.48,1.48,0,0,0-.532,1.392,1.3,1.3,0,0,0,.9,1.121,1.161,1.161,0,0,0,.436.091,1.259,1.259,0,0,0,.85-.269,13.316,13.316,0,0,0,4.426-6.074,1.059,1.059,0,0,1,1.024-.772l8.266,0c.171.044.356.172.288.544-.047.257-.08.436-.1.54-.027.142-.044.225-.051.274a.869.869,0,0,0-.067.25c-.08.255-.173.6-.283,1.025-.726,2.587-1.957,5.968-3.934,7.741a19.378,19.378,0,0,1-9.141,4.13,1.413,1.413,0,0,0,.441,2.757c.639-.051,8.043-1.724,11.619-5.858a19.482,19.482,0,0,0,4.368-11.72V28.31a2.275,2.275,0,0,0-.573-1.7" transform="translate(-210.945 -24.327)" fill="#ffec00"/>
      <path id="Path_113" data-name="Path 113" d="M317.533,25.913H307.39c-1.926,0-2.271.71-2.565,1.747a10.6,10.6,0,0,1-3.731,5.707,1.48,1.48,0,0,0-.532,1.391,1.3,1.3,0,0,0,.9,1.121,1.164,1.164,0,0,0,.436.091,1.26,1.26,0,0,0,.85-.269,13.314,13.314,0,0,0,4.426-6.074,1.057,1.057,0,0,1,1.024-.773l8.266,0c.17.044.355.172.288.543-.047.257-.08.437-.1.54-.027.143-.043.225-.051.274a.867.867,0,0,0-.067.249c-.08.255-.172.6-.283,1.026-.726,2.587-1.957,5.967-3.934,7.74a19.375,19.375,0,0,1-9.141,4.13,1.413,1.413,0,0,0,.441,2.757c.961-.068,8.157-1.628,11.619-5.859,3.607-4.411,4.422-10.32,4.586-11.872a2.245,2.245,0,0,0-2.295-2.476" transform="translate(-210.945 -24.326)" fill="#5f5e5e"/>
      <path id="Path_114" data-name="Path 114" d="M466.053,25.912h-10.14c-1.928,0-2.275.709-2.567,1.748a10.608,10.608,0,0,1-3.729,5.706,1.479,1.479,0,0,0-.536,1.393,1.3,1.3,0,0,0,.9,1.12,1.156,1.156,0,0,0,.44.091,1.251,1.251,0,0,0,.847-.269,13.333,13.333,0,0,0,4.426-6.074,1.052,1.052,0,0,1,1.024-.772l8.268,0c.167.044.352.173.285.544-.047.257-.08.436-.094.54-.027.143-.046.225-.051.274a.812.812,0,0,0-.068.249c-.08.256-.172.6-.285,1.026-.721,2.588-1.957,5.968-3.934,7.744a19.366,19.366,0,0,1-9.139,4.126,1.413,1.413,0,0,0,.439,2.757c.962-.068,8.157-1.628,11.619-5.858,3.607-4.412,4.426-10.32,4.59-11.872a2.25,2.25,0,0,0-2.3-2.477" transform="translate(-276.607 -24.327)" fill="#5f5e5e"/>
    </g>
  </g>
</svg>
