<svg xmlns="http://www.w3.org/2000/svg" width="233.418" height="51.037" viewBox="0 0 233.418 51.037">
  <g id="Group_96" data-name="Group 96" transform="translate(-404 -5662)">
    <g id="Group_75" data-name="Group 75" transform="translate(406.684 5662)">
      <path id="Path_12" data-name="Path 12" d="M144.854,3.464c-.437,0-.754,0-.754.618v8.679c0,.559,0,1.207-.738,1.207s-.738-.679-.738-1.207V3.45a1.339,1.339,0,0,1,1.386-1.4h4.144V1.221c0-.543,0-1.22.784-1.22s.8.616.8,1.22v.828h4.294A1.327,1.327,0,0,1,155.4,3.405v8.121c0,1.431-.2,2.306-2.909,2.306-1.13,0-2.32-.015-2.32-.814,0-.753.527-.859.708-.859.12,0,.633.09.738.106a11.525,11.525,0,0,0,1.416.09c.859,0,.874-.287.874-1.025V4.143c0-.679-.257-.679-.828-.679h-3.27c.406,2.546,2.32,4.219,3.555,5.229a.869.869,0,0,1,.422.724.834.834,0,0,1-.753.783c-.482,0-1.01-.483-2.11-1.6a10.327,10.327,0,0,1-1.9-2.743c-1.611,3.39-3.676,4.31-3.993,4.31a.8.8,0,0,1-.8-.783c0-.377.256-.559.648-.845a7.421,7.421,0,0,0,3.224-5.078Z" transform="translate(-142.624 -0.001)" fill="#fff"/>
      <path id="Path_13" data-name="Path 13" d="M164.389,5.794a22.335,22.335,0,0,0,1.416,1.839c.708.828.708.844.708,1.13a.774.774,0,0,1-.768.783c-.437,0-.92-.677-1.356-1.28v4.581c0,.678,0,1.19-.693,1.19s-.678-.512-.678-1.19V8.341a12.169,12.169,0,0,1-1.462,1.869c-.272.285-.422.391-.724.391a.694.694,0,0,1-.723-.724c0-.3.135-.452.406-.768a12.924,12.924,0,0,0,2.32-3.541h-1.19c-.588,0-1.206,0-1.206-.753,0-.768.618-.768,1.206-.768h1.372V2.509a14.246,14.246,0,0,1-1.658.211.709.709,0,0,1-.558-.2.845.845,0,0,1-.257-.587c0-.528.408-.724.8-.783a17.655,17.655,0,0,0,3.089-.618,2.873,2.873,0,0,1,.9-.226.719.719,0,0,1,.753.783c0,.618-.437.8-1.7,1.1V4.047h.859c.588,0,1.206,0,1.206.768,0,.753-.618.753-1.206.753h-.859Zm8.528,4.1V12.71c0,.589,0,1.206-.768,1.206s-.754-.618-.754-1.206V10.194l-3.662.724a2.609,2.609,0,0,1-.647.09.7.7,0,0,1-.693-.723c0-.589.467-.678,1.04-.8l3.963-.814V1.335c0-.573,0-1.206.768-1.206s.754.633.754,1.206V8.371a4.207,4.207,0,0,1,.844-.137c.618,0,.678.649.678.769,0,.589-.437.679-1.055.8Zm-3-2.245c-.3,0-.376-.059-1.657-1.175-.18-.167-1.085-.859-1.236-1.055a.754.754,0,0,1-.15-.467.739.739,0,0,1,.754-.752c.316,0,.407.075,1.265.752,1.04.814,1.824,1.462,1.824,1.884a.794.794,0,0,1-.8.814m.211-3.888c-.241,0-.332-.059-1.04-.647-.241-.2-1.3-1.025-1.506-1.19a.74.74,0,0,1-.361-.633.694.694,0,0,1,.692-.708c.241,0,.347,0,1.794,1.175.874.693,1.115.95,1.115,1.311a.688.688,0,0,1-.694.693" transform="translate(-145.894 -0.025)" fill="#fff"/>
      <path id="Path_14" data-name="Path 14" d="M182.93,8.294A1.491,1.491,0,1,1,181.438,6.8a1.485,1.485,0,0,1,1.492,1.492" transform="translate(-149.603 -1.273)" fill="#fff"/>
      <path id="Path_15" data-name="Path 15" d="M187.5,8.142c-.286.316-.768.783-1.115.783a.694.694,0,0,1-.724-.707c0-.333.227-.573.649-.964a11.893,11.893,0,0,0,2.064-2.547c.527-.859.587-.95.934-.95a.624.624,0,0,1,.677.679c0,.271-.09.663-1.054,1.959v6.449c0,.572,0,1.2-.754,1.2-.678,0-.678-.557-.678-1.2Zm2.26-7.307c0,.677-1.4,2.169-2.049,2.787-.738.708-.9.753-1.145.753a.8.8,0,0,1-.8-.768c0-.316.2-.5.828-1.039a11.744,11.744,0,0,0,1.763-2.02c.18-.226.332-.437.618-.437a.737.737,0,0,1,.783.724m1.779,3.375c-.015,1.266-.031,5.154-.136,6.012-.166,1.431-.618,2.954-1.311,2.954a.665.665,0,0,1-.693-.572,10.735,10.735,0,0,1,.406-1.236c.151-.5.347-1.1.347-5.048,0-.5-.031-2.938-.031-3.5,0-1.37.015-2.034,1.628-2.034a35.9,35.9,0,0,0,4.958-.331c.331-.045,1.943-.332,2.034-.332a.681.681,0,0,1,.737.678c0,.618-.241.663-3,1V2.883h2.215c.572,0,1.19,0,1.19.663s-.6.663-1.19.663h-2.215v.829h1.777a1.122,1.122,0,0,1,1.176,1.311v6a1.2,1.2,0,0,1-1.176,1.311H193.33c-.964,0-1.175-.724-1.175-1.311V6.274a1.114,1.114,0,0,1,1.189-1.236h1.7V4.209Zm0-1.326h3.511v-.95c-.8.061-2.17.12-2.832.12-.618,0-.678.2-.678.648Zm6.539,4.459v-.6c0-.287-.2-.392-.437-.392h-3.722c-.256,0-.437.12-.437.392v.6Zm-4.6,2.4h4.6V8.684h-4.6Zm0,1.266v.95a.385.385,0,0,0,.437.392h3.722c.241,0,.437-.106.437-.392V11Z" transform="translate(-150.672 -0.021)" fill="#fff"/>
      <path id="Path_16" data-name="Path 16" d="M207.42,5.332c.618,0,1.266,0,1.266.693s-.648.693-1.266.693V10.3a2.113,2.113,0,0,1,.738-.226.671.671,0,0,1,.633.738c0,.376-.15.528-1.024.844a14.652,14.652,0,0,1-2.486.678.7.7,0,0,1-.708-.724.6.6,0,0,1,.422-.632c.166-.061.919-.212,1.07-.257V6.718c-.768,0-1.372,0-1.372-.693s.6-.693,1.372-.693V2.182c-.844,0-1.432,0-1.432-.677s.678-.663,1.19-.663h1.672c.513,0,1.191,0,1.191.677s-.663.663-1.266.663Zm10.141,3.933a1.1,1.1,0,0,1-.211.633.686.686,0,0,1,.767.589c0,.422-.783,1.024-1.325,1.431.165.076.979.422,1.176.5a.711.711,0,0,1-.211,1.371,7.5,7.5,0,0,1-4.128-2.742v1.838c0,.573,0,1.191-.678,1.191s-.678-.618-.678-1.191V10.967c-.814.92-2.878,2.487-3.752,2.487a.575.575,0,0,1-.572-.633c0-.392.211-.512.964-.934a9.472,9.472,0,0,0,2.3-1.748h-1.024a.816.816,0,0,1-.874-.874V7.518a.833.833,0,0,1,.874-.889h6.51a.823.823,0,0,1,.859.889ZM209.906,6.04c-.5,0-1.191,0-1.191-.633s.694-.618,1.191-.618h7.353c.5,0,1.19,0,1.19.633s-.693.618-1.19.618ZM216.943.555a.8.8,0,0,1,.92.844V3.418a.809.809,0,0,1-.92.86h-6.706a.812.812,0,0,1-.919-.86V1.4a.8.8,0,0,1,.919-.844Zm-5.2,1.2h-.694c-.392,0-.392.181-.392.422v.453c0,.241,0,.422.392.422h.694Zm-.618,6.028c-.361,0-.407.12-.407.451v.393c0,.3.076.331.543.331h4.58c.377,0,.408-.2.408-.437V8.166c0-.242-.061-.377-.377-.377Zm1.884-4.732h1.115V1.76H213.01Zm1.672,7.082a6.1,6.1,0,0,0,.859.993,11.143,11.143,0,0,0,1.34-1.009.647.647,0,0,1-.18.015Zm.739-7.082h.753c.391,0,.391-.181.391-.422V2.182c0-.241,0-.422-.391-.422h-.753Z" transform="translate(-154.208 -0.105)" fill="#fff"/>
      <path id="Path_17" data-name="Path 17" d="M235.5,5.76c.482,0,1.19,0,1.19.618s-.724.6-1.19.6h-2.2a7.172,7.172,0,0,0,2.562,1.28c.873.226,1.085.286,1.085.844a.777.777,0,0,1-.754.769,1.116,1.116,0,0,1-.285-.046V12.39c0,.814-.257,1.432-1.266,1.432h-3.014a1.139,1.139,0,0,1-1.266-1.341V9.542a1.024,1.024,0,0,1,1.115-1.04h1.416a6.881,6.881,0,0,1-1.567-1.521h-1.9A9.312,9.312,0,0,1,227.635,8.5h.542c1.011,0,1.282.618,1.282,1.04v2.938a1.149,1.149,0,0,1-1.176,1.341h-2.924c-.391,0-1.311,0-1.311-1.115V9.889c-.331.031-1.01,0-1.01-.707,0-.528.407-.648.9-.768a9.467,9.467,0,0,0,3.33-1.432h-2.818c-.483,0-1.176,0-1.176-.618s.71-.6,1.176-.6h4.114a4.811,4.811,0,0,0,.482-.693.712.712,0,0,1,.663-.453c.075,0,.754.091.754.738a.721.721,0,0,1-.12.407ZM228.238.592a1.086,1.086,0,0,1,1.25,1.146V3.726a1.161,1.161,0,0,1-1.311,1.221h-2.922c-1.221,0-1.3-.738-1.3-1.16v-2.2c0-1,1-1,1.3-1Zm-2.4,1.356c-.363,0-.483.03-.483.392V3.2c0,.451.2.451.483.451h1.808c.437,0,.437-.09.437-.467V2.34c0-.392-.256-.392-.422-.392Zm.286,7.866c-.437,0-.633.015-.633.572v1.688c0,.362.106.407.557.407h1.462c.2,0,.542,0,.542-.407V10.221c0-.333-.12-.407-.437-.407ZM234.717.623c1.311,0,1.341.933,1.341.948v2.08c0,.528-.03,1.3-1.1,1.3h-3.074c-.918,0-1.415-.181-1.415-1.221V1.738A1.083,1.083,0,0,1,231.734.623Zm-2.35,9.191c-.512,0-.557.181-.557.618v1.582c0,.467.211.467.557.467H233.9c.467,0,.557-.18.557-.557v-1.6c0-.361-.046-.511-.467-.511Zm0-7.866c-.346,0-.483.076-.483.483v.783c0,.437.137.437.573.437h1.763c.407,0,.422-.2.422-.451V2.28c0-.332-.272-.332-.453-.332Z" transform="translate(-157.661 -0.111)" fill="#fff"/>
      <path id="Path_18" data-name="Path 18" d="M244.535,3.464c-.439,0-.755,0-.755.618v8.679c0,.559,0,1.207-.738,1.207s-.738-.679-.738-1.207V3.45a1.339,1.339,0,0,1,1.386-1.4h4.143V1.221c0-.543,0-1.22.785-1.22s.8.616.8,1.22v.828h4.3a1.327,1.327,0,0,1,1.371,1.356v8.121c0,1.431-.2,2.306-2.908,2.306-1.131,0-2.319-.015-2.319-.814,0-.753.526-.859.707-.859.12,0,.633.09.738.106a11.528,11.528,0,0,0,1.417.09c.859,0,.872-.287.872-1.025V4.143c0-.679-.255-.679-.828-.679h-3.269c.407,2.546,2.32,4.219,3.554,5.229a.867.867,0,0,1,.422.724.834.834,0,0,1-.752.783c-.483,0-1.01-.483-2.111-1.6a10.374,10.374,0,0,1-1.9-2.743c-1.612,3.39-3.675,4.31-3.993,4.31a.8.8,0,0,1-.8-.783c0-.377.255-.559.648-.845a7.423,7.423,0,0,0,3.224-5.078Z" transform="translate(-161.264 -0.001)" fill="#fff"/>
      <path id="Path_19" data-name="Path 19" d="M264.068,5.794a22.1,22.1,0,0,0,1.417,1.839c.708.828.708.844.708,1.13a.775.775,0,0,1-.769.783c-.437,0-.92-.677-1.356-1.28v4.581c0,.678,0,1.19-.693,1.19-.677,0-.677-.512-.677-1.19V8.341a12.226,12.226,0,0,1-1.462,1.869c-.272.285-.422.391-.724.391a.694.694,0,0,1-.724-.724c0-.3.136-.452.407-.768a12.945,12.945,0,0,0,2.32-3.541h-1.191c-.587,0-1.2,0-1.2-.753,0-.768.618-.768,1.2-.768H262.7V2.509a14.289,14.289,0,0,1-1.658.211.71.71,0,0,1-.559-.2.845.845,0,0,1-.256-.587c0-.528.407-.724.8-.783a17.637,17.637,0,0,0,3.089-.618,2.875,2.875,0,0,1,.9-.226.719.719,0,0,1,.752.783c0,.618-.436.8-1.7,1.1V4.047h.859c.589,0,1.206,0,1.206.768,0,.753-.618.753-1.206.753h-.859Zm8.528,4.1V12.71c0,.589,0,1.206-.768,1.206-.753,0-.753-.618-.753-1.206V10.194l-3.662.724a2.614,2.614,0,0,1-.648.09.7.7,0,0,1-.693-.723c0-.589.467-.678,1.04-.8l3.963-.814V1.335c0-.573,0-1.206.768-1.206.753,0,.753.633.753,1.206V8.371a4.224,4.224,0,0,1,.844-.137c.618,0,.679.649.679.769,0,.589-.437.679-1.055.8Zm-3-2.245c-.3,0-.376-.059-1.658-1.175-.18-.167-1.085-.859-1.236-1.055a.759.759,0,0,1-.15-.467.739.739,0,0,1,.753-.752c.316,0,.407.075,1.266.752,1.04.814,1.823,1.462,1.823,1.884a.794.794,0,0,1-.8.814m.211-3.888c-.241,0-.332-.059-1.04-.647-.241-.2-1.3-1.025-1.506-1.19a.74.74,0,0,1-.361-.633.693.693,0,0,1,.692-.708c.241,0,.346,0,1.794,1.175.874.693,1.115.95,1.115,1.311a.689.689,0,0,1-.693.693" transform="translate(-164.533 -0.025)" fill="#fff"/>
    </g>
    <g id="Group_76" data-name="Group 76" transform="translate(404 5685.037)">
      <path id="Path_105" data-name="Path 105" d="M161.473,47.075a1.553,1.553,0,0,1,1.179,1.607,1.754,1.754,0,0,1-.517,1.237,1.726,1.726,0,0,1-1.205.486,2.647,2.647,0,0,1-.632-.085q-1.034-.344-2.153-.774a4.058,4.058,0,0,1-.545-.172,3.465,3.465,0,0,0-.545-.2,4.085,4.085,0,0,1-.546-.172,2.114,2.114,0,0,1-.545-.2,3.235,3.235,0,0,1-.546-.172,3.317,3.317,0,0,1-.545-.171q-.517-.171-1.119-.346-1.121-.285-2.24-.658-2.327-.69-5.082-1.379c-.86-.173-1.723-.372-2.583-.6-.863-.175-1.722-.365-2.583-.575a1.629,1.629,0,0,1-1.319-1.694,1.806,1.806,0,0,1,.486-1.237,1.665,1.665,0,0,1,1.205-.515,1.352,1.352,0,0,1,.317.029h.059a19.274,19.274,0,0,1,2.726.63,4.454,4.454,0,0,1,.716.174l.691.172c.342.058.793.164,1.349.315a4.094,4.094,0,0,1,.717.175c.23.056.46.113.689.172q.716.169,1.377.342a1.6,1.6,0,0,1,.4.117,4.23,4.23,0,0,1,.634.171,149.73,149.73,0,0,0,1.261.344,4.176,4.176,0,0,1,.631.172,1.714,1.714,0,0,1,.374.116q1.12.343,2.526.831,1.208.347,2.5.8c.23.078.479.163.747.259.345.113.7.249,1.062.4a7.646,7.646,0,0,1,1.061.4m-.085-8.095a1.538,1.538,0,0,1-1.693,1.751,1.856,1.856,0,0,1-.345-.03c-.115-.02-.21-.037-.287-.056q-3.876-1.462-8.039-2.671-3.962-1.12-8.008-1.98h-.056a1.544,1.544,0,0,1-1.381-1.694,1.747,1.747,0,0,1,.518-1.233,1.687,1.687,0,0,1,1.235-.518h.085a1.751,1.751,0,0,0,.259.057q.95.173,2.037.431c.232.058.479.115.749.171.23.058.449.115.66.172a3.014,3.014,0,0,1,.659.144q.688.173,1.406.346c.517.113,1.025.239,1.523.374a6.781,6.781,0,0,1,.773.229,1.229,1.229,0,0,1,.373.113,1.409,1.409,0,0,1,.375.087c.477.134.936.279,1.377.431a5.036,5.036,0,0,1,.69.229.984.984,0,0,1,.346.116,1.006,1.006,0,0,1,.316.087c1.034.286,2.026.613,2.983.975a.23.23,0,0,1,.086.029c.747.287,1.129.431,1.148.431.363.115.738.249,1.12.4a1.675,1.675,0,0,1,1.091,1.609m1.549-8.7a1.647,1.647,0,0,1-.515,1.205,1.75,1.75,0,0,1-1.235.488,1.458,1.458,0,0,1-.546-.085c-.192-.059-.526-.166-1-.317-.193-.056-.528-.172-1.006-.344l-1-.314q-.287-.088-1.006-.345c-.189-.056-.525-.161-1-.318-.172-.055-.335-.1-.488-.143-.17-.057-.344-.114-.516-.17a1.85,1.85,0,0,1-.487-.144,1.721,1.721,0,0,1-.519-.146c-.171-.056-.335-.1-.486-.143l-.518-.171q-1.982-.514-4.333-1.118c-.691-.174-1.406-.346-2.155-.52q-1.034-.2-2.151-.486a1.543,1.543,0,0,1-1.38-1.7,1.789,1.789,0,0,1,.49-1.234,1.712,1.712,0,0,1,1.264-.517,1.14,1.14,0,0,1,.372.058q.8.171,1.637.343a7.582,7.582,0,0,0,.8.2,1.011,1.011,0,0,1,.4.115,1.525,1.525,0,0,1,.4.088q.775.169,1.607.371a1.638,1.638,0,0,1,.405.115c.169.058.236.076.2.058a.541.541,0,0,1,.2.056c.247.057.5.126.774.2a4.111,4.111,0,0,1,.716.172,4.053,4.053,0,0,1,.718.171c.172.059.412.126.719.2a1.173,1.173,0,0,1,.373.113,2.381,2.381,0,0,1,.346.086q1.4.429,2.84.86c.422.134.853.28,1.292.432.4.134.823.278,1.264.431a17.548,17.548,0,0,1,2.356.8,1.6,1.6,0,0,1,1.173,1.636" transform="translate(-139.945 -23.294)" fill="#fff"/>
      <path id="Path_106" data-name="Path 106" d="M201.212,35.121a20.079,20.079,0,0,1-.2,2.871q-.085.634-.259,1.437c-.115.476-.257.966-.431,1.463a17.61,17.61,0,0,1-3.013,5.426,12.618,12.618,0,0,1-3.962,2.986,17.375,17.375,0,0,1-2.528.976,30.032,30.032,0,0,1-2.928.717c-.365.056-.661.106-.889.145-.365.056-.662.105-.892.144l-1.81.173a1.7,1.7,0,0,1-1.808-1.064,1.849,1.849,0,0,1,.116-1.55,1.81,1.81,0,0,1,1.322-.833,22.4,22.4,0,0,0,3.387-.46,2.425,2.425,0,0,0,.661-.114c.134-.018.248-.039.343-.057a.967.967,0,0,0,.316-.088,9.722,9.722,0,0,0,1.292-.371c.52-.171.959-.325,1.323-.46a5.593,5.593,0,0,0,1.262-.631,8.33,8.33,0,0,0,1.9-1.494,9.916,9.916,0,0,0,1.664-2.382,17.718,17.718,0,0,0,.89-2.01,12.471,12.471,0,0,0,.6-2.381c.076-.632.126-1.445.143-2.442V31.934a2.078,2.078,0,0,0-.4-1.465,2.26,2.26,0,0,0-1.463-.37h-12.26a2.318,2.318,0,0,0-1.494.371,1.864,1.864,0,0,0-.43,1.465v5.6a1.747,1.747,0,0,1-.517,1.233,1.676,1.676,0,0,1-1.235.517,1.649,1.649,0,0,1-1.205-.517,1.679,1.679,0,0,1-.517-1.233V31.421q0-4.825,4.881-4.826H196.3q4.911,0,4.909,4.824Z" transform="translate(-152.217 -24.203)" fill="#fff"/>
      <path id="Path_107" data-name="Path 107" d="M217.865,28.531a2.656,2.656,0,0,1,2.124-.89h8.039V25.258a1.937,1.937,0,0,1,.462-1.349,1.68,1.68,0,0,1,1.176-.488,1.758,1.758,0,0,1,1.176.46,1.925,1.925,0,0,1,.487,1.377v2.383H239a2.741,2.741,0,0,1,2.064.862,3,3,0,0,1,.948,2.124V47.018a3.523,3.523,0,0,1-3.417,3.992,17.122,17.122,0,0,1-3.932-.257,2.077,2.077,0,0,1-1.32-.835,2.187,2.187,0,0,1-.2-1.349,1.774,1.774,0,0,1,.807-1.091,1.885,1.885,0,0,1,1.491-.2,10.307,10.307,0,0,0,1.81.432,1.494,1.494,0,0,0,.689-.115,2.043,2.043,0,0,0,.774-1.837V32.034a1.259,1.259,0,0,0-.344-.775,1.155,1.155,0,0,0-.747-.317H231.3q-.087,1.321-.2,2.384a3.084,3.084,0,0,0-.113.575.31.31,0,0,1,.087.058q.8.891,2.812,3.213,1.954,2.243,3.33,4.165a1.863,1.863,0,0,1,.345,1.349,1.808,1.808,0,0,1-.66,1.061,1.73,1.73,0,0,1-1.206.288,1.812,1.812,0,0,1-1.176-.833q-1.293-1.836-3.129-4.018c-.632-.689-1.129-1.265-1.493-1.722-.114.267-.238.545-.374.831a16.828,16.828,0,0,1-1.147,2.038,14.336,14.336,0,0,1-1.408,1.694,13.671,13.671,0,0,1-1.751,1.55,9.934,9.934,0,0,1-1.292.806,1.808,1.808,0,0,1-1.406.2,1.541,1.541,0,0,1-1.006-.774,1.972,1.972,0,0,1-.171-1.233,2.057,2.057,0,0,1,.947-1.091,5.467,5.467,0,0,0,1.034-.663,10.933,10.933,0,0,0,1.149-.975,16.059,16.059,0,0,0,1.32-1.58,15.445,15.445,0,0,0,1.032-1.838,13.449,13.449,0,0,0,.661-1.893,10.176,10.176,0,0,0,.429-2.125A12.306,12.306,0,0,0,228,30.942h-6.432a1.156,1.156,0,0,0-.889.375,1.244,1.244,0,0,0-.371.86l0,17.2a2.012,2.012,0,0,1-.489,1.318,1.7,1.7,0,0,1-1.176.489,1.775,1.775,0,0,1-1.178-.46A2.015,2.015,0,0,1,217,49.376V30.6a2.885,2.885,0,0,1,.862-2.067" transform="translate(-164.673 -23.184)" fill="#fff"/>
      <path id="Path_108" data-name="Path 108" d="M265.736,50.667a1.71,1.71,0,0,1-1.178.488,1.762,1.762,0,0,1-1.176-.46,2.017,2.017,0,0,1-.46-1.349l0-7.893q-1.123,2.008-2.183,3.558a1.819,1.819,0,0,1-1.179.774,1.611,1.611,0,0,1-1.235-.314,1.723,1.723,0,0,1-.661-1.062,1.882,1.882,0,0,1,.431-1.379,34.351,34.351,0,0,0,2.871-4.191,31.548,31.548,0,0,0,1.41-3.1h-2.987a1.574,1.574,0,0,1-1.207-.458,1.7,1.7,0,0,1-.46-1.207,1.6,1.6,0,0,1,.46-1.177,1.583,1.583,0,0,1,1.207-.46h3.533V27.959q-1.353.143-2.729.259a1.989,1.989,0,0,1-1.293-.375,1.753,1.753,0,0,1-.574-1.148,1.482,1.482,0,0,1,.374-1.178A1.838,1.838,0,0,1,259.995,25a45.461,45.461,0,0,0,7.753-1.262,1.874,1.874,0,0,1,1.379.056,1.515,1.515,0,0,1,.745.976,1.689,1.689,0,0,1-.115,1.233,1.879,1.879,0,0,1-1.092.805c-.765.228-1.578.439-2.439.629v5h2.813a1.587,1.587,0,0,1,1.178.432,1.7,1.7,0,0,1,.46,1.2,1.6,1.6,0,0,1-.46,1.178,1.55,1.55,0,0,1-1.178.487h-2.813v2.1a1.728,1.728,0,0,1,1.178-.4,1.823,1.823,0,0,1,1.178.659,15.747,15.747,0,0,1,1.751,2.527,1.811,1.811,0,0,1,.2,1.349,1.67,1.67,0,0,1-.8.977,1.5,1.5,0,0,1-1.235.144,2.309,2.309,0,0,1-1.034-.977,10.605,10.605,0,0,0-1.233-1.808v9.044a2.031,2.031,0,0,1-.489,1.321M279.115,25a1.626,1.626,0,0,1,.431-1.205,1.691,1.691,0,0,1,1.207-.46,1.613,1.613,0,0,1,1.147.431A1.574,1.574,0,0,1,282.416,25V40.074l.89-.171a1.864,1.864,0,0,1,1.406.228,1.583,1.583,0,0,1,.632,1.09,1.552,1.552,0,0,1-.2,1.207,1.752,1.752,0,0,1-1.233.718l-1.494.287v5.914a2.037,2.037,0,0,1-.486,1.321,1.715,1.715,0,0,1-1.178.49,1.766,1.766,0,0,1-1.176-.462,2.009,2.009,0,0,1-.462-1.349V44.035l-6.687,1.177a2.134,2.134,0,0,1-1.35-.172,1.642,1.642,0,0,1-.718-1.062,1.819,1.819,0,0,1,.23-1.292,1.759,1.759,0,0,1,1.235-.718l7.29-1.291ZM271.19,35.137a1.5,1.5,0,0,1,.145-1.234,1.727,1.727,0,0,1,.946-.778,2.219,2.219,0,0,1,1.408.259q.46.285,1.609,1.063a20.113,20.113,0,0,1,1.92,1.435,1.757,1.757,0,0,1,.663,1.207,1.649,1.649,0,0,1-.373,1.2,1.9,1.9,0,0,1-1.12.573,1.855,1.855,0,0,1-1.319-.515,20.629,20.629,0,0,0-1.667-1.291c-.689-.441-1.129-.726-1.319-.86a1.827,1.827,0,0,1-.892-1.062m.663-8.1a1.513,1.513,0,0,1,.2-1.233,1.707,1.707,0,0,1,.974-.747,1.851,1.851,0,0,1,1.408.316c.287.211.8.585,1.549,1.119.71.534,1.322,1.034,1.839,1.493a1.834,1.834,0,0,1,.632,1.263,1.67,1.67,0,0,1-.433,1.178,1.639,1.639,0,0,1-1.118.515,2.139,2.139,0,0,1-1.322-.572,15.436,15.436,0,0,0-1.607-1.319c-.652-.479-1.072-.786-1.264-.921a1.938,1.938,0,0,1-.859-1.091" transform="translate(-177.718 -23.157)" fill="#fff"/>
      <path id="Path_109" data-name="Path 109" d="M341.839,38.288a1.817,1.817,0,0,1-.49-1.176v-12.4a1.681,1.681,0,0,1,3.361,0v12.4c-.1,1.11-.661,1.665-1.7,1.665a1.844,1.844,0,0,1-1.176-.489m14.778-1.379a5.743,5.743,0,0,1-.2,1.436,10.463,10.463,0,0,1-.458,1.319,5.517,5.517,0,0,1-.6,1.237,8.233,8.233,0,0,1-1.748,2.065,6.117,6.117,0,0,1-1.068.774,6.364,6.364,0,0,1-1.116.691,13.915,13.915,0,0,1-2.785,1.179,9.992,9.992,0,0,1-1.408.4c-.536.116-1.012.2-1.43.258a1.551,1.551,0,0,0-1.381,1.665,1.864,1.864,0,0,0,.488,1.178,1.809,1.809,0,0,0,1.178.488h.314c.382-.075.687-.143.917-.2.46-.115.756-.184.889-.2.594-.155,1.178-.325,1.752-.517a29.051,29.051,0,0,0,2.988-1.264,20.11,20.11,0,0,0,2.638-1.752,13.158,13.158,0,0,0,2.96-3.643c.113-.232.285-.585.515-1.063a7.85,7.85,0,0,0,.4-1.206,8.253,8.253,0,0,0,.458-2.641v-12.4a1.623,1.623,0,0,0-.488-1.177,1.559,1.559,0,0,0-1.147-.46,1.462,1.462,0,0,0-1.669,1.637v12.2Z" transform="translate(-204.575 -23.072)" fill="#fff"/>
      <path id="Path_110" data-name="Path 110" d="M374.177,49.439a1.659,1.659,0,0,1-1.209-.517,1.8,1.8,0,0,1-.486-1.235,1.908,1.908,0,0,1,.486-1.233,1.749,1.749,0,0,1,1.235-.518h22.855a1.687,1.687,0,0,1,1.233.517,1.753,1.753,0,0,1,.515,1.233,1.689,1.689,0,0,1-.515,1.235,1.748,1.748,0,0,1-1.233.517Zm.285-18.288a1.737,1.737,0,0,1-.515-1.233,1.761,1.761,0,0,1,1.721-1.722h19.865a1.72,1.72,0,0,1,1.755,1.722,1.723,1.723,0,0,1-1.755,1.751H375.669a1.652,1.652,0,0,1-1.207-.518" transform="translate(-214.566 -24.717)" fill="#fff"/>
      <path id="Path_111" data-name="Path 111" d="M413.951,33.105a1.73,1.73,0,0,1-.058-1.722,1.663,1.663,0,0,1,1.319-.8,1.794,1.794,0,0,1,1.381.575c.55.708,1.04,1.387,1.461,2.039a32.829,32.829,0,0,1,3.216,5.941,2.029,2.029,0,0,1,.143,1.378,1.558,1.558,0,0,1-1.091,1.092,1.581,1.581,0,0,1-1.463-.287,4,4,0,0,1-.577-.747,5.968,5.968,0,0,1-.373-.918q-.829-1.665-1.635-3.044-1.031-1.694-1.923-2.9c-.135-.211-.23-.354-.285-.431a.4.4,0,0,1-.115-.172m14.037,9.359a12.651,12.651,0,0,1-2.327,2.211,4.727,4.727,0,0,1-.628.488,3.729,3.729,0,0,1-.663.432,11.9,11.9,0,0,1-1.405.775,24.546,24.546,0,0,1-6,2.124c-.022.04-.094.068-.229.086l-.058.03a1.655,1.655,0,0,0-.89,2.151,1.821,1.821,0,0,0,2.181.948,35.068,35.068,0,0,0,3.847-1.206,23.853,23.853,0,0,0,3.647-1.75,20.617,20.617,0,0,0,3.244-2.325,16.383,16.383,0,0,0,2.727-3.044,19.957,19.957,0,0,0,2.725-5.512,30.537,30.537,0,0,0,1.322-6.06,3.8,3.8,0,0,0,.144-.832,2.466,2.466,0,0,0-.026-.86,1.594,1.594,0,0,0-2.239-1.233,1.876,1.876,0,0,0-.749.687,1.972,1.972,0,0,0-.283.832l-.088.687c-.1.9-.241,1.81-.431,2.731q-.319,1.464-.688,2.67a18.118,18.118,0,0,1-2.386,4.909,1.951,1.951,0,0,1-.259.4c-.1.153-.141.22-.141.2l-.146.2a.735.735,0,0,0-.2.257m-7.436-13.147a1.676,1.676,0,0,1,2.181-.431,1.96,1.96,0,0,1,.429.371,14.68,14.68,0,0,1,1.094,1.492c.135.194.259.376.376.548a23.739,23.739,0,0,1,1.748,2.872,31.431,31.431,0,0,1,1.464,3.04,2.809,2.809,0,0,1,.145,1.378,1.566,1.566,0,0,1-1.091,1.064,1.877,1.877,0,0,1-1.521-.258,2.843,2.843,0,0,1-.745-1.207,4.816,4.816,0,0,1-.2-.459,25.624,25.624,0,0,0-1.609-3.072q-.888-1.491-1.924-2.9c-.1-.076-.142-.143-.142-.2a.523.523,0,0,1-.175-.2.286.286,0,0,1-.113-.143,1.739,1.739,0,0,1,.084-1.894" transform="translate(-227.79 -24.867)" fill="#fff"/>
      <path id="Path_112" data-name="Path 112" d="M323.056,26.76a2.359,2.359,0,0,0-1.829-.846H308.879c-2.344,0-2.765.864-3.123,2.127a12.9,12.9,0,0,1-4.541,6.947,1.8,1.8,0,0,0-.648,1.694,1.576,1.576,0,0,0,1.1,1.364,1.413,1.413,0,0,0,.53.111,1.532,1.532,0,0,0,1.034-.328,16.209,16.209,0,0,0,5.387-7.393,1.289,1.289,0,0,1,1.247-.94l10.062,0c.208.053.433.21.351.662-.057.312-.1.531-.117.657-.033.173-.053.274-.062.333a1.058,1.058,0,0,0-.081.3c-.1.31-.211.728-.345,1.248-.884,3.15-2.382,7.264-4.789,9.423-4.6,4.128-11.12,5.024-11.127,5.027a1.72,1.72,0,0,0,.537,3.355c.778-.062,9.79-2.1,14.144-7.131s5.109-10.989,5.317-14.266V28.83a2.769,2.769,0,0,0-.7-2.07" transform="translate(-191.48 -23.984)" fill="#fff"/>
      <path id="Path_113" data-name="Path 113" d="M321.225,25.913H308.879c-2.345,0-2.765.864-3.123,2.127a12.9,12.9,0,0,1-4.542,6.947,1.8,1.8,0,0,0-.647,1.694,1.577,1.577,0,0,0,1.1,1.365,1.416,1.416,0,0,0,.53.111,1.534,1.534,0,0,0,1.034-.328,16.207,16.207,0,0,0,5.388-7.393,1.287,1.287,0,0,1,1.246-.941l10.062,0c.207.053.433.21.351.661-.058.313-.1.532-.117.657-.033.174-.052.274-.062.334a1.057,1.057,0,0,0-.081.3c-.1.31-.21.728-.345,1.249-.884,3.149-2.382,7.264-4.788,9.422-4.6,4.128-11.121,5.024-11.127,5.027a1.72,1.72,0,0,0,.537,3.356c1.169-.083,9.93-1.982,14.144-7.132,4.391-5.37,5.383-12.562,5.582-14.451a2.733,2.733,0,0,0-2.793-3.015" transform="translate(-191.48 -23.984)" fill="#fff"/>
      <path id="Path_114" data-name="Path 114" d="M469.745,25.912H457.4c-2.347,0-2.769.863-3.125,2.128a12.912,12.912,0,0,1-4.539,6.946,1.8,1.8,0,0,0-.652,1.7,1.579,1.579,0,0,0,1.1,1.364,1.406,1.406,0,0,0,.535.111,1.523,1.523,0,0,0,1.032-.327,16.229,16.229,0,0,0,5.388-7.393,1.281,1.281,0,0,1,1.246-.94l10.064,0c.2.054.429.211.347.663-.058.312-.1.531-.115.657-.033.174-.056.274-.062.333a.991.991,0,0,0-.082.3c-.1.312-.21.728-.347,1.249-.877,3.15-2.382,7.265-4.789,9.427-4.6,4.125-11.122,5.021-11.124,5.023a1.72,1.72,0,0,0,.534,3.356c1.171-.083,9.93-1.982,14.144-7.131,4.391-5.371,5.388-12.562,5.587-14.452a2.739,2.739,0,0,0-2.8-3.015" transform="translate(-239.14 -23.984)" fill="#fff"/>
    </g>
  </g>
</svg>
