<svg xmlns="http://www.w3.org/2000/svg" width="258.417" height="52" viewBox="0 0 258.417 52">
  <g id="Group_362" data-name="Group 362" transform="translate(-14 -14)">
    <g id="Group_243" data-name="Group 243" transform="translate(14 14)">
      <rect id="Rectangle_12" data-name="Rectangle 12" width="14.831" height="14.834" fill="#8cb80c"/>
      <rect id="Rectangle_13" data-name="Rectangle 13" width="14.833" height="14.834" transform="translate(18.569)" fill="#8cb80c"/>
      <rect id="Rectangle_14" data-name="Rectangle 14" width="14.831" height="14.833" transform="translate(37.138)" fill="#8cb80c"/>
      <rect id="Rectangle_15" data-name="Rectangle 15" width="14.831" height="14.831" transform="translate(0 18.585)" fill="#8cb80c"/>
      <rect id="Rectangle_16" data-name="Rectangle 16" width="14.831" height="14.831" transform="translate(37.138 18.584)" fill="#8cb80c"/>
      <rect id="Rectangle_17" data-name="Rectangle 17" width="14.831" height="14.832" transform="translate(0 37.168)" fill="#8cb80c"/>
      <rect id="Rectangle_18" data-name="Rectangle 18" width="14.833" height="14.831" transform="translate(18.569 37.168)" fill="#8cb80c"/>
      <rect id="Rectangle_19" data-name="Rectangle 19" width="14.831" height="14.831" transform="translate(37.138 37.168)" fill="#8cb80c"/>
      <path id="Path_104" data-name="Path 104" d="M58.09,42.53l-.826.319.826-.321c-.744-1.675-2.633-2.071-4.869-2.1-.222,0-.458.014-.693.025,1.045-1.24,1.975-2.446,2.751-3.575,1.7-2.514,2.749-4.577,2.784-6.307a2.4,2.4,0,0,0-.63-1.725,2.453,2.453,0,0,0-1.8-.678c-1.722.033-3.813,1.037-6.35,2.671A61.744,61.744,0,0,0,34.05,45.716c-1.7,2.514-2.751,4.578-2.789,6.307a2.744,2.744,0,0,0,.191,1.021c0,.01,0,.019,0,.03a1.518,1.518,0,0,0,0,.155c.124,1.61,1.55,2.657,3.384,3.379a20.33,20.33,0,0,0,7.122,1.132c.438,0,.885-.01,1.337-.032A22.416,22.416,0,0,0,51.1,56.054c2-.91,3.5-2.1,3.561-3.843,0-.046,0-.076,0-.1l-.783.014.783-.036a3.39,3.39,0,0,0-1.686-2.545c.661-.416,1.276-.84,1.83-1.266,2.01-1.592,3.385-3.1,3.449-4.857a2.5,2.5,0,0,0-.163-.892M42.4,38.971a55.054,55.054,0,0,1,7.945-6.515c2.311-1.534,4.328-2.355,5.238-2.355h.052c.326,0,.4.077.417.092l.692-.676-.692.679c.012.012.077.079.081.373.034.846-.817,2.88-2.445,5.21a48.028,48.028,0,0,1-4,4.988,36.39,36.39,0,0,0-6.808,1.941,35.577,35.577,0,0,0-6.757,3.431A56.419,56.419,0,0,1,42.4,38.971m1.758,10.136a21.483,21.483,0,0,1,4.993.547c-.961.472-1.982.925-3.06,1.344A31.872,31.872,0,0,1,37.8,53.084c.708-.377,1.454-.82,2.247-1.33,1.138-.745,2.35-1.632,3.6-2.634.17,0,.345-.013.512-.013M33.7,52.49a.789.789,0,0,1-.392-.072c-.013-.014-.03-.027-.044-.04v0a5.552,5.552,0,0,1,2.382-1.715,18.079,18.079,0,0,1,4.368-1.222c-.348.245-.69.478-1.022.7C36.629,51.7,34.579,52.519,33.7,52.49m8.748-4.89a22.137,22.137,0,0,0-7.438,1.629c-.029.015-.057.03-.086.044a12.169,12.169,0,0,1,.954-.8,31.614,31.614,0,0,1,7.641-4.119,37.879,37.879,0,0,1,3.978-1.3c-.187.186-.371.373-.561.56C45.415,45.1,43.9,46.431,42.445,47.6M53.1,52.141h0c0,.033,0,.057,0,.07.059.586-.794,1.617-2.631,2.413a20.949,20.949,0,0,1-7.245,1.522c-.427.021-.849.028-1.263.028A18.861,18.861,0,0,1,35.4,55.149a7.507,7.507,0,0,1-.8-.36,12.768,12.768,0,0,0,1.776.135,30.413,30.413,0,0,0,10.346-2.278,38.911,38.911,0,0,0,4.71-2.193c1.125.567,1.661,1.228,1.663,1.688m.627-5.263A23.892,23.892,0,0,1,51.1,48.613a19.315,19.315,0,0,0-5.614-1.035c.924-.8,1.859-1.659,2.795-2.573.9-.875,1.743-1.752,2.543-2.622a17.994,17.994,0,0,1,2.4-.186c2.063-.03,3.165.584,3.218.968a.68.68,0,0,1,.046.258c.064.588-.872,2.046-2.76,3.455" transform="translate(-18.774 -16.955)" fill="#8fd0e1"/>
    </g>
    <g id="Group_246" data-name="Group 246" transform="translate(75.422 20)">
      <g id="Group_245" data-name="Group 245" transform="translate(1.535 0)">
        <path id="Path_12" data-name="Path 12" d="M144.2,2.443c-.308,0-.531,0-.531.436V9c0,.394,0,.851-.52.851s-.52-.479-.52-.851V2.432a.944.944,0,0,1,.977-.988h2.921V.861c0-.383,0-.86.553-.86s.563.434.563.86v.584h3.027a.935.935,0,0,1,.967.956V8.126c0,1.009-.138,1.625-2.051,1.625-.8,0-1.635-.01-1.635-.574,0-.531.371-.605.5-.605.085,0,.446.064.52.075a8.125,8.125,0,0,0,1,.064c.605,0,.616-.2.616-.723V2.921c0-.479-.181-.479-.584-.479h-2.305A6.216,6.216,0,0,0,150.2,6.129a.612.612,0,0,1,.3.51.588.588,0,0,1-.531.552c-.34,0-.712-.34-1.487-1.126a7.28,7.28,0,0,1-1.339-1.934C146,6.522,144.547,7.17,144.323,7.17a.563.563,0,0,1-.563-.552c0-.266.181-.394.457-.6a5.231,5.231,0,0,0,2.273-3.58Z" transform="translate(-142.624 -0.001)" fill="#5f5e5e"/>
        <path id="Path_13" data-name="Path 13" d="M163.126,4.123a15.745,15.745,0,0,0,1,1.3c.5.584.5.595.5.8a.546.546,0,0,1-.542.552c-.308,0-.648-.477-.956-.9v3.23c0,.478,0,.839-.488.839s-.478-.361-.478-.839V5.918a8.577,8.577,0,0,1-1.031,1.318c-.191.2-.3.276-.51.276A.489.489,0,0,1,160.11,7c0-.213.1-.319.287-.542a9.111,9.111,0,0,0,1.636-2.5h-.839c-.414,0-.85,0-.85-.531s.436-.542.85-.542h.967V1.807a10.043,10.043,0,0,1-1.169.148.5.5,0,0,1-.393-.138.6.6,0,0,1-.181-.414c0-.372.288-.51.563-.552a12.445,12.445,0,0,0,2.178-.436A2.025,2.025,0,0,1,163.8.257a.507.507,0,0,1,.531.552c0,.436-.308.563-1.2.776V2.891h.605c.414,0,.85,0,.85.542s-.436.531-.85.531h-.605Zm6.012,2.889V9c0,.415,0,.851-.542.851s-.531-.436-.531-.851V7.224l-2.581.51a1.839,1.839,0,0,1-.456.064.492.492,0,0,1-.489-.51c0-.415.33-.478.733-.563l2.793-.574V.98c0-.4,0-.851.542-.851s.531.446.531.851v4.96a2.966,2.966,0,0,1,.595-.1c.436,0,.478.457.478.542,0,.415-.308.479-.744.563Zm-2.114-1.582c-.212,0-.265-.042-1.168-.828-.127-.117-.765-.606-.871-.744a.532.532,0,0,1-.106-.33A.521.521,0,0,1,165.41,3c.223,0,.287.053.892.53.733.574,1.286,1.03,1.286,1.328a.559.559,0,0,1-.563.574m.149-2.741c-.17,0-.234-.042-.733-.456-.17-.138-.914-.723-1.062-.839a.522.522,0,0,1-.254-.446.489.489,0,0,1,.488-.5c.17,0,.245,0,1.264.828.616.489.786.669.786.924a.485.485,0,0,1-.489.489" transform="translate(-150.088 -0.056)" fill="#5f5e5e"/>
        <path id="Path_14" data-name="Path 14" d="M182.05,7.854A1.051,1.051,0,1,1,181,6.8a1.047,1.047,0,0,1,1.052,1.052" transform="translate(-158.556 -2.904)" fill="#5f5e5e"/>
        <path id="Path_15" data-name="Path 15" d="M186.956,5.772c-.2.223-.542.552-.786.552a.49.49,0,0,1-.51-.5c0-.234.16-.4.457-.68a8.384,8.384,0,0,0,1.455-1.8c.371-.605.414-.669.659-.669a.44.44,0,0,1,.477.479c0,.191-.064.467-.743,1.381V9.087c0,.4,0,.849-.531.849-.478,0-.478-.393-.478-.849ZM188.549.621c0,.477-.987,1.529-1.444,1.965-.52.5-.637.531-.807.531a.562.562,0,0,1-.563-.542c0-.223.138-.35.584-.732A8.28,8.28,0,0,0,187.562.419c.127-.159.234-.308.436-.308a.519.519,0,0,1,.552.51M189.8,3c-.011.892-.022,3.633-.1,4.238-.117,1.009-.436,2.082-.924,2.082a.469.469,0,0,1-.489-.4,7.569,7.569,0,0,1,.287-.871c.107-.351.245-.776.245-3.559,0-.351-.022-2.071-.022-2.465,0-.966.011-1.434,1.147-1.434a25.305,25.305,0,0,0,3.495-.233c.233-.032,1.37-.234,1.434-.234A.48.48,0,0,1,195.4.6c0,.436-.17.468-2.113.7v.765h1.561c.4,0,.839,0,.839.467s-.425.468-.839.468h-1.561v.585h1.253a.791.791,0,0,1,.829.924V8.736a.842.842,0,0,1-.829.924h-3.473c-.68,0-.828-.51-.828-.924V4.456a.785.785,0,0,1,.838-.871h1.2V3Zm0-.935h2.475V1.4c-.563.043-1.53.085-2,.085-.436,0-.478.138-.478.457Zm4.61,3.144V4.785c0-.2-.138-.276-.308-.276h-2.624c-.181,0-.308.085-.308.276v.424ZM191.173,6.9h3.24V6.155h-3.24Zm0,.892V8.46a.271.271,0,0,0,.308.276h2.624c.17,0,.308-.075.308-.276V7.79Z" transform="translate(-160.995 -0.048)" fill="#5f5e5e"/>
        <path id="Path_16" data-name="Path 16" d="M206.58,3.923c.436,0,.892,0,.892.488s-.457.489-.892.489V7.428a1.489,1.489,0,0,1,.52-.159.473.473,0,0,1,.446.52c0,.265-.106.372-.722.595a10.328,10.328,0,0,1-1.753.478.494.494,0,0,1-.5-.51.424.424,0,0,1,.3-.445c.117-.043.648-.15.754-.181V4.9c-.542,0-.967,0-.967-.489s.425-.488.967-.488V1.7c-.595,0-1.009,0-1.009-.477s.478-.467.839-.467h1.179c.362,0,.84,0,.84.477S207,1.7,206.58,1.7Zm7.149,2.772a.772.772,0,0,1-.148.446.484.484,0,0,1,.541.415c0,.3-.552.722-.934,1.009.116.053.69.3.829.351a.5.5,0,0,1-.149.966,5.286,5.286,0,0,1-2.91-1.933v1.3c0,.4,0,.84-.478.84S210,9.648,210,9.244V7.9a6.027,6.027,0,0,1-2.645,1.753.405.405,0,0,1-.4-.446c0-.276.148-.361.68-.659a6.678,6.678,0,0,0,1.625-1.232h-.722a.576.576,0,0,1-.616-.616V5.463a.587.587,0,0,1,.616-.627h4.589a.58.58,0,0,1,.605.627Zm-5.4-2.274c-.351,0-.84,0-.84-.446s.489-.436.84-.436h5.183c.351,0,.839,0,.839.446s-.488.436-.839.436Zm4.96-3.866a.566.566,0,0,1,.648.595V2.573a.57.57,0,0,1-.648.606h-4.727a.573.573,0,0,1-.648-.606V1.15a.567.567,0,0,1,.648-.595Zm-3.665.849h-.489c-.276,0-.276.128-.276.3v.319c0,.17,0,.3.276.3h.489Zm-.436,4.25c-.254,0-.287.085-.287.318v.277c0,.212.053.233.383.233h3.228c.266,0,.288-.138.288-.308V5.92c0-.171-.043-.266-.266-.266Zm1.328-3.336h.786V1.4h-.786ZM211.7,7.311a4.3,4.3,0,0,0,.606.7,7.854,7.854,0,0,0,.945-.711.456.456,0,0,1-.127.011Zm.521-4.993h.531c.276,0,.276-.128.276-.3V1.7c0-.17,0-.3-.276-.3h-.531Z" transform="translate(-169.067 -0.237)" fill="#5f5e5e"/>
        <path id="Path_17" data-name="Path 17" d="M231.824,4.235c.34,0,.839,0,.839.436s-.51.425-.839.425h-1.551a5.056,5.056,0,0,0,1.806.9c.616.159.765.2.765.595a.548.548,0,0,1-.532.542.787.787,0,0,1-.2-.033V8.909c0,.574-.181,1.009-.892,1.009h-2.125c-.892,0-.892-.659-.892-.946V6.9a.722.722,0,0,1,.786-.733h1A4.851,4.851,0,0,1,228.882,5.1h-1.338a6.564,6.564,0,0,1-1.264,1.072h.382c.712,0,.9.436.9.733V8.973a.81.81,0,0,1-.829.946h-2.061c-.276,0-.924,0-.924-.786V7.146c-.233.022-.712,0-.712-.5,0-.372.287-.457.638-.542A6.674,6.674,0,0,0,226.024,5.1h-1.986c-.34,0-.829,0-.829-.436s.5-.425.829-.425h2.9a3.391,3.391,0,0,0,.34-.488.5.5,0,0,1,.467-.319c.053,0,.531.064.531.52a.508.508,0,0,1-.085.287ZM226.7.592a.766.766,0,0,1,.881.808V2.8a.819.819,0,0,1-.924.861H224.6c-.861,0-.914-.52-.914-.818V1.294c0-.7.7-.7.914-.7Zm-1.689.956c-.256,0-.34.021-.34.276V2.43c0,.318.138.318.34.318h1.275c.308,0,.308-.064.308-.329V1.824c0-.276-.181-.276-.3-.276Zm.2,5.545c-.308,0-.446.01-.446.4v1.19c0,.255.075.287.393.287h1.031c.138,0,.382,0,.382-.287V7.38c0-.234-.085-.287-.308-.287ZM231.272.614c.924,0,.946.658.946.668V2.748c0,.372-.021.914-.776.914h-2.167c-.647,0-1-.128-1-.861V1.4a.763.763,0,0,1,.892-.786Zm-1.657,6.479c-.361,0-.393.128-.393.436V8.644c0,.329.148.329.393.329H230.7c.329,0,.393-.127.393-.393V7.454c0-.254-.032-.361-.33-.361Zm0-5.545c-.244,0-.34.053-.34.34V2.44c0,.308.1.308.4.308h1.243c.287,0,.3-.138.3-.318V1.782c0-.234-.191-.234-.319-.234Z" transform="translate(-176.95 -0.253)" fill="#5f5e5e"/>
        <path id="Path_18" data-name="Path 18" d="M243.877,2.443c-.309,0-.532,0-.532.436V9c0,.394,0,.851-.52.851s-.52-.479-.52-.851V2.432a.944.944,0,0,1,.977-.988H246.2V.861c0-.383,0-.86.553-.86s.562.434.562.86v.584h3.028a.935.935,0,0,1,.966.956V8.126c0,1.009-.138,1.625-2.05,1.625-.8,0-1.635-.01-1.635-.574,0-.531.371-.605.5-.605.085,0,.446.064.52.075a8.127,8.127,0,0,0,1,.064c.605,0,.615-.2.615-.723V2.921c0-.479-.18-.479-.583-.479h-2.3a6.218,6.218,0,0,0,2.506,3.686.611.611,0,0,1,.3.51.588.588,0,0,1-.53.552c-.34,0-.712-.34-1.488-1.126a7.314,7.314,0,0,1-1.338-1.934C245.681,6.522,244.227,7.17,244,7.17a.563.563,0,0,1-.562-.552c0-.266.18-.394.457-.6a5.233,5.233,0,0,0,2.273-3.58Z" transform="translate(-185.174 -0.001)" fill="#5f5e5e"/>
        <path id="Path_19" data-name="Path 19" d="M262.805,4.123a15.58,15.58,0,0,0,1,1.3c.5.584.5.595.5.8a.546.546,0,0,1-.542.552c-.308,0-.648-.477-.956-.9v3.23c0,.478,0,.839-.488.839s-.477-.361-.477-.839V5.918a8.617,8.617,0,0,1-1.03,1.318c-.191.2-.3.276-.51.276a.489.489,0,0,1-.51-.51c0-.213.1-.319.287-.542a9.124,9.124,0,0,0,1.636-2.5h-.84c-.414,0-.849,0-.849-.531s.436-.542.849-.542h.967V1.807a10.072,10.072,0,0,1-1.169.148.5.5,0,0,1-.394-.138A.6.6,0,0,1,260.1,1.4c0-.372.287-.51.563-.552a12.433,12.433,0,0,0,2.178-.436,2.027,2.027,0,0,1,.638-.159.507.507,0,0,1,.53.552c0,.436-.307.563-1.2.776V2.891h.605c.415,0,.851,0,.851.542s-.436.531-.851.531h-.605Zm6.012,2.889V9c0,.415,0,.851-.542.851s-.531-.436-.531-.851V7.224l-2.581.51a1.842,1.842,0,0,1-.457.064.492.492,0,0,1-.489-.51c0-.415.33-.478.733-.563l2.794-.574V.98c0-.4,0-.851.542-.851s.531.446.531.851v4.96a2.977,2.977,0,0,1,.595-.1c.436,0,.479.457.479.542,0,.415-.308.479-.744.563ZM266.7,5.429c-.212,0-.265-.042-1.169-.828-.127-.117-.765-.606-.871-.744a.535.535,0,0,1-.105-.33.521.521,0,0,1,.531-.53c.223,0,.287.053.892.53.733.574,1.285,1.03,1.285,1.328a.56.56,0,0,1-.563.574m.149-2.741c-.17,0-.234-.042-.733-.456-.17-.138-.914-.723-1.062-.839A.522.522,0,0,1,264.8.947a.488.488,0,0,1,.488-.5c.17,0,.244,0,1.264.828.616.489.786.669.786.924a.486.486,0,0,1-.489.489" transform="translate(-192.638 -0.056)" fill="#5f5e5e"/>
      </g>
      <g id="Group_244" data-name="Group 244" transform="translate(0 14.369)">
        <path id="Path_105" data-name="Path 105" d="M158.114,43.437a1.311,1.311,0,0,1,.995,1.356,1.48,1.48,0,0,1-.436,1.044,1.457,1.457,0,0,1-1.017.41,2.234,2.234,0,0,1-.534-.072q-.873-.291-1.817-.653a3.427,3.427,0,0,1-.46-.146,2.924,2.924,0,0,0-.46-.17,3.447,3.447,0,0,1-.461-.145,1.784,1.784,0,0,1-.46-.171,2.731,2.731,0,0,1-.461-.146,2.8,2.8,0,0,1-.46-.144q-.437-.144-.945-.292-.946-.241-1.891-.555-1.964-.582-4.289-1.163c-.726-.146-1.454-.314-2.18-.508-.728-.148-1.453-.308-2.18-.485a1.375,1.375,0,0,1-1.114-1.429,1.524,1.524,0,0,1,.41-1.044,1.4,1.4,0,0,1,1.017-.434,1.141,1.141,0,0,1,.268.024h.05a16.267,16.267,0,0,1,2.3.532,3.76,3.76,0,0,1,.6.147l.583.146c.289.049.669.139,1.139.266a3.456,3.456,0,0,1,.605.147c.194.048.388.1.582.145q.6.143,1.162.289a1.349,1.349,0,0,1,.34.1,3.57,3.57,0,0,1,.535.144,125.592,125.592,0,0,0,1.064.291,3.526,3.526,0,0,1,.532.145,1.446,1.446,0,0,1,.315.1q.946.29,2.132.7,1.02.293,2.108.679c.194.066.4.138.63.218.291.1.59.21.9.338a6.455,6.455,0,0,1,.9.339m-.072-6.832a1.3,1.3,0,0,1-1.429,1.478,1.565,1.565,0,0,1-.291-.025c-.1-.017-.178-.032-.242-.048q-3.271-1.234-6.785-2.254-3.343-.945-6.758-1.671h-.048a1.3,1.3,0,0,1-1.166-1.43,1.474,1.474,0,0,1,.437-1.041,1.423,1.423,0,0,1,1.042-.437h.072a1.478,1.478,0,0,0,.219.048q.8.146,1.719.364c.2.049.4.1.632.144.194.049.379.1.557.145a2.544,2.544,0,0,1,.557.122q.58.146,1.187.292c.437.1.865.2,1.286.315a5.723,5.723,0,0,1,.653.193,1.037,1.037,0,0,1,.315.1,1.189,1.189,0,0,1,.316.073c.4.113.79.236,1.162.363a4.247,4.247,0,0,1,.582.193.83.83,0,0,1,.292.1.85.85,0,0,1,.267.073c.872.241,1.71.518,2.518.822a.194.194,0,0,1,.073.024c.63.242.953.364.969.364.307.1.623.21.946.339a1.414,1.414,0,0,1,.92,1.358m1.307-7.342a1.39,1.39,0,0,1-.434,1.017,1.477,1.477,0,0,1-1.043.412,1.23,1.23,0,0,1-.461-.072c-.162-.05-.444-.14-.847-.268-.163-.048-.446-.146-.849-.291l-.848-.265q-.242-.074-.849-.291c-.16-.048-.443-.136-.847-.268-.146-.046-.283-.088-.412-.12l-.436-.143a1.561,1.561,0,0,1-.411-.122,1.453,1.453,0,0,1-.438-.123c-.144-.048-.283-.088-.41-.121l-.437-.144q-1.673-.434-3.657-.943c-.583-.147-1.187-.292-1.819-.439q-.873-.169-1.816-.41a1.3,1.3,0,0,1-1.165-1.431,1.51,1.51,0,0,1,.413-1.041,1.445,1.445,0,0,1,1.067-.437.962.962,0,0,1,.314.049q.676.144,1.381.289a6.4,6.4,0,0,0,.677.171.854.854,0,0,1,.34.1,1.286,1.286,0,0,1,.339.074q.654.143,1.356.314a1.383,1.383,0,0,1,.342.1c.143.049.2.064.166.049a.457.457,0,0,1,.173.048c.209.048.425.106.653.17a3.47,3.47,0,0,1,.6.145,3.421,3.421,0,0,1,.606.144c.146.05.348.106.607.172a.989.989,0,0,1,.315.1,2.01,2.01,0,0,1,.292.073q1.183.362,2.4.726c.356.113.72.236,1.09.365.34.113.695.234,1.067.363a14.808,14.808,0,0,1,1.988.679,1.347,1.347,0,0,1,.99,1.381" transform="translate(-139.945 -23.367)" fill="#5f5e5e"/>
        <path id="Path_106" data-name="Path 106" d="M197.619,33.791a16.94,16.94,0,0,1-.17,2.423q-.071.535-.218,1.213c-.1.4-.217.815-.363,1.235a14.861,14.861,0,0,1-2.543,4.579,10.649,10.649,0,0,1-3.344,2.52,14.664,14.664,0,0,1-2.133.824,25.344,25.344,0,0,1-2.471.605c-.308.048-.558.089-.75.122-.308.048-.559.089-.753.122l-1.528.146a1.432,1.432,0,0,1-1.526-.9,1.56,1.56,0,0,1,.1-1.308,1.528,1.528,0,0,1,1.115-.7,18.907,18.907,0,0,0,2.859-.389,2.046,2.046,0,0,0,.558-.1c.113-.015.209-.033.289-.048a.816.816,0,0,0,.267-.075,8.209,8.209,0,0,0,1.09-.314c.438-.144.809-.275,1.116-.388a4.72,4.72,0,0,0,1.065-.532,7.03,7.03,0,0,0,1.6-1.261,8.367,8.367,0,0,0,1.4-2.011,14.938,14.938,0,0,0,.751-1.7,10.523,10.523,0,0,0,.508-2.009c.064-.534.106-1.22.121-2.061V31.1a1.754,1.754,0,0,0-.338-1.236,1.907,1.907,0,0,0-1.235-.312H182.742a1.957,1.957,0,0,0-1.261.314,1.573,1.573,0,0,0-.363,1.237v4.724a1.474,1.474,0,0,1-.436,1.04,1.414,1.414,0,0,1-1.042.437,1.391,1.391,0,0,1-1.017-.437,1.417,1.417,0,0,1-.436-1.04v-5.16q0-4.072,4.12-4.073h11.169q4.145,0,4.143,4.072Z" transform="translate(-156.269 -24.576)" fill="#5f5e5e"/>
        <path id="Path_107" data-name="Path 107" d="M217.73,27.734a2.241,2.241,0,0,1,1.792-.751h6.785V24.971a1.635,1.635,0,0,1,.39-1.138,1.418,1.418,0,0,1,.993-.412,1.484,1.484,0,0,1,.993.388,1.624,1.624,0,0,1,.411,1.162v2.011h6.471a2.313,2.313,0,0,1,1.742.728,2.53,2.53,0,0,1,.8,1.793V43.336a2.974,2.974,0,0,1-2.884,3.369,14.45,14.45,0,0,1-3.318-.217,1.753,1.753,0,0,1-1.114-.7,1.846,1.846,0,0,1-.171-1.138,1.5,1.5,0,0,1,.681-.921,1.591,1.591,0,0,1,1.258-.17,8.7,8.7,0,0,0,1.527.365,1.261,1.261,0,0,0,.581-.1,1.724,1.724,0,0,0,.653-1.55V30.69a1.062,1.062,0,0,0-.29-.654.974.974,0,0,0-.63-.268h-5.33Q229,30.884,228.9,31.78a2.6,2.6,0,0,0-.1.485.262.262,0,0,1,.073.049q.677.752,2.373,2.711,1.649,1.893,2.811,3.515a1.572,1.572,0,0,1,.291,1.139,1.526,1.526,0,0,1-.557.9,1.46,1.46,0,0,1-1.018.243,1.53,1.53,0,0,1-.993-.7q-1.091-1.549-2.641-3.391c-.533-.582-.953-1.068-1.26-1.453-.1.225-.2.46-.315.7a14.2,14.2,0,0,1-.968,1.72,12.1,12.1,0,0,1-1.188,1.43,11.54,11.54,0,0,1-1.478,1.308,8.387,8.387,0,0,1-1.09.68,1.526,1.526,0,0,1-1.186.167,1.3,1.3,0,0,1-.849-.653,1.665,1.665,0,0,1-.144-1.041,1.737,1.737,0,0,1,.8-.92,4.615,4.615,0,0,0,.873-.559,9.228,9.228,0,0,0,.97-.822,13.549,13.549,0,0,0,1.114-1.334,13.039,13.039,0,0,0,.871-1.551,11.352,11.352,0,0,0,.558-1.6,8.589,8.589,0,0,0,.362-1.793,10.38,10.38,0,0,0,.074-1.237h-5.429a.976.976,0,0,0-.75.316,1.05,1.05,0,0,0-.313.726l0,14.515a1.7,1.7,0,0,1-.413,1.112,1.436,1.436,0,0,1-.993.413,1.5,1.5,0,0,1-.994-.389A1.7,1.7,0,0,1,217,45.326V29.478a2.435,2.435,0,0,1,.727-1.745" transform="translate(-172.838 -23.221)" fill="#5f5e5e"/>
        <path id="Path_108" data-name="Path 108" d="M264.475,46.4a1.443,1.443,0,0,1-.994.412,1.487,1.487,0,0,1-.992-.389,1.7,1.7,0,0,1-.388-1.138l0-6.662q-.947,1.694-1.842,3a1.535,1.535,0,0,1-.995.653,1.36,1.36,0,0,1-1.042-.265,1.454,1.454,0,0,1-.558-.9,1.588,1.588,0,0,1,.364-1.164,28.994,28.994,0,0,0,2.423-3.537,26.63,26.63,0,0,0,1.19-2.617h-2.521a1.328,1.328,0,0,1-1.018-.387,1.431,1.431,0,0,1-.388-1.018,1.354,1.354,0,0,1,.388-.993,1.336,1.336,0,0,1,1.018-.388H262.1V27.237q-1.142.12-2.3.218a1.679,1.679,0,0,1-1.091-.316,1.48,1.48,0,0,1-.485-.969,1.251,1.251,0,0,1,.315-.994,1.551,1.551,0,0,1,1.091-.435,38.368,38.368,0,0,0,6.543-1.065,1.581,1.581,0,0,1,1.163.048,1.279,1.279,0,0,1,.629.824,1.425,1.425,0,0,1-.1,1.041,1.586,1.586,0,0,1-.922.68c-.645.192-1.331.371-2.059.531v4.217h2.374a1.34,1.34,0,0,1,.994.365,1.434,1.434,0,0,1,.388,1.017,1.349,1.349,0,0,1-.388.994,1.308,1.308,0,0,1-.994.411h-2.374v1.769a1.458,1.458,0,0,1,.994-.339,1.539,1.539,0,0,1,.994.556,13.288,13.288,0,0,1,1.478,2.133,1.529,1.529,0,0,1,.17,1.139,1.41,1.41,0,0,1-.679.824,1.262,1.262,0,0,1-1.043.122,1.949,1.949,0,0,1-.873-.825,8.945,8.945,0,0,0-1.04-1.526v7.632a1.714,1.714,0,0,1-.413,1.115m11.291-21.66a1.372,1.372,0,0,1,.364-1.017,1.427,1.427,0,0,1,1.018-.389,1.361,1.361,0,0,1,.968.363,1.328,1.328,0,0,1,.436,1.043v12.72l.751-.144a1.574,1.574,0,0,1,1.186.193,1.336,1.336,0,0,1,.534.92,1.309,1.309,0,0,1-.17,1.018,1.478,1.478,0,0,1-1.041.606l-1.261.242v4.991a1.719,1.719,0,0,1-.41,1.115,1.448,1.448,0,0,1-.994.413,1.491,1.491,0,0,1-.993-.39,1.7,1.7,0,0,1-.39-1.138V40.805l-5.644.993a1.8,1.8,0,0,1-1.139-.146,1.386,1.386,0,0,1-.606-.9,1.535,1.535,0,0,1,.194-1.09,1.484,1.484,0,0,1,1.043-.606l6.153-1.09ZM269.078,33.3a1.269,1.269,0,0,1,.123-1.041,1.457,1.457,0,0,1,.8-.657,1.873,1.873,0,0,1,1.188.219q.389.241,1.358.9a16.968,16.968,0,0,1,1.621,1.211,1.483,1.483,0,0,1,.559,1.018,1.392,1.392,0,0,1-.315,1.016,1.6,1.6,0,0,1-.945.484,1.565,1.565,0,0,1-1.114-.435,17.416,17.416,0,0,0-1.406-1.09c-.582-.372-.953-.613-1.114-.726a1.543,1.543,0,0,1-.753-.9m.56-6.835a1.277,1.277,0,0,1,.169-1.041,1.441,1.441,0,0,1,.822-.63,1.562,1.562,0,0,1,1.188.267c.242.178.677.494,1.307.945.6.451,1.115.873,1.552,1.26a1.548,1.548,0,0,1,.533,1.066,1.41,1.41,0,0,1-.365.994,1.383,1.383,0,0,1-.944.435,1.805,1.805,0,0,1-1.115-.483,13.024,13.024,0,0,0-1.356-1.114c-.55-.4-.9-.663-1.067-.777a1.635,1.635,0,0,1-.725-.921" transform="translate(-190.191 -23.185)" fill="#5f5e5e"/>
        <path id="Path_109" data-name="Path 109" d="M341.763,35.914a1.534,1.534,0,0,1-.414-.993V24.454a1.419,1.419,0,0,1,2.836,0V34.921c-.084.937-.558,1.405-1.431,1.405a1.556,1.556,0,0,1-.992-.413m12.472-1.163a4.844,4.844,0,0,1-.17,1.212,8.812,8.812,0,0,1-.386,1.113,4.658,4.658,0,0,1-.509,1.044,6.949,6.949,0,0,1-1.475,1.743,5.164,5.164,0,0,1-.9.653,5.369,5.369,0,0,1-.942.583,11.742,11.742,0,0,1-2.35.995,8.434,8.434,0,0,1-1.188.338c-.453.1-.854.17-1.206.218a1.309,1.309,0,0,0-1.166,1.405,1.573,1.573,0,0,0,.412.994,1.527,1.527,0,0,0,.994.412h.265c.323-.064.58-.121.774-.168.388-.1.638-.155.75-.17.5-.131.994-.274,1.479-.437a24.516,24.516,0,0,0,2.522-1.067,16.971,16.971,0,0,0,2.227-1.479,11.106,11.106,0,0,0,2.5-3.075c.1-.2.241-.494.434-.9a6.63,6.63,0,0,0,.341-1.018,6.964,6.964,0,0,0,.386-2.229V24.454a1.37,1.37,0,0,0-.412-.993,1.316,1.316,0,0,0-.968-.389,1.234,1.234,0,0,0-1.408,1.382v10.3Z" transform="translate(-225.917 -23.072)" fill="#5f5e5e"/>
        <path id="Path_110" data-name="Path 110" d="M373.913,46.124a1.4,1.4,0,0,1-1.02-.436,1.523,1.523,0,0,1-.41-1.042,1.611,1.611,0,0,1,.41-1.041,1.476,1.476,0,0,1,1.043-.437h19.289a1.423,1.423,0,0,1,1.041.436,1.479,1.479,0,0,1,.434,1.041,1.425,1.425,0,0,1-.434,1.042,1.475,1.475,0,0,1-1.041.436Zm.241-15.435a1.466,1.466,0,0,1-.435-1.041,1.487,1.487,0,0,1,1.453-1.453h16.765a1.451,1.451,0,0,1,1.481,1.453,1.454,1.454,0,0,1-1.481,1.478H375.172a1.394,1.394,0,0,1-1.018-.437" transform="translate(-239.207 -25.259)" fill="#5f5e5e"/>
        <path id="Path_111" data-name="Path 111" d="M413.911,32.412a1.46,1.46,0,0,1-.049-1.453,1.4,1.4,0,0,1,1.114-.679,1.514,1.514,0,0,1,1.166.485c.464.6.878,1.17,1.233,1.721a27.7,27.7,0,0,1,2.714,5.014,1.712,1.712,0,0,1,.121,1.163,1.315,1.315,0,0,1-.921.922,1.334,1.334,0,0,1-1.235-.242,3.378,3.378,0,0,1-.487-.63,5.04,5.04,0,0,1-.315-.775q-.7-1.406-1.38-2.569-.87-1.43-1.622-2.447c-.114-.178-.194-.3-.241-.363a.338.338,0,0,1-.1-.146m11.847,7.9a10.677,10.677,0,0,1-1.964,1.866,3.982,3.982,0,0,1-.53.412,3.146,3.146,0,0,1-.559.365,10.043,10.043,0,0,1-1.186.654,20.715,20.715,0,0,1-5.064,1.792c-.018.034-.08.057-.194.072l-.049.025a1.4,1.4,0,0,0-.751,1.816,1.537,1.537,0,0,0,1.841.8,29.6,29.6,0,0,0,3.247-1.018,20.13,20.13,0,0,0,3.078-1.477,17.4,17.4,0,0,0,2.738-1.962,13.826,13.826,0,0,0,2.3-2.569,16.839,16.839,0,0,0,2.3-4.652,25.773,25.773,0,0,0,1.115-5.114,3.205,3.205,0,0,0,.122-.7,2.079,2.079,0,0,0-.022-.726,1.345,1.345,0,0,0-1.89-1.041,1.583,1.583,0,0,0-.632.58,1.662,1.662,0,0,0-.239.7l-.075.58c-.08.761-.2,1.528-.363,2.3q-.269,1.235-.581,2.253a15.292,15.292,0,0,1-2.014,4.143,1.649,1.649,0,0,1-.218.339c-.08.13-.119.186-.119.168l-.123.171a.621.621,0,0,0-.168.217m-6.276-11.1a1.414,1.414,0,0,1,1.841-.363,1.654,1.654,0,0,1,.362.313,12.4,12.4,0,0,1,.923,1.259c.114.164.218.317.317.463A20.038,20.038,0,0,1,424.4,33.31a26.54,26.54,0,0,1,1.235,2.566,2.37,2.37,0,0,1,.123,1.163,1.321,1.321,0,0,1-.921.9,1.584,1.584,0,0,1-1.283-.218,2.4,2.4,0,0,1-.629-1.018,4.054,4.054,0,0,1-.17-.387,21.641,21.641,0,0,0-1.358-2.592q-.75-1.259-1.624-2.448c-.08-.064-.12-.12-.12-.17a.443.443,0,0,1-.147-.169.242.242,0,0,1-.1-.121,1.468,1.468,0,0,1,.071-1.6" transform="translate(-256.798 -25.459)" fill="#5f5e5e"/>
        <path id="Path_112" data-name="Path 112" d="M319.542,26.628A1.991,1.991,0,0,0,318,25.914H307.578c-1.978,0-2.333.729-2.635,1.8a10.885,10.885,0,0,1-3.833,5.863,1.52,1.52,0,0,0-.547,1.43,1.33,1.33,0,0,0,.927,1.151,1.193,1.193,0,0,0,.448.094,1.293,1.293,0,0,0,.873-.277,13.68,13.68,0,0,0,4.547-6.24,1.088,1.088,0,0,1,1.052-.793l8.492,0c.175.045.366.177.3.559-.048.264-.082.448-.1.555-.028.146-.045.231-.052.281a.892.892,0,0,0-.069.257c-.083.262-.178.614-.291,1.053-.746,2.658-2.011,6.131-4.042,7.952a19.907,19.907,0,0,1-9.391,4.243,1.451,1.451,0,0,0,.453,2.832c.656-.053,8.262-1.772,11.937-6.018a20.014,20.014,0,0,0,4.487-12.04v-.24a2.337,2.337,0,0,0-.589-1.747" transform="translate(-208.497 -24.285)" fill="#ffec00"/>
        <path id="Path_113" data-name="Path 113" d="M318,25.913h-10.42c-1.979,0-2.333.729-2.635,1.8a10.887,10.887,0,0,1-3.833,5.863A1.52,1.52,0,0,0,300.563,35a1.331,1.331,0,0,0,.927,1.152,1.2,1.2,0,0,0,.448.094,1.294,1.294,0,0,0,.873-.277,13.679,13.679,0,0,0,4.547-6.24,1.086,1.086,0,0,1,1.052-.794l8.492,0c.175.045.365.177.3.558-.049.264-.082.449-.1.555-.028.147-.044.232-.052.282a.893.893,0,0,0-.069.256c-.082.262-.177.614-.291,1.054-.746,2.658-2.011,6.13-4.041,7.952a19.905,19.905,0,0,1-9.391,4.243,1.452,1.452,0,0,0,.453,2.832c.987-.07,8.38-1.672,11.937-6.019,3.706-4.532,4.543-10.6,4.711-12.2A2.306,2.306,0,0,0,318,25.913" transform="translate(-208.497 -24.285)" fill="#5f5e5e"/>
        <path id="Path_114" data-name="Path 114" d="M466.517,25.912H456.1c-1.981,0-2.337.728-2.637,1.8a10.9,10.9,0,0,1-3.831,5.862,1.519,1.519,0,0,0-.55,1.431,1.333,1.333,0,0,0,.927,1.151,1.187,1.187,0,0,0,.452.093,1.286,1.286,0,0,0,.871-.276,13.7,13.7,0,0,0,4.547-6.24,1.081,1.081,0,0,1,1.052-.793l8.494,0c.171.045.362.178.293.559-.049.264-.082.448-.1.555-.028.147-.047.231-.052.281a.837.837,0,0,0-.069.256c-.082.263-.177.614-.293,1.054-.741,2.659-2.011,6.131-4.042,7.956a19.9,19.9,0,0,1-9.388,4.239,1.452,1.452,0,0,0,.451,2.832c.989-.07,8.38-1.672,11.937-6.018,3.706-4.533,4.547-10.6,4.715-12.2a2.312,2.312,0,0,0-2.361-2.545" transform="translate(-271.895 -24.284)" fill="#5f5e5e"/>
      </g>
    </g>
  </g>
</svg>
