<svg xmlns="http://www.w3.org/2000/svg" width="157.562" height="20.64" viewBox="0 0 157.562 20.64">
  <g id="Group_491" data-name="Group 491" transform="translate(-233.891 -571.165)">
    <g id="Group_489" data-name="Group 489" style="isolation: isolate">
      <path id="Path_757" data-name="Path 757" d="M298.106,588.724l1.365-1.716c.175-.221.219-.286.33-.286.154,0,.374.219.418.242l1.936,1.738c.2.176.242.22.242.33,0,.264-.264.264-.352.264H286.291a13.483,13.483,0,0,0-2.377.132l-.352-.836c1.034.088,2.09.132,3.125.132Zm-.4-14.192,1.057-1.453c.109-.153.175-.285.307-.285a.863.863,0,0,1,.419.22l1.936,1.5c.088.066.242.2.242.33,0,.22-.176.264-.352.264H287.127a11,11,0,0,0-2.377.154l-.374-.859c1.057.088,2.091.133,3.147.133Zm-1.8,6.622,1.254-1.452c.176-.2.22-.264.352-.264.088,0,.11.044.4.243l1.959,1.452c.022.021.219.176.219.351,0,.2-.219.243-.352.243H288.293a10.922,10.922,0,0,0-2.376.154l-.375-.859a29.845,29.845,0,0,0,3.147.132Z" fill="#333"/>
      <path id="Path_758" data-name="Path 758" d="M319.27,574.642c-.044.792,0,13.927-.022,14.17-.066,1.43-1.695,2.245-2.9,2.707a5.382,5.382,0,0,0-2.618-2.707v-.154a23.012,23.012,0,0,0,2.332.176c.33,0,1.166,0,1.276-.22.132-.242.176-.638.176-2.816,0-2.421,0-2.443.044-3.961a20.965,20.965,0,0,1-7.371,6.732l-.066-.175c2.64-2.157,6.183-7.217,7.437-9.593v-3.213c-1.87,2.509-4.863,5.171-7.173,6.095l-.044-.088a32.482,32.482,0,0,0,6.535-7.856h-3.1a12.771,12.771,0,0,0-2.377.155l-.374-.815c1.342.133,2.9.133,3.147.133h3.1l.77-.9a.449.449,0,0,1,.286-.176c.11,0,.22.088.374.241l1.189,1.123a.76.76,0,0,1,.154.33C320.04,574.18,319.709,574.378,319.27,574.642Zm8.977-.088c0,.967-.022,5.325-.022,6.2,0,1.166.066,6.314.066,7.371a2.274,2.274,0,0,1-.858,2.222,5.835,5.835,0,0,1-2.069,1.123c-.132-.639-.22-1.167-2.354-2.6l.044-.176a8.6,8.6,0,0,0,2,.241c.485,0,1.3,0,1.408-.374.088-.351.066-6.182.066-7.326a23.411,23.411,0,0,1-7.019,5.874l-.088-.132a44.843,44.843,0,0,0,7.151-8.713c0-1.012.045-2.64.045-3.652a18.5,18.5,0,0,1-7.041,5.919l-.067-.133a29.967,29.967,0,0,0,5.743-6.623h-1.518a10.9,10.9,0,0,0-2.376.155l-.374-.814c1.342.109,2.9.132,3.146.132H326.4l.573-.7c.11-.155.241-.309.352-.309s.241.154.374.265l1.188.99a.489.489,0,0,1,.22.374C329.105,574.158,328.863,574.268,328.247,574.554Z" fill="#333"/>
      <path id="Path_759" data-name="Path 759" d="M354.624,584.235h-5.149a8.664,8.664,0,0,1-5.589,7.57l-.11-.177a10.272,10.272,0,0,0,3.917-7.393h-1.607a13.777,13.777,0,0,0-2.4.132l-.352-.792c1.342.111,2.9.132,3.146.132h1.277c.132-1.386.132-3.564.132-4.6h-1.32a12.772,12.772,0,0,0-2.377.155l-.352-.815c1.343.132,2.883.132,3.125.132h.924v-3.52a23.154,23.154,0,0,1-4.357.418l-.044-.2A26.743,26.743,0,0,0,350,572.926a4.314,4.314,0,0,0,1.716-1.431l1.915,1.563a.517.517,0,0,1,.241.374c0,.263-.2.263-.352.263-.241,0-.615-.044-.857-.065a31.045,31.045,0,0,1-3.037,1.034c0,.616-.022,3.366-.022,3.916h1.606l.9-1.231c.155-.221.22-.265.352-.265.155,0,.264.088.419.242l1.364,1.233a.442.442,0,0,1,.2.33c0,.2-.177.219-.33.219h-4.511c-.022,3.411-.022,3.785-.088,4.6h2.156l.881-1.408c.044-.088.175-.286.33-.286.132,0,.329.175.4.242l1.452,1.408c.176.154.22.2.22.33C354.954,584.191,354.756,584.235,354.624,584.235Zm7.063,4.313a4.9,4.9,0,0,1-2.157.681,3.954,3.954,0,0,0-1.54-2.662v-.219c.748.131,2.222.286,2.355.286.946,0,.946-1.145.946-1.408,0-2.905-2.068-4.665-3.3-5.721a51.282,51.282,0,0,0,2.047-5.942h-3.059c0,.088.088,4.908.088,5.127v5.149c0,1.013.154,5.523.154,6.447a1.2,1.2,0,0,1-1.166,1.364c-.858,0-.858-.7-.858-1.034,0-.374.066-2.135.066-2.486.044-2.729.066-5.831.066-8.823,0-1.958-.022-5.633-.242-7.394l2.046,1.122H359.9l.881-.769c.088-.088.153-.176.286-.176s.308.153.44.264l1.21.879a.576.576,0,0,1,.286.462c0,.286-.264.4-.946.727-.176.242-.33.462-1.628,2.42-.243.374-1.21,1.738-1.827,2.6,1.431.9,4.643,2.883,4.643,6.25A3.326,3.326,0,0,1,361.687,588.548Z" fill="#333"/>
      <path id="Path_760" data-name="Path 760" d="M378.559,575.9c-3.608,5.611-5.413,6.469-6.513,6.975l-.154-.154c1.012-.968,2.442-2.376,4.951-7.415,1.21-2.443,1.232-3.323,1.254-4.137l2.508,1.387c.155.088.221.153.221.33,0,.33-.529.506-.837.638-.263.484-.506.9-1.1,1.848h2.333l1.012-.836c.11-.089.22-.177.286-.177a.914.914,0,0,1,.418.2l1.144.99a.623.623,0,0,1,.264.484c0,.264-.088.308-.836.682-.022.286-.044.594-.044.88,0,5.853,4.049,10.826,7.987,11.794v.154a4.967,4.967,0,0,0-2.662,1.607c-4.115-2.641-5.765-6.711-5.765-13.489-.616,2.069-3.543,11.552-11.794,13.994l-.088-.2c4.687-2.486,9.043-9.285,10.3-15.556Z" fill="#333"/>
    </g>
    <g id="Group_490" data-name="Group 490" style="isolation: isolate">
      <path id="Path_761" data-name="Path 761" d="M237.167,575.938l.379-.252c.234-.163.27-.18.324-.18.036,0,.072,0,.27.143l.846.631a.526.526,0,0,1,.2.378c0,.235-.378.378-.54.45-.036.09-1.584,3.4-1.891,3.944.7.7,2.053,2.106,2.053,3.8,0,1.584-1.278,2-2.124,2.268a2.323,2.323,0,0,0-1.009-1.818v-.145a2.912,2.912,0,0,0,.882.145c.738,0,.793-.235.793-.666a6.8,6.8,0,0,0-1.063-3.583,34.784,34.784,0,0,0,.846-4.682h-1.656a3.033,3.033,0,0,0-.054.594c-.018,1.692-.018,2.287-.018,7.761,0,1.6.108,4.176.108,5.779,0,.576-.9.738-1.1.738a.463.463,0,0,1-.522-.54c0-.072.018-.522.036-1.062.162-4.2.2-5.257.2-7.275,0-4.428-.126-5.977-.216-7.147l1.692.72Zm4.682,8.247.828.288c.4.143.486.252.486.359,0,.217-.18.253-.594.379-.468,2.593-1.44,4.555-5.87,5.563l-.09-.144a6.679,6.679,0,0,0,4.592-6.445,9.6,9.6,0,0,0-2.053.126l-.288-.666c1.1.089,2.359.107,2.557.107h5.06l.666-.918c.053-.09.162-.234.27-.234.126,0,.252.126.342.2l1.044.918c.108.108.18.162.18.27,0,.18-.162.2-.288.2h-3.565v4.573c0,.4.018.486,1.278.486,1.117,0,1.261-.306,1.783-2.449h.144c.072.738.216,1.927.756,2.268.162.109.288.181.288.451,0,.234-.126.648-.792.918-.486.2-.774.27-2.953.27-1.3,0-1.926,0-1.926-1.566,0-.756.035-4.142.035-4.844v-.107Zm5.005-6.5.522-.325a.739.739,0,0,1,.325-.126c.09,0,.144.037.306.18l1.044.99a.37.37,0,0,1,.108.271c0,.36-.594.4-.972.45-.27.162-1.44.936-1.693,1.08l-.126-.09a5.932,5.932,0,0,0,.468-2.052h-6.644c.055,1.134-.27,2.754-1.422,2.754a.764.764,0,0,1-.756-.7c0-.306.108-.432,1.1-1.638a2.228,2.228,0,0,0,.7-1.477h.144a2.78,2.78,0,0,1,.2.685h2.359a9.454,9.454,0,0,0-.2-2.5l2,.576c.181.054.235.126.235.2,0,.18-.162.27-.54.486v1.243Zm-2.9,3.258.594-.792c.108-.144.18-.216.27-.216a.5.5,0,0,1,.342.18l.864.792c.126.109.18.162.18.271,0,.162-.162.2-.27.2h-3.853a8.951,8.951,0,0,0-1.944.127l-.306-.667c1.1.091,2.376.108,2.574.108Z" fill="#333"/>
      <path id="Path_762" data-name="Path 762" d="M265.017,590.792a11.2,11.2,0,0,1-7.617-7.184h-1.656v4.826c.63-.126,3.421-.666,3.979-.811l.018.072c-1.512,1.063-2.7,1.494-6.806,2.953-.252.36-.288.415-.378.415-.072,0-.126-.055-.2-.252l-.792-1.927c.18,0,.99.054,1.152.054a9.286,9.286,0,0,0,1.6-.235v-5.1h-1.368a10.453,10.453,0,0,0-1.944.126l-.288-.666c1.1.108,2.358.108,2.556.108H254.3c0-.054-.018-4.429-.073-5.258a19.293,19.293,0,0,0-.27-2.521l1.927.865h5.96l.846-.991c.18-.2.2-.215.27-.215a1,1,0,0,1,.36.2l1.386.99a.348.348,0,0,1,.163.252c0,.18-.144.2-.27.2h-8.859v1.836h4.772l.737-.809c.181-.2.217-.217.289-.217s.108.018.36.181l1.242.809a.373.373,0,0,1,.18.271c0,.179-.162.2-.27.2h-7.31V580.8h4.843l.775-.954c.144-.18.18-.234.27-.234.072,0,.144.035.342.2l1.134.955a.384.384,0,0,1,.18.288c0,.161-.144.179-.27.179h-7.274v1.945h7.814l.846-1.044c.145-.181.18-.216.271-.216.054,0,.126.018.342.18l1.386,1.062a.324.324,0,0,1,.162.27c0,.162-.144.18-.27.18h-3.619l1.44,1.134c.091.072.127.09.127.181,0,.2-.162.2-.288.2a2.973,2.973,0,0,1-.415-.035c-.288.126-1.566.792-1.818.918-.216.09-1.135.54-1.315.63a10.13,10.13,0,0,0,6.554,2.161v.054A4.482,4.482,0,0,0,265.017,590.792Zm-7.256-7.184a8.861,8.861,0,0,0,2.394,2.845,10.373,10.373,0,0,0,2.3-2.845Z" fill="#333"/>
    </g>
  </g>
</svg>
