<svg xmlns="http://www.w3.org/2000/svg" width="526" height="339" viewBox="0 0 526 339">
  <g id="Group_828" data-name="Group 828" transform="translate(-611 -824)">
    <g id="Group_532" data-name="Group 532" transform="translate(-50 62.17)">
      <circle id="Ellipse_31" data-name="Ellipse 31" cx="62" cy="62" r="62" transform="translate(1063 932)" fill="#fff"/>
      <g id="Group_523" data-name="Group 523" transform="translate(606.359 312.275)">
        <path id="Path_763" data-name="Path 763" d="M481.021,685.668a13.043,13.043,0,0,0,5.024,2.611l-1.134,1.53a14.738,14.738,0,0,1-4.88-3.151v3.457H478.2v-3.331a14.515,14.515,0,0,1-4.646,3.079l-1.1-1.44a12.734,12.734,0,0,0,4.861-2.755H472.7v-1.4H478.2V683.2h-3.763v-4.123a12.042,12.042,0,0,1-.883,1.026l-1.062-1.278a12.876,12.876,0,0,0,3.043-5.473l1.638.377q-.243.783-.54,1.567h1.711a19.3,19.3,0,0,0,.5-1.927l1.855.36c-.18.469-.4,1.009-.649,1.567h4.844v1.278h-4.736v.973h3.836v1.188h-3.836v.99h3.836v1.189h-3.836v1.008H485V683.2h-4.97v1.063h5.708v1.4Zm-2.592-9.093h-2.251v.973h2.251Zm0,2.161h-2.251v.99h2.251Zm-2.251,3.187h2.251v-1.008h-2.251Z"/>
        <path id="Path_764" data-name="Path 764" d="M499.527,676.737v8.571h-1.819v-.882h-3.3v5.689h-1.836v-5.689h-3.115v.882H487.7v-8.571h4.88v-3.4h1.836v3.4Zm-6.95,5.978v-4.267h-3.115v4.267Zm5.131,0v-4.267h-3.3v4.267Z"/>
        <path id="Path_765" data-name="Path 765" d="M504.942,674.325c-.215,3.817-.306,7.706-.306,9.381,0,3.078.685,3.871,2.305,3.871s2.863-1.009,3.745-4.5l1.783.828c-1.315,4.358-3.187,5.618-5.564,5.618-2.863,0-4.159-1.62-4.159-5.762,0-1.692.09-5.653.144-9.434Z"/>
        <path id="Path_766" data-name="Path 766" d="M518.406,678.034a57.4,57.4,0,0,1-2.754,11.523l-1.837-.774a43.139,43.139,0,0,0,2.683-10.749h-2.251v-1.765h2.467c.072-.81.144-1.62.18-2.376l1.962.071c-.053.757-.144,1.531-.233,2.3h3.637v1.765Zm2.683,6.7a4.184,4.184,0,0,0-.432,1.674c0,.81.828,1.1,2.467,1.1a9.955,9.955,0,0,0,2.143-.215v1.836a17.037,17.037,0,0,1-2.125.126c-2.611,0-4.267-.7-4.267-2.467a6.792,6.792,0,0,1,.576-2.394Zm-1.422-5.042a27.234,27.234,0,0,1,3.709-.27c.612,0,1.225.018,1.692.054V681.2a14.18,14.18,0,0,0-1.854-.09,17.647,17.647,0,0,0-3.421.324Z"/>
        <path id="Path_767" data-name="Path 767" d="M530.088,676.341a34.258,34.258,0,0,0-.253,3.889c0,4.034.847,6.392,1.513,6.392.4,0,.792-.936,1.027-2.772l1.656.774c-.522,3.079-1.405,4.321-2.611,4.321-1.656,0-3.475-2.7-3.475-8.661,0-1.242.054-2.664.162-4.1Zm6.373-.648c2.179,2.9,2.647,6.23,2.719,10.209l-2.034.2c.018-3.853-.36-6.86-2.323-9.4Z"/>
        <path id="Path_768" data-name="Path 768" d="M546.36,677.908c2.269,0,3.169,1.206,3.169,4.2a16.111,16.111,0,0,1-.864,6.032,2.083,2.083,0,0,1-2.089,1.44,7.2,7.2,0,0,1-2.07-.306l.126-1.854a3.918,3.918,0,0,0,1.53.324c.45,0,.612-.054.828-.414a13.55,13.55,0,0,0,.7-5.168c0-2.034-.324-2.5-1.4-2.5-.18,0-.378,0-.594.018a35.759,35.759,0,0,1-2.971,9.219l-1.71-.81a27.3,27.3,0,0,0,2.862-8.193,20.241,20.241,0,0,0-2.466.558l-.414-1.818a30.012,30.012,0,0,1,3.223-.558c.216-1.386.378-2.809.468-4.214l1.873.181c-.145,1.3-.325,2.592-.541,3.871Zm4.537-1.027a15.269,15.269,0,0,1,2.7,7.509l-1.837.468a13.473,13.473,0,0,0-2.4-7.058Z"/>
        <path id="Path_769" data-name="Path 769" d="M557.25,682.715a7.285,7.285,0,0,1,4.033-1.368A3.323,3.323,0,0,1,564.83,685c0,2.9-1.873,4.573-6.1,4.573a9.124,9.124,0,0,1-.936-.036l-.361-1.836c.468.036,1.081.071,1.477.071,2.844,0,4.015-.99,4.015-2.718a1.771,1.771,0,0,0-2-2.035c-1.278,0-2.647.72-4.069,2.3l-1.548-.612c0-3.925.414-6,1.548-7.833l1.729.667A8.963,8.963,0,0,0,557.25,682.715Zm-.937-7.166.576-1.746a36.649,36.649,0,0,1,6.356,1.854l-.594,1.764A27.342,27.342,0,0,0,556.313,675.549Z"/>
      </g>
    </g>
    <g id="Group_531" data-name="Group 531" transform="translate(10 -65.83)">
      <circle id="Ellipse_30" data-name="Ellipse 30" cx="62" cy="62" r="62" transform="translate(938 932)" fill="#fff"/>
      <g id="Group_524" data-name="Group 524" transform="translate(597.278 312.23)">
        <path id="Path_770" data-name="Path 770" d="M369.9,678.178a38.919,38.919,0,0,1-2.682,8.282l-1.765-.882a31.1,31.1,0,0,0,2.557-7.4h-2.052v-1.747h2.394a24.868,24.868,0,0,0,.324-2.628l1.927.216c-.072.738-.2,1.566-.342,2.412h1.854v1.747Zm4.916,1.242c-.036.522-.054,1.279-.054,1.891,0,1.026.036,2.251.054,3.294a8.8,8.8,0,0,1,2.593,1.783l-1.1,1.477a8.112,8.112,0,0,0-1.459-1.3c-.054,2-.882,3.025-2.773,3.025a2.828,2.828,0,0,1-3.025-2.881,2.671,2.671,0,0,1,2.953-2.736,6.708,6.708,0,0,1,1.026.089c-.017-.918-.035-1.908-.035-2.754V679.42Zm-1.747,6.3a4.422,4.422,0,0,0-1.062-.144c-.864,0-1.332.414-1.332,1.134a1.115,1.115,0,0,0,1.206,1.171c.829,0,1.188-.379,1.188-1.495Zm3.494-6.032a17.021,17.021,0,0,0-3.62-2.448l.955-1.423a23.99,23.99,0,0,1,3.673,2.4Z"/>
        <path id="Path_771" data-name="Path 771" d="M385.055,674.577c-.684,2.286-1.423,4.879-2,6.752a2.3,2.3,0,0,1,1.387-.595c1.278,0,1.728.919,1.728,4.736,0,1.819.36,2.161.991,2.161.864,0,1.656-.793,1.962-4.934l1.818.576c-.558,5.042-1.962,6.23-3.942,6.23-1.531,0-2.575-1.1-2.575-3.691,0-2.5-.217-3.025-.649-3.025-.306,0-.576.2-.918.72a8.044,8.044,0,0,0-.666,1.3c-.45,1.08-1.224,3.331-1.621,4.753l-1.872-.666a145.565,145.565,0,0,0,4.411-14.8Z"/>
        <path id="Path_772" data-name="Path 772" d="M402.354,689.2a27.03,27.03,0,0,1-4.015.27c-3.763,0-5.708-1.368-5.708-3.889,0-1.765,1.171-3.313,3.025-4.7-.81-1.782-.918-3.835-.918-6.985h1.945c0,2.791.053,4.609.593,5.923a30.9,30.9,0,0,1,3.62-1.854l.774,1.818c-3.727,1.441-7.112,3.493-7.112,5.69,0,1.35,1.008,2.125,3.8,2.125a19.446,19.446,0,0,0,3.817-.361Z"/>
        <path id="Path_773" data-name="Path 773" d="M408.274,678.178a38.858,38.858,0,0,1-2.683,8.282l-1.764-.882a31.1,31.1,0,0,0,2.556-7.4h-2.052v-1.747h2.4a24.86,24.86,0,0,0,.324-2.628l1.926.216c-.072.738-.2,1.566-.342,2.412h1.855v1.747Zm4.915,1.242c-.036.522-.053,1.279-.053,1.891,0,1.026.035,2.251.053,3.294a8.784,8.784,0,0,1,2.593,1.783l-1.1,1.477a8.107,8.107,0,0,0-1.458-1.3c-.055,2-.883,3.025-2.773,3.025a2.827,2.827,0,0,1-3.025-2.881,2.67,2.67,0,0,1,2.953-2.736,6.708,6.708,0,0,1,1.026.089c-.018-.918-.036-1.908-.036-2.754V679.42Zm-1.746,6.3a4.428,4.428,0,0,0-1.062-.144c-.864,0-1.333.414-1.333,1.134a1.116,1.116,0,0,0,1.207,1.171c.828,0,1.188-.379,1.188-1.495Zm3.493-6.032a17.013,17.013,0,0,0-3.619-2.448l.954-1.423a23.941,23.941,0,0,1,3.673,2.4Z"/>
        <path id="Path_774" data-name="Path 774" d="M425.97,674.937a54.861,54.861,0,0,1-5.618,6.554.58.58,0,0,0-.162.36.586.586,0,0,0,.144.324,43.765,43.765,0,0,1,6.194,6.284l-1.765,1.35a34.931,34.931,0,0,0-6.626-6.932,1.164,1.164,0,0,1-.414-.918,1.7,1.7,0,0,1,.558-1.116,45.007,45.007,0,0,0,6.032-7.113Z"/>
        <path id="Path_775" data-name="Path 775" d="M428.792,681.725a1.036,1.036,0,1,1,1.045,1.044A1.034,1.034,0,0,1,428.792,681.725Zm4.556,0a1.045,1.045,0,1,1,1.045,1.044A1.044,1.044,0,0,1,433.348,681.725Zm4.573,0a1.045,1.045,0,0,1,1.045-1.044,1.044,1.044,0,0,1,0,2.088A1.046,1.046,0,0,1,437.921,681.725Z"/>
      </g>
    </g>
    <g id="Group_530" data-name="Group 530" transform="translate(0 -108)">
      <circle id="Ellipse_29" data-name="Ellipse 29" cx="62" cy="62" r="62" transform="translate(812 932)" fill="#fff"/>
      <g id="Group_525" data-name="Group 525" transform="translate(579.378 300.775)">
        <path id="Path_776" data-name="Path 776" d="M287.389,687.739v1.692H274.5v-1.692h5.563V683.85h-3.583v-1.693h3.583v-3.439h-2.539a17.477,17.477,0,0,1-1.53,3.2l-1.657-.81a18.305,18.305,0,0,0,2.5-7.058l1.819.324a21.674,21.674,0,0,1-.6,2.646h2v-3.691h1.855v3.691H286.6v1.693h-4.681v3.439h3.673v1.693h-3.673v3.889Z"/>
        <path id="Path_777" data-name="Path 777" d="M291.112,681.887a12.261,12.261,0,0,0-2.431-2.4l1.008-1.224a14.859,14.859,0,0,1,2.665,2.322Zm-2.251,6.878a37.772,37.772,0,0,0,2.575-5.708l1.314,1.117a45.7,45.7,0,0,1-2.376,5.743Zm2.773-11.667a12.792,12.792,0,0,0-2.395-2.3l1.027-1.225a13.84,13.84,0,0,1,2.574,2.179Zm6.572,3.186V682.8H301.2v7.31h-1.8v-.666h-4.106v.666h-1.746V682.8h2.845v-2.521h-3.674v-1.656h3.674v-2.5c-.973.162-1.927.288-2.773.342l-.648-1.584a24.662,24.662,0,0,0,7.49-1.513l.99,1.459a22.311,22.311,0,0,1-3.241.936v2.863h3.745v1.656Zm1.189,4.16h-4.106v3.367h4.106Z"/>
        <path id="Path_778" data-name="Path 778" d="M308.987,687.7c3.493-.9,4.3-2.971,4.3-5.852,0-2.665-.918-4.412-3.007-4.663-.162,6.841-1.71,11.361-4.051,11.361-1.747,0-2.737-2.449-2.737-5.4,0-4.159,2.467-7.832,6.194-7.832,4.033,0,5.546,2.827,5.546,6.482,0,3.583-1.081,6.338-5.258,7.688Zm-.576-10.335c-2,.738-3.1,3.151-3.1,5.743,0,1.927.414,3.2.936,3.2C307.061,686.316,308.285,683.129,308.411,677.368Z"/>
        <path id="Path_779" data-name="Path 779" d="M264.024,707.57a12.534,12.534,0,0,0,5.222,3.583l-1.189,1.53a14.884,14.884,0,0,1-4.789-3.691v4.123h-1.837v-4.069a15.365,15.365,0,0,1-4.663,3.709l-1.153-1.458a13.052,13.052,0,0,0,5.1-3.727H255.85V706h5.581v-1.368h-1.746v-6.7h1.548c.162-.594.306-1.17.378-1.621l1.927.252c-.163.414-.36.883-.577,1.369h2.161v6.7h-1.854V706h5.708v1.567Zm-4.591-4.736c-.883.7-2.107,1.639-2.863,2.2l-.811-1.549c.811-.486,2.233-1.386,3.223-2.088Zm-1.549-2.214a11.637,11.637,0,0,0-1.782-2.809l1.3-.865a12.7,12.7,0,0,1,1.98,2.809Zm5.528-1.261h-2.071v1.279h2.071Zm-2.071,3.853h2.071V701.88h-2.071Zm6.41,1.6a29.869,29.869,0,0,0-2.521-2.575l1.135-1.026a32.034,32.034,0,0,1,2.682,2.467Zm1.044-7.076a28.035,28.035,0,0,1-2.07,2.881l-1.315-.81a18.719,18.719,0,0,0,1.819-2.917Z"/>
        <path id="Path_780" data-name="Path 780" d="M273.743,697.325c-.216,3.817-.306,7.706-.306,9.381,0,3.078.684,3.871,2.3,3.871s2.863-1.009,3.745-4.5l1.783.828c-1.314,4.358-3.187,5.618-5.563,5.618-2.863,0-4.16-1.62-4.16-5.762,0-1.692.09-5.653.144-9.434Z"/>
        <path id="Path_781" data-name="Path 781" d="M294.049,706.886c-.45-.217-.919-.433-1.386-.613-.523,2.953-1.6,4.988-3.818,6.392l-1.3-1.4c2.124-1.189,3.043-3.061,3.4-5.582a14.716,14.716,0,0,0-2.647-.54c-.252,1.044-.522,2.017-.774,2.827-.72,2.232-1.531,3.061-2.755,3.061-1.3,0-2.107-1.459-2.107-3.313a4.032,4.032,0,0,1,4.214-4.412c.288-1.314.558-2.646.756-3.709-.918.108-2.485.252-3.745.343l-.18-1.819a34.109,34.109,0,0,0,4.9-.4l1.3.864c-.343,1.278-.757,3.043-1.171,4.826a18.667,18.667,0,0,1,2.413.449c.054-.918.072-1.89.072-2.934l1.855.036c-.018,1.224-.073,2.358-.181,3.385.631.2,1.261.432,1.855.666Zm-7.6-1.747c-1.6.216-2.125,1.08-2.125,2.557,0,.9.2,1.278.486,1.278.342,0,.576-.306.955-1.386C285.982,706.958,286.216,706.093,286.451,705.139Z"/>
        <path id="Path_782" data-name="Path 782" d="M300.851,701.214a54.769,54.769,0,0,1-2.719,11.343l-1.837-.774a43.426,43.426,0,0,0,2.665-10.569h-2.233v-1.747h2.449c.09-.882.162-1.746.2-2.574l1.962.071c-.071.811-.144,1.657-.252,2.5h3.656v1.747Zm2.718,6.518a4.184,4.184,0,0,0-.432,1.674c0,.81.828,1.1,2.467,1.1a9.955,9.955,0,0,0,2.143-.215v1.836a17.036,17.036,0,0,1-2.125.126c-2.611,0-4.268-.7-4.268-2.467a6.8,6.8,0,0,1,.577-2.394Zm-1.422-4.97a30.518,30.518,0,0,1,3.709-.252c.612,0,1.224.018,1.692.054v1.711a18.24,18.24,0,0,0-1.854-.09,21,21,0,0,0-3.421.324Zm3.907-2.881a9.24,9.24,0,0,0-1.35-2.088l.918-.7a12.587,12.587,0,0,1,1.386,2.07Zm1.35-3.781a11.6,11.6,0,0,1,1.423,2.053l-.954.72a10.324,10.324,0,0,0-1.369-2.07Z"/>
        <path id="Path_783" data-name="Path 783" d="M315.161,700.908c2.268,0,3.169,1.206,3.169,4.2a16.107,16.107,0,0,1-.865,6.032,2.083,2.083,0,0,1-2.089,1.44,7.2,7.2,0,0,1-2.07-.306l.126-1.854a3.918,3.918,0,0,0,1.53.324c.451,0,.613-.054.829-.414a13.577,13.577,0,0,0,.7-5.168c0-2.034-.324-2.5-1.4-2.5-.179,0-.378,0-.594.018a35.76,35.76,0,0,1-2.971,9.219l-1.71-.81a27.3,27.3,0,0,0,2.863-8.193,20.3,20.3,0,0,0-2.467.558l-.414-1.818a30.054,30.054,0,0,1,3.223-.558c.216-1.386.378-2.809.468-4.214l1.872.181c-.143,1.3-.323,2.592-.54,3.871Zm4.537-1.027a15.258,15.258,0,0,1,2.7,7.509l-1.837.468a13.473,13.473,0,0,0-2.4-7.058Z"/>
        <path id="Path_784" data-name="Path 784" d="M326.049,705.715a7.29,7.29,0,0,1,4.034-1.368A3.322,3.322,0,0,1,333.629,708c0,2.9-1.872,4.573-6.1,4.573a9.143,9.143,0,0,1-.936-.036l-.36-1.836c.468.036,1.081.071,1.477.071,2.844,0,4.015-.99,4.015-2.718a1.771,1.771,0,0,0-2-2.035c-1.278,0-2.647.72-4.069,2.3l-1.549-.612c0-3.925.415-6,1.549-7.833l1.728.667A8.962,8.962,0,0,0,326.049,705.715Zm-.936-7.166.576-1.746a36.7,36.7,0,0,1,6.356,1.854l-.594,1.764A27.357,27.357,0,0,0,325.113,698.549Z"/>
      </g>
    </g>
    <g id="Group_529" data-name="Group 529" transform="translate(-10 -65.83)">
      <circle id="Ellipse_28" data-name="Ellipse 28" cx="62" cy="62" r="62" transform="translate(687 932)" fill="#fff"/>
      <g id="Group_526" data-name="Group 526" transform="translate(557.216 300.28)">
        <path id="Path_785" data-name="Path 785" d="M178.737,675.423a25.483,25.483,0,0,1-3.637,4.321v9.831h-2.035v-7.994a25.241,25.241,0,0,1-4.231,2.917L167.7,682.8a25.244,25.244,0,0,0,9.416-8.516Z"/>
        <path id="Path_786" data-name="Path 786" d="M189.663,678.934l1.4.774c-.9,4.934-3.151,8.066-6.86,9.885l-1.279-1.638a9.244,9.244,0,0,0,5.762-7.2h-8.211v-1.818Zm.071-4.069v1.8h-7.85v-1.8Z"/>
        <path id="Path_787" data-name="Path 787" d="M203.288,675.423a25.436,25.436,0,0,1-3.637,4.321v9.831h-2.035v-7.994a25.241,25.241,0,0,1-4.231,2.917l-1.134-1.693a25.236,25.236,0,0,0,9.416-8.516Z"/>
        <path id="Path_788" data-name="Path 788" d="M214.214,678.934l1.4.774c-.9,4.934-3.151,8.066-6.86,9.885l-1.279-1.638a9.244,9.244,0,0,0,5.762-7.2h-8.211v-1.818Zm.072-4.069v1.8h-7.85v-1.8Z"/>
        <path id="Path_789" data-name="Path 789" d="M175.234,700.836v4.051a5.848,5.848,0,0,1,.091.99c0,3.511-.81,5.96-4.844,7.274l-.882-1.728c2.161-.576,3.1-1.423,3.511-2.7a2.977,2.977,0,0,1-1.188.234c-1.711,0-2.737-1.332-2.737-3.421,0-2.106,1.134-3.547,2.863-3.547a3.1,3.1,0,0,1,1.3.27l-.018-1.422h-6.014v-1.747h5.978c0-.828-.018-1.6-.036-2.251h1.98v2.251h3.457v1.747Zm-1.872,4.357c-.126-1.062-.594-1.441-1.242-1.441-.6,0-1.117.667-1.117,1.747,0,1.063.5,1.692,1.153,1.692.72,0,1.206-.792,1.206-1.692Z"/>
        <path id="Path_790" data-name="Path 790" d="M189.293,698.891c-1.08,1.152-2.9,3.421-3.853,4.628a3.934,3.934,0,0,1,1.548-.289c2.3,0,3.565,1.891,3.565,4.358,0,3.133-1.836,4.951-4.933,4.951-2.125,0-3.439-1.044-3.439-2.827a2.624,2.624,0,0,1,2.773-2.629q2.43,0,2.862,3.08a3.238,3.238,0,0,0,.883-2.521c0-1.711-.9-2.755-2.215-2.755a4.135,4.135,0,0,0-1.746.378,13.067,13.067,0,0,0-3.907,3.493l-1.315-1.458a67.488,67.488,0,0,0,6.572-7.671c-1.152.09-3.349.216-4.951.27l-.126-1.836a67.857,67.857,0,0,0,7.2-.4Zm-2.971,11.92c-.09-1.4-.576-2.143-1.368-2.143a.975.975,0,0,0-1.08,1.044c0,.721.5,1.153,1.62,1.153A6,6,0,0,0,186.322,710.811Z"/>
        <path id="Path_791" data-name="Path 791" d="M197.788,700.908c2.268,0,3.169,1.206,3.169,4.2a16.107,16.107,0,0,1-.865,6.032,2.083,2.083,0,0,1-2.089,1.44,7.2,7.2,0,0,1-2.07-.306l.126-1.854a3.918,3.918,0,0,0,1.53.324c.451,0,.613-.054.829-.414a13.577,13.577,0,0,0,.7-5.168c0-2.034-.324-2.5-1.4-2.5-.179,0-.378,0-.594.018a35.759,35.759,0,0,1-2.971,9.219l-1.71-.81a27.325,27.325,0,0,0,2.863-8.193,20.257,20.257,0,0,0-2.467.558l-.414-1.818a30.055,30.055,0,0,1,3.223-.558c.216-1.386.378-2.809.468-4.214l1.872.181c-.143,1.3-.323,2.592-.54,3.871Zm4.537-1.027a15.259,15.259,0,0,1,2.7,7.509l-1.837.468a13.473,13.473,0,0,0-2.395-7.058Z"/>
        <path id="Path_792" data-name="Path 792" d="M208.677,705.715a7.288,7.288,0,0,1,4.033-1.368A3.322,3.322,0,0,1,216.257,708c0,2.9-1.872,4.573-6.1,4.573a9.133,9.133,0,0,1-.936-.036l-.36-1.836c.468.036,1.08.071,1.476.071,2.845,0,4.016-.99,4.016-2.718a1.771,1.771,0,0,0-2-2.035c-1.278,0-2.647.72-4.069,2.3l-1.549-.612c0-3.925.414-6,1.549-7.833l1.728.667A8.962,8.962,0,0,0,208.677,705.715Zm-.936-7.166.576-1.746a36.7,36.7,0,0,1,6.356,1.854l-.594,1.764A27.357,27.357,0,0,0,207.741,698.549Z"/>
      </g>
    </g>
    <g id="Group_528" data-name="Group 528" transform="translate(50 62.17)">
      <circle id="Ellipse_27" data-name="Ellipse 27" cx="62" cy="62" r="62" transform="translate(561 932)" fill="#fff"/>
      <g id="Group_527" data-name="Group 527" transform="translate(571.612 300.793)">
        <path id="Path_793" data-name="Path 793" d="M24.945,674.883v8.427h-1.98v-8.427Zm6.194-.234v6.428c0,3.943-1.314,6.571-4.663,8.5l-1.387-1.584c3.151-1.6,4.034-3.691,4.034-6.986v-6.356Z"/>
        <path id="Path_794" data-name="Path 794" d="M42.695,678.934l1.4.774c-.9,4.934-3.151,8.066-6.861,9.885l-1.278-1.638a9.244,9.244,0,0,0,5.762-7.2H33.512v-1.818Zm.072-4.069v1.8h-7.85v-1.8Z"/>
        <path id="Path_795" data-name="Path 795" d="M47.121,679.294a24.362,24.362,0,0,1,1.278,3.817l-1.495.648a18.861,18.861,0,0,0-1.242-3.817Zm7.328.126c-.486,4.645-2.485,8.409-5.726,10.155L47.535,688.1c3.187-1.495,4.771-4.7,5.167-9Zm-4.592-.846a26.184,26.184,0,0,1,1.207,3.889l-1.513.648a20.7,20.7,0,0,0-1.134-3.925Z"/>
        <path id="Path_796" data-name="Path 796" d="M66.742,677.115c-1.062,6.428-3.241,10.263-7.472,12.55l-1.35-1.512c4.015-1.909,5.87-5.492,6.5-9.813H60.765a20.744,20.744,0,0,1-3.331,5.366l-1.549-1.117a20.252,20.252,0,0,0,4.466-8.751l1.854.505c-.2.7-.432,1.458-.72,2.214H65.3Z"/>
        <path id="Path_797" data-name="Path 797" d="M77.974,689.539a33.584,33.584,0,0,0-3.439-4.969,19.1,19.1,0,0,1-4.9,5.005l-1.333-1.512a17.568,17.568,0,0,0,7.436-10.66H69.4v-1.8h7.383l1.368.63a25.843,25.843,0,0,1-2.539,6.608,58.366,58.366,0,0,1,4.142,5.546Z"/>
        <path id="Path_798" data-name="Path 798" d="M22.542,697.325c-.215,3.817-.306,7.706-.306,9.381,0,3.078.685,3.871,2.305,3.871s2.863-1.009,3.745-4.5l1.783.828c-1.315,4.358-3.187,5.618-5.564,5.618-2.862,0-4.159-1.62-4.159-5.762,0-1.692.09-5.653.144-9.434Z"/>
        <path id="Path_799" data-name="Path 799" d="M36.007,701.034a57.464,57.464,0,0,1-2.755,11.523l-1.837-.774A43.139,43.139,0,0,0,34.1,701.034H31.847v-1.765h2.467c.072-.81.144-1.62.18-2.376l1.963.071c-.054.757-.144,1.531-.234,2.3H39.86v1.765Zm2.682,6.7a4.184,4.184,0,0,0-.432,1.674c0,.81.828,1.1,2.467,1.1a9.955,9.955,0,0,0,2.143-.215v1.836a17.036,17.036,0,0,1-2.125.126c-2.611,0-4.267-.7-4.267-2.467a6.792,6.792,0,0,1,.576-2.394Zm-1.422-5.042a27.234,27.234,0,0,1,3.709-.27c.612,0,1.224.018,1.692.054V704.2a14.18,14.18,0,0,0-1.854-.09,17.647,17.647,0,0,0-3.421.324Z"/>
        <path id="Path_800" data-name="Path 800" d="M47.688,699.341a34.241,34.241,0,0,0-.252,3.889c0,4.034.846,6.392,1.512,6.392.4,0,.792-.936,1.027-2.772l1.656.774c-.522,3.079-1.4,4.321-2.611,4.321-1.656,0-3.475-2.7-3.475-8.661,0-1.242.054-2.664.162-4.1Zm6.374-.648c2.178,2.9,2.646,6.23,2.718,10.209l-2.034.2c.018-3.853-.36-6.86-2.323-9.4Z"/>
        <path id="Path_801" data-name="Path 801" d="M63.96,700.908c2.269,0,3.169,1.206,3.169,4.2a16.112,16.112,0,0,1-.864,6.032,2.083,2.083,0,0,1-2.089,1.44,7.2,7.2,0,0,1-2.07-.306l.126-1.854a3.918,3.918,0,0,0,1.53.324c.45,0,.613-.054.829-.414a13.577,13.577,0,0,0,.7-5.168c0-2.034-.324-2.5-1.4-2.5-.18,0-.378,0-.594.018a35.759,35.759,0,0,1-2.971,9.219l-1.71-.81a27.325,27.325,0,0,0,2.863-8.193,20.257,20.257,0,0,0-2.467.558l-.414-1.818a30.012,30.012,0,0,1,3.223-.558c.216-1.386.378-2.809.468-4.214l1.872.181c-.143,1.3-.324,2.592-.54,3.871Zm4.538-1.027a15.268,15.268,0,0,1,2.7,7.509l-1.837.468a13.482,13.482,0,0,0-2.395-7.058Z"/>
        <path id="Path_802" data-name="Path 802" d="M74.85,705.715a7.285,7.285,0,0,1,4.033-1.368A3.323,3.323,0,0,1,82.43,708c0,2.9-1.873,4.573-6.1,4.573a9.114,9.114,0,0,1-.936-.036l-.361-1.836c.469.036,1.081.071,1.477.071,2.845,0,4.015-.99,4.015-2.718a1.771,1.771,0,0,0-2-2.035c-1.278,0-2.646.72-4.069,2.3l-1.548-.612c0-3.925.414-6,1.548-7.833l1.729.667A8.955,8.955,0,0,0,74.85,705.715Zm-.937-7.166.576-1.746a36.649,36.649,0,0,1,6.356,1.854l-.594,1.764A27.328,27.328,0,0,0,73.913,698.549Z"/>
      </g>
    </g>
    <g id="Group_534" data-name="Group 534" transform="translate(795.055 -1282.305)">
      <g id="Group_533" data-name="Group 533" transform="translate(14.944 2297.065)">
        <path id="Path_803" data-name="Path 803" d="M104.7,2350.09c3.082-.229,5.883-.874,8.564-.544a11.235,11.235,0,0,1,9.411,10.026c.289,2.868.206,5.778.212,8.67.022,10.326-.049,20.653.028,30.978.053,7.018-2.48,12.588-8.431,16.529a9.917,9.917,0,0,0-4.592,8.747q.007,9.739-.009,19.479c-.011,3.355-1.179,4.588-4.478,4.592q-28.86.031-57.718,0c-3.215,0-4.384-1.213-4.395-4.392-.023-6.649-.045-13.3-.006-19.948a11.371,11.371,0,0,0-2.087-6.294c-5.219-8.34-10.272-16.786-15.3-25.244-3.034-5.1-5.684-10.449-8.907-15.426-4.5-6.942-1.375-13.421,7.21-15.125a15.311,15.311,0,0,1,14.585,4.521c2.024,2.058,3.915,4.246,6.153,6.688v-32.833H42.308c-4.38,0-8.76.04-13.139-.017-3.495-.045-5.537-2.085-5.585-5.56-.055-3.832-.042-7.667-.006-11.5.035-3.7,2.06-5.774,5.838-5.845,4.3-.081,8.6-.021,12.9-.022h2.7c.548-4.985,2.658-8.935,7.081-11.267,4.39-2.314,8.742-1.9,13.059.778,3.782-5.583,8.95-8.208,15.5-5.9,7.511,2.649,9.211,8.909,8.558,16.477h43.993c6.627,0,8.049,1.444,8.049,8.167,0,2.816.026,5.632-.008,8.448-.052,4.368-1.966,6.287-6.327,6.293q-21.351.024-42.7.007H89.381v4.07C96.242,2342.5,101.427,2344.544,104.7,2350.09Zm-1.851,91.345c0-5.671.042-11.055-.011-16.438a17.174,17.174,0,0,1,7.991-15.284,10.607,10.607,0,0,0,5-9.274q.049-19.359-.007-38.717c-.014-3.363-1.987-5.389-4.9-5.376-2.949.014-4.77,2.035-4.8,5.431-.035,3.911.021,7.823-.022,11.733-.029,2.691-1.452,4.286-3.643,4.225-2.131-.058-3.362-1.539-3.375-4.189-.025-5.474.017-10.949-.03-16.425a10.044,10.044,0,0,0-.482-3.214,4.759,4.759,0,0,0-5.022-3.052,4.957,4.957,0,0,0-4.2,4.158,15.137,15.137,0,0,0-.061,2.109c0,5.553.118,11.112-.1,16.656a5,5,0,0,1-2.049,3.521,3.857,3.857,0,0,1-3.57-.5,5.091,5.091,0,0,1-1.272-3.519c-.1-10.01-.055-20.022-.056-30.035v-2.533H70.719v2.652q0,14.432,0,28.863a18.176,18.176,0,0,1-.109,2.573,3.136,3.136,0,0,1-3.161,2.9,3.171,3.171,0,0,1-3.582-2.678,13.462,13.462,0,0,1-.177-2.8q-.02-26.165-.024-52.328a25.059,25.059,0,0,0-.113-3.043,5.679,5.679,0,0,0-4.68-4.905,5.3,5.3,0,0,0-5.708,2.793,10.987,10.987,0,0,0-.928,4.49q-.086,30.856-.029,61.713c0,2.092.059,4.182-2.364,5.079-2.439.9-3.738-.806-5.112-2.341-3.495-3.9-6.977-7.819-10.529-11.67a9.2,9.2,0,0,0-10.473-2.419c-1.62.706-2.1,1.556-1.105,3.238,2.746,4.637,5.28,9.4,8.052,14.023,5.783,9.641,11.776,19.158,17.423,28.877a17.591,17.591,0,0,1,2.094,7.527c.326,5.221.121,10.475.135,15.715,0,.815,0,1.63,0,2.458Zm15.829-116.529H70.852v8.415h47.826Zm-73.615-.132H30.738v8.538H45.063Zm37.144-7.242c0-3.568.735-7.07-2.812-9.266a5.807,5.807,0,0,0-6.382.34c-3.04,2.39-2.158,5.679-2.265,8.926Zm51.862,15.862v-8.545h-8.1v8.545Z" transform="translate(-14.944 -2300.341)" fill="#94c20c"/>
      </g>
      <path id="Path_804" data-name="Path 804" d="M89.487,2267.865c-1.746.027-3.173.6-3.2,2.615-.03,2.138,1.437,2.782,3.285,2.786,6.882.017,13.766.008,20.648.01.7,0,1.41-.029,2.111.016a3.437,3.437,0,0,1,3.493,3.367,3.352,3.352,0,0,1-3.083,3.544,28.686,28.686,0,0,1-4.213.11c-6.492.006-12.984.066-19.475-.028a9.633,9.633,0,0,1-9.409-6.788,9.054,9.054,0,0,1,3.252-10.45A16.675,16.675,0,0,1,89.4,2260.9c2.291-.36,4.683-.031,7.026-.11,2.726-.091,4.425-1.727,4.445-4.13a4.094,4.094,0,0,0-4.36-4.24c-7.429-.074-14.873-.28-22.283.105A15.738,15.738,0,0,0,59.15,2267.9c-.3,8.749,6.322,16.844,14.882,18.106a33.958,33.958,0,0,0,4.9.337q29.447.032,58.894.015c6.059,0,7.778,1.518,9.125,7.411a2.919,2.919,0,0,0,5.588.623c1.621-3.363.19-9.65-2.848-11.826a12.141,12.141,0,0,0-5.974-2.154c-4.751-.31-9.537-.042-14.305-.143a4.826,4.826,0,0,1-3.213-.976,3.373,3.373,0,0,1,1.925-5.889,158.544,158.544,0,0,1,18.051.071c7.358.6,13.083,7.079,13.685,14.743a37.516,37.516,0,0,1,.01,5.861,10.067,10.067,0,0,1-19.887,1.4c-.139-.6-.207-1.213-.352-2.081l-64.079.035a24.066,24.066,0,1,1,0-48.131l20.723.034.359.009a11.309,11.309,0,0,1,0,22.619Z" transform="translate(-2.176)" fill="#94c20c"/>
    </g>
  </g>
</svg>
