<svg xmlns="http://www.w3.org/2000/svg" width="96.189" height="83.598" viewBox="0 0 96.189 83.598">
  <g id="Group_149" data-name="Group 149" transform="translate(826.096 -1969.8)">
    <g id="Group_148" data-name="Group 148">
      <g id="Group_145" data-name="Group 145">
        <path id="Path_235" data-name="Path 235" d="M-818.028,2040.811a1.493,1.493,0,0,1-.484-.081l-6.568-2.238a1.5,1.5,0,0,1-.936-1.9,1.5,1.5,0,0,1,1.9-.937l6.568,2.239a1.5,1.5,0,0,1,.936,1.9A1.5,1.5,0,0,1-818.028,2040.811Z" fill="#94c20c"/>
        <path id="Path_236" data-name="Path 236" d="M-814.516,2034.233a1.5,1.5,0,0,1-1.061-.439l-4.987-4.987a1.5,1.5,0,0,1,0-2.121,1.5,1.5,0,0,1,2.121,0l4.987,4.987a1.5,1.5,0,0,1,0,2.121A1.491,1.491,0,0,1-814.516,2034.233Z" fill="#94c20c"/>
        <path id="Path_237" data-name="Path 237" d="M-807.939,2030.722a1.5,1.5,0,0,1-1.42-1.017l-2.238-6.567a1.5,1.5,0,0,1,.936-1.9,1.5,1.5,0,0,1,1.9.937l2.237,6.567a1.5,1.5,0,0,1-.936,1.9A1.508,1.508,0,0,1-807.939,2030.722Z" fill="#94c20c"/>
      </g>
      <g id="Group_147" data-name="Group 147">
        <g id="Group_146" data-name="Group 146">
          <path id="Path_238" data-name="Path 238" d="M-760.9,2012.551a6.664,6.664,0,0,1-4.726-1.954l-5.078-5.077a6.692,6.692,0,0,1,0-9.453l8.187-8.186a6.638,6.638,0,0,1,4.726-1.958,6.638,6.638,0,0,1,4.726,1.958l5.077,5.077a6.691,6.691,0,0,1,0,9.452l-8.187,8.187A6.665,6.665,0,0,1-760.9,2012.551Zm3.109-23.628a3.66,3.66,0,0,0-2.6,1.079l-8.188,8.186a3.689,3.689,0,0,0,0,5.21l5.078,5.078a3.69,3.69,0,0,0,5.209,0l8.187-8.187a3.689,3.689,0,0,0,0-5.21l-5.078-5.077A3.66,3.66,0,0,0-757.791,1988.923Z" fill="#94c20c"/>
          <path id="Path_239" data-name="Path 239" d="M-797.57,2047.1a1.5,1.5,0,0,1-1.061-.439l-8.141-8.142a1.5,1.5,0,0,1,0-2.121l17.662-17.661a3.982,3.982,0,0,0,1.147-2.453l.589-6.561h0a17.2,17.2,0,0,1,4.962-10.609l27.279-27.279a6.978,6.978,0,0,1,9.859,0l13.328,13.328a6.98,6.98,0,0,1,0,9.859l-27.279,27.279a17.206,17.206,0,0,1-10.608,4.962l-6.562.589a3.988,3.988,0,0,0-2.454,1.147l-17.661,17.662A1.5,1.5,0,0,1-797.57,2047.1Zm-6.02-9.641,6.02,6.02,16.6-16.6a6.989,6.989,0,0,1,4.307-2.014l6.561-.59a14.2,14.2,0,0,0,8.756-4.094l27.279-27.279a3.977,3.977,0,0,0,0-5.617L-747.4,1973.96a3.974,3.974,0,0,0-5.616,0l-27.279,27.279a14.2,14.2,0,0,0-4.095,8.755l-.589,6.562a6.979,6.979,0,0,1-2.014,4.306Z" fill="#94c20c"/>
          <path id="Path_240" data-name="Path 240" d="M-806.252,2053.4a7.231,7.231,0,0,1-5.131-2.122,7.265,7.265,0,0,1,0-10.262l4.611-4.612a1.5,1.5,0,0,1,1.061-.439h0a1.5,1.5,0,0,1,1.06.439l8.141,8.142a1.5,1.5,0,0,1,0,2.121l-4.611,4.611A7.237,7.237,0,0,1-806.252,2053.4Zm.541-13.814-3.551,3.551a4.263,4.263,0,0,0,0,6.02,4.264,4.264,0,0,0,6.02,0l3.551-3.551Z" fill="#94c20c"/>
          <path id="Path_241" data-name="Path 241" d="M-738.375,2000.779a1.5,1.5,0,0,1-1.464-1.176,26.8,26.8,0,0,0-7.369-12.5,26.826,26.826,0,0,0-12.5-7.371,1.5,1.5,0,0,1-1.142-1.788,1.494,1.494,0,0,1,1.788-1.141,29.45,29.45,0,0,1,13.976,8.178,29.443,29.443,0,0,1,8.178,13.976,1.5,1.5,0,0,1-1.142,1.788A1.445,1.445,0,0,1-738.375,2000.779Z" fill="#94c20c"/>
        </g>
        <path id="Path_242" data-name="Path 242" d="M-774.928,2020.311a5.456,5.456,0,0,1-3.882-1.609,5.45,5.45,0,0,1-1.607-3.882,5.454,5.454,0,0,1,1.607-3.882,5.455,5.455,0,0,1,3.882-1.608,5.457,5.457,0,0,1,3.883,1.608h0a5.454,5.454,0,0,1,1.607,3.882,5.45,5.45,0,0,1-1.607,3.882A5.456,5.456,0,0,1-774.928,2020.311Zm0-7.981a2.469,2.469,0,0,0-1.76.73,2.468,2.468,0,0,0-.729,1.76,2.473,2.473,0,0,0,.729,1.761,2.549,2.549,0,0,0,3.521,0,2.473,2.473,0,0,0,.729-1.761,2.468,2.468,0,0,0-.729-1.76h0A2.47,2.47,0,0,0-774.928,2012.33Z" fill="#94c20c"/>
      </g>
    </g>
  </g>
</svg>
