<svg xmlns="http://www.w3.org/2000/svg" width="186" height="186" viewBox="0 0 186 186">
  <g id="Group_462" data-name="Group 462" transform="translate(-1105 -2566)">
    <circle id="楕円形_10" data-name="楕円形 10" cx="93" cy="93" r="93" transform="translate(1105 2566)" fill="#fff"/>
    <g id="グループ_121" data-name="グループ 121" transform="translate(130.334 1518)">
      <g id="パス_176" data-name="パス 176">
        <path id="Path_199" data-name="Path 199" d="M1092.806,1180.7l-.112-.037c-.34-.085-.676-.169-1.02-.241a12.2,12.2,0,0,1-5.911-3.026,1.556,1.556,0,0,0-1.092-.441l-13.391.006q-10.34,0-20.677.016h0a3.17,3.17,0,0,1-3.055-2.112,4.341,4.341,0,0,1-.167-1.169c-.025-1.134-.018-2.264,0-3.394,0-.469-.227-.7-.673-.7-.281.005-.531.006-.78.006l-1.536-.005c-.373,0-.746,0-1.119.011l-.115,0a3.178,3.178,0,0,1-3.188-3.082c0-.065,0-.134,0-.2q.03-30.894.005-61.763a3.192,3.192,0,0,1,2.523-3.235,2.086,2.086,0,0,1,.334-.027l.129.005H1089.1a3.017,3.017,0,0,1,2.947,2.753c.046,1.225.039,2.463.025,3.837,0,.537.243.785.765.785.562-.009,1.092-.012,1.622-.012l1.936,0a3.074,3.074,0,0,1,2.913,2.088,3.12,3.12,0,0,1,.185,1.085q.021,8.1.008,16.211a1.287,1.287,0,0,1-1.13,1.433c-.045,0-.09.007-.134.007a1.312,1.312,0,0,1-.242-.023,1.211,1.211,0,0,1-1-1.025c-.02-.194-.019-.4-.019-.608v-15.673c0-.8-.17-.966-.962-.966h-3.085c-.715,0-.85.139-.85.876v42.613a1,1,0,0,0,.02.419c.1.21.315.479.573.479a13.551,13.551,0,0,1,1.5-.086,12.862,12.862,0,0,1,2.073.17.962.962,0,0,0,.177.017.509.509,0,0,0,.5-.319,1.133,1.133,0,0,0,.053-.422q0-6.214-.008-12.423a1.384,1.384,0,0,1,.478-1.225,1.176,1.176,0,0,1,.765-.283,1.2,1.2,0,0,1,.521.122,1.287,1.287,0,0,1,.754,1.1,3.65,3.65,0,0,1,.012.442q0,6.654-.008,13.289a.987.987,0,0,0,.625.995,12.588,12.588,0,0,1,.266,22.157,11.6,11.6,0,0,1-4.41,1.459,2.328,2.328,0,0,0-.426.134Zm1.445-22.668a10.071,10.071,0,1,0,10.1,10.041,10.1,10.1,0,0,0-10.081-10.041Zm-43.586,11.562a.667.667,0,0,0-.776.791c.017.732.014,1.466.01,2.2l0,.956c0,.731.168.9.9.9h32.337v-.376l-.036-.07a11.653,11.653,0,0,1-1.245-3.637.774.774,0,0,0-.88-.764q-6.094.015-12.175.013l-6.225,0q-5.955,0-11.908-.009Zm-7.188-65.769c-.837,0-.973.136-.973.971v61.319c0,.82.142.963.949.963,0,0,32.325,0,37.493.005a.694.694,0,0,0,.793-.637,18.877,18.877,0,0,1,.79-3,12.269,12.269,0,0,1,6.432-6.77.929.929,0,0,0,.6-.986q-.006-25.413-.005-50.9c0-.831-.137-.966-.974-.966Z" fill="#8cb80c"/>
      </g>
      <g id="パス_177" data-name="パス 177">
        <path id="Path_200" data-name="Path 200" d="M1098.187,1136.506a1.2,1.2,0,0,1-1.2-1.177,1.283,1.283,0,0,1,1.245-1.337,1.312,1.312,0,0,1,1.267,1.282,1.262,1.262,0,0,1-1.258,1.232Z" fill="#8cb80c"/>
      </g>
      <g id="パス_178" data-name="パス 178">
        <path id="Path_201" data-name="Path 201" d="M1066.414,1133.9a1.3,1.3,0,0,1-.795-.268,1.4,1.4,0,0,1-.234-.233l-11.025-11.021c-.163-.164-.311-.343-.461-.521s-.3-.358-.462-.526a1.046,1.046,0,0,0-.635-.307c-.3-.011-.588-.013-.872-.013h-1.15a1.269,1.269,0,0,1-1.317-1.216,1.261,1.261,0,0,1,1.216-1.306h1.306l-.047-.341c-.581-4.257.856-7.358,4.269-9.214a8.611,8.611,0,0,1,4.121-1.13,9.109,9.109,0,0,1,5.9,2.453l.2.166.194-.166a9.035,9.035,0,0,1,5.883-2.418,9.173,9.173,0,0,1,4.02,1,7.909,7.909,0,0,1,3.721,3.882,8.594,8.594,0,0,1,.635,5.362l-.066.325.331.033a4.668,4.668,0,0,1,.524.084,1.261,1.261,0,0,1-.3,2.485l-.81,0c-.167,0-.333,0-.5.009h0a.9.9,0,0,0-.551.2c-.536.549-1.04,1.076-1.543,1.6-.735.769-1.47,1.538-2.219,2.294q-4.113,4.135-8.26,8.24A1.333,1.333,0,0,1,1066.414,1133.9Zm-9.26-12.3a1.231,1.231,0,0,0,.1.123q4.36,4.355,8.714,8.708a.63.63,0,0,0,.448.219.669.669,0,0,0,.482-.265l8.518-8.508c.078-.076.13-.135.2-.212l.525-.588-.793-.048c-.114-.007-.2-.013-.292-.013l-1.379,0-.7,0a1.353,1.353,0,0,1-1.046-.453c-.175-.193-.8-.9-.8-.9-.2-.221-1.1-1.215-1.1-1.215l-.3.4c-.073.092-.131.168-.185.247l-2.438,3.567a1.22,1.22,0,0,1-1.038.579,1.4,1.4,0,0,1-1.195-.711c-.34-.505-.667-.986-.995-1.465-.462-.677-.924-1.354-1.378-2.036a.611.611,0,0,0-.48-.328.626.626,0,0,0-.459.267c-.3.353-.61.7-.917,1.045l-.419.473a1.437,1.437,0,0,1-1.125.543c-.3-.011-.527-.014-.759-.014l-1.619.006Zm4.985-6.536a1.139,1.139,0,0,1,.531.132,2.592,2.592,0,0,1,.79.778c.584.817,1.136,1.636,1.7,2.479l.836,1.236.361-.459a3.176,3.176,0,0,0,.208-.277l.674-.989q.714-1.047,1.423-2.1a1.343,1.343,0,0,1,1.208-.79,1.3,1.3,0,0,1,.557.125,1.321,1.321,0,0,1,.54.473c.747.856,1.474,1.671,2.211,2.48a.966.966,0,0,0,.594.322c.8.013,1.571.013,2.337.013l1.53,0a.6.6,0,0,0,.63-.494,5.921,5.921,0,0,0-8.658-6.788,14.229,14.229,0,0,0-2.189,1.862,1.314,1.314,0,0,1-1.863.153,1.59,1.59,0,0,1-.142-.142l-.4-.4c-.271-.271-.542-.54-.822-.8a5.938,5.938,0,0,0-9.693,5.944.747.747,0,0,0,.8.662c.475-.011.913-.015,1.349-.015q.726,0,1.448.014h0a1.058,1.058,0,0,0,.874-.423c.714-.827,1.452-1.663,2.2-2.49A1.161,1.161,0,0,1,1062.139,1115.062Z" fill="#8cb80c"/>
      </g>
      <g id="パス_179" data-name="パス 179">
        <path id="Path_202" data-name="Path 202" d="M1047.937,1163.031a1.32,1.32,0,0,1-1.386-1.22.945.945,0,0,1,0-.151c-.006-2.53-.006-5.043,0-7.554a1.307,1.307,0,0,1,.326-.959,1.29,1.29,0,0,1,.9-.432s2.68-.007,3.936-.007,2.512,0,3.768.007l.114,0a1.3,1.3,0,0,1,1.289,1.2,1.351,1.351,0,0,1,0,.191c0,.959,0,7.519,0,7.519a1.31,1.31,0,0,1-.307.962,1.279,1.279,0,0,1-.882.446l-.1,0Zm1.757-7.8a.643.643,0,0,0-.465.163.655.655,0,0,0-.154.492c0,.431,0,.863,0,1.3v1.358c0,.441,0,.883,0,1.323s.209.649.622.649c.679-.005,1.349-.007,2.019-.007s2.009.007,2.009.007a.656.656,0,0,0,.479-.161.646.646,0,0,0,.158-.476q-.013-2.01,0-4.02a.548.548,0,0,0-.6-.624c-.683.005-1.359.008-2.034.008S1049.694,1155.23,1049.694,1155.23Z" fill="#8cb80c"/>
      </g>
      <g id="パス_180" data-name="パス 180">
        <path id="Path_203" data-name="Path 203" d="M1055.449,1147.461c-.527-.023-1.049-.028-1.571-.028l-2.191.012-2.273-.01c-.495,0-.99,0-1.485.019h0a1.346,1.346,0,0,1-1.389-1.289v-.113c.018-1.717.016-3.424.013-5.131l0-2.262a1.328,1.328,0,0,1,1.141-1.5,1.272,1.272,0,0,1,.163-.01,1.161,1.161,0,0,1,.165.011l6.531,0,.843,0c.09-.008.142-.011.194-.011a1.305,1.305,0,0,1,1.293,1.153,1.276,1.276,0,0,1,0,.309l-.006,2.134c-.006,1.749-.011,3.5.017,5.248a1.358,1.358,0,0,1-1.256,1.469l-.1,0Zm-1.726-2.54a.563.563,0,0,0,.631-.637q-.014-1.991,0-3.977a.572.572,0,0,0-.631-.638c-.678,0-1.34.007-2,.007s-1.989-.007-1.989-.007a.679.679,0,0,0-.5.171.667.667,0,0,0-.165.5q.016,1.968,0,3.935a.575.575,0,0,0,.65.648l.661,0Z" fill="#8cb80c"/>
      </g>
      <g id="パス_181" data-name="パス 181">
        <path id="Path_204" data-name="Path 204" d="M1072.224,1156.012l-9.822,0a1.265,1.265,0,0,1-.159-2.519,2.466,2.466,0,0,1,.261-.009h19.411l.133-.005a1.322,1.322,0,0,1,1.115.608,1.255,1.255,0,0,1-1.028,1.92c-.46.011-.919.013-1.379.013Z" fill="#8cb80c"/>
      </g>
      <g id="パス_182" data-name="パス 182">
        <path id="Path_205" data-name="Path 205" d="M1062.446,1140.458a1.372,1.372,0,0,1-1.172-.651,1.226,1.226,0,0,1,.782-1.82,2.819,2.819,0,0,1,.608-.066l9.576,0,9.551,0c.094-.009.151-.013.208-.013a1.4,1.4,0,0,1,1.228.73,1.238,1.238,0,0,1-.93,1.777,5.018,5.018,0,0,1-.568.031h-19.082A1.949,1.949,0,0,1,1062.446,1140.458Z" fill="#8cb80c"/>
      </g>
      <g id="パス_183" data-name="パス 183">
        <path id="Path_206" data-name="Path 206" d="M1062.463,1146.7a1.447,1.447,0,0,1-1.026-.423,1.232,1.232,0,0,1,.654-2.055,2.817,2.817,0,0,1,.557-.056h19.142c.094-.009.15-.013.207-.013a1.391,1.391,0,0,1,1.223.731,1.24,1.24,0,0,1-.551,1.657,1.2,1.2,0,0,1-.379.12,5.367,5.367,0,0,1-.588.031l-19.056,0C1062.563,1146.7,1062.514,1146.7,1062.463,1146.7Z" fill="#8cb80c"/>
      </g>
      <g id="パス_184" data-name="パス 184">
        <path id="Path_207" data-name="Path 207" d="M1062.39,1162.267a1.26,1.26,0,0,1-1.21-.9,1.236,1.236,0,0,1,.787-1.568,1.276,1.276,0,0,1,.363-.062c.585-.01,1.172-.012,1.759-.012l5.146.006h6.758a1.262,1.262,0,0,1,.389,2.475,1.377,1.377,0,0,1-.209.041c-.084.008-.174.008-.265.008h-13.367C1062.472,1162.265,1062.431,1162.267,1062.39,1162.267Z" fill="#8cb80c"/>
      </g>
      <g id="パス_185" data-name="パス 185">
        <path id="Path_208" data-name="Path 208" d="M1093.177,1172.1a1.208,1.208,0,0,1-.781-.286c-.841-.679-1.656-1.381-2.469-2.086a1.1,1.1,0,0,1-.44-.9,1.254,1.254,0,0,1,.326-.911,1.227,1.227,0,0,1,.86-.4h.007a1.277,1.277,0,0,1,.74.211,9.433,9.433,0,0,1,1.047.857.732.732,0,0,0,.486.228.72.72,0,0,0,.543-.321c.939-1.14,1.89-2.271,2.84-3.4l.332-.395a1.284,1.284,0,0,1,1.554-.5,1.224,1.224,0,0,1,.7.635,1.209,1.209,0,0,1,.042.933,1.254,1.254,0,0,1-.219.376c-.485.615-.984,1.206-1.483,1.8l-2.888,3.439c-.107.127-.195.232-.292.328A1.227,1.227,0,0,1,1093.177,1172.1Z" fill="#8cb80c"/>
      </g>
    </g>
  </g>
</svg>
