<svg xmlns="http://www.w3.org/2000/svg" width="186" height="186" viewBox="0 0 186 186">
  <g id="Group_457" data-name="Group 457" transform="translate(-457 -2242)">
    <circle id="楕円形_5" data-name="楕円形 5" cx="93" cy="93" r="93" transform="translate(457 2242)" fill="#fff"/>
    <g id="グループ_124" data-name="グループ 124" transform="translate(130.334 1518)">
      <g id="パス_149" data-name="パス 149">
        <path id="Path_216" data-name="Path 216" d="M424.408,856.892q-.591,0-1.182-.038a16.642,16.642,0,0,1-5.491-1.338,18.658,18.658,0,0,1-9.019-8.356,20.615,20.615,0,0,1-1.908-4.968,27.307,27.307,0,0,1-.6-6.9c0-.365-.093-.616-.549-.668a3.9,3.9,0,0,1-3.318-2.636,8.242,8.242,0,0,1-.532-3.211l-.006-.892c-.007-.722-.013-1.444.02-2.165a.66.66,0,0,0-.109-.49.669.669,0,0,0-.431-.281,19.36,19.36,0,0,1-4.344-1.68,20.909,20.909,0,0,1-9.257-9.251,18,18,0,0,1-1.914-6.346,2.13,2.13,0,0,0-.164-.465l.005-4.685,1.566-.008c.278,0,.554,0,.831.008h.009a.57.57,0,0,0,.422-.118.55.55,0,0,0,.116-.414c-.015-.854-.013-1.708-.01-2.562l0-15.757a7.388,7.388,0,0,1,2.4-5.73,6.578,6.578,0,0,1,3.065-1.63,1.1,1.1,0,0,0,.888-.711,4.32,4.32,0,0,1,3.909-2.495,4.272,4.272,0,0,1,1.8.4,4.313,4.313,0,1,1-5.64,5.908c-.139-.266-.291-.386-.495-.386a.881.881,0,0,0-.346.09,4.552,4.552,0,0,0-2.826,3.883,5.37,5.37,0,0,0-.02.609q0,9.135-.013,18.276c0,.474.158.642.6.642.521-.012.981-.016,1.442-.016l1.849.006c.547,0,.547,0,.562.535l.024,1c.02.991.042,2.016.144,3.015a10.527,10.527,0,0,0,1.605,4.405,11.171,11.171,0,0,0,4.934,4.423,13.431,13.431,0,0,0,8.753.984,13.3,13.3,0,0,0,4.2-1.647,11.639,11.639,0,0,0,4.529-5.283,12.864,12.864,0,0,0,1.017-4.972c.019-.716.018-1.438,0-2.158a.355.355,0,0,1,.053-.251.311.311,0,0,1,.227-.057c.207.006.375.008.542.008l.86-.006c.221,0,.442,0,.662.014h.015a.6.6,0,0,0,.463-.125.635.635,0,0,0,.127-.482q-.034-5.144-.053-10.288L423.8,785.1a21.753,21.753,0,0,0-.078-2.335,4.336,4.336,0,0,0-2.866-3.691.57.57,0,0,0-.221-.05.5.5,0,0,0-.414.3,4.268,4.268,0,0,1-7.994-2.771,4.259,4.259,0,0,1,7.807-1.378,4.176,4.176,0,0,1,.226.417,1.161,1.161,0,0,0,.879.717,7.105,7.105,0,0,1,4.78,4.089,7.8,7.8,0,0,1,.621,3.267q.046,9.1.058,18.2c0,.414.09.654.553.654.4-.019.714-.024,1.024-.024l1.332.011a.491.491,0,0,1,.03.1,34.146,34.146,0,0,1-.284,6.067,19.238,19.238,0,0,1-2.876,7.254,21.029,21.029,0,0,1-9.079,7.763c-.793.36-1.637.646-2.454.923-.307.1-.613.207-.917.315-.333.118-.608.258-.6.77.038,1.607.027,2.905-.033,4.088a5.8,5.8,0,0,1-1.092,3.28,3.73,3.73,0,0,1-2.582,1.543c-.651.089-.7.15-.672.8.019.42.034.841.048,1.263.045,1.238.09,2.518.239,3.768a14.242,14.242,0,0,0,1.383,4.447,16.056,16.056,0,0,0,8.049,8.045,13.851,13.851,0,0,0,7.792,1.1,14.87,14.87,0,0,0,9.553-5.435,17.022,17.022,0,0,0,3.338-6.335,19.5,19.5,0,0,0,.7-5.435q.009-13.9-.006-27.8a14.176,14.176,0,0,1,1.083-5.752,12.983,12.983,0,0,1,6.115-6.636,11.261,11.261,0,0,1,5.163-1.259,11.045,11.045,0,0,1,1.372.085,11.819,11.819,0,0,1,7.567,3.975,13.485,13.485,0,0,1,2.97,5.363,15.223,15.223,0,0,1,.548,4.058c.01.69.013,1.378,0,2.067-.007.314.066.524.451.6a10.248,10.248,0,0,1,7.682,6.413,9.461,9.461,0,0,1,.648,4.639,10.037,10.037,0,0,1-5.463,8,9.683,9.683,0,0,1-6.815.918,9.963,9.963,0,0,1-7.05-5.515,9.665,9.665,0,0,1-.81-6.423,9.864,9.864,0,0,1,5.8-7.3,15.407,15.407,0,0,1,2.393-.752c.277-.076.443-.191.429-.528a33.472,33.472,0,0,0-.186-4.09,9.892,9.892,0,0,0-6.4-8.177,9.07,9.07,0,0,0-10.648,3.43,11,11,0,0,0-2.1,6.528q.006,13.964,0,27.932a22.637,22.637,0,0,1-.858,6.568,19.9,19.9,0,0,1-4.865,8.328,18.037,18.037,0,0,1-5.335,3.8,16.153,16.153,0,0,1-4.387,1.358A18.522,18.522,0,0,1,424.408,856.892Zm-19.841-30.943c-.01.115-.019.223-.02.33l-.005.575c-.005.384-.01.768.005,1.153.036.761.082,1.578.178,2.4a1.578,1.578,0,0,0,1.576,1.549,1.451,1.451,0,0,0,.173-.009H408.7a1.159,1.159,0,0,0,.137.007,1.6,1.6,0,0,0,1.589-1.426,22.942,22.942,0,0,0,.172-4.477c0-.14-.239-.331-.38-.331-.958,0-1.92.011-2.883.023l-1.643.019c-.274,0-.495-.019-.732-.037l-.375-.029Zm58.941-11.868a7.434,7.434,0,1,0,.018,0Zm-74.615-8.83c-.093,0-.185.008-.271.016l-.188.012-.025.055a.716.716,0,0,0-.05.148l0,.367a16.236,16.236,0,0,0,1.077,5.412,17.711,17.711,0,0,0,5.43,7.415,19.453,19.453,0,0,0,10.6,4.322,20.439,20.439,0,0,0,9.8-1.363,18.922,18.922,0,0,0,6.357-4.161,16.821,16.821,0,0,0,4.928-9.273c.112-.628.171-1.26.234-1.929.028-.3.056-.6.09-.911l.012-.11-1.631.006c-.345,0-.681,0-1.016-.014h0c-.467,0-.561.22-.574.55a13.846,13.846,0,0,1-1.216,5.294,14.722,14.722,0,0,1-11.413,8.634,16.15,16.15,0,0,1-7.41-.459,14.44,14.44,0,0,1-7.02-4.408,14.015,14.015,0,0,1-3.591-9.006c-.014-.442-.174-.606-.591-.606-.524.011-1.011.014-1.5.014l-1.926-.005Zm27.495-29.41a1.542,1.542,0,0,0-1.517,1.569,1.506,1.506,0,0,0,1.494,1.523,1.574,1.574,0,0,0,1.605-1.559,1.6,1.6,0,0,0-1.579-1.533h0Zm-17.653,0a1.588,1.588,0,0,0-1.542,1.574,1.557,1.557,0,0,0,1.548,1.521,1.524,1.524,0,0,0,1.553-1.491,1.567,1.567,0,0,0-1.549-1.6Z" fill="#8cb80c"/>
      </g>
      <g id="パス_150" data-name="パス 150">
        <path id="Path_217" data-name="Path 217" d="M463.487,825.838a4.307,4.307,0,1,1,.018,0Zm.008-5.858a1.555,1.555,0,0,0-1.546,1.558,1.514,1.514,0,0,0,1.487,1.536h.058a1.576,1.576,0,0,0,1.565-1.535A1.631,1.631,0,0,0,463.495,819.98Z" fill="#8cb80c"/>
      </g>
    </g>
  </g>
</svg>
