<svg xmlns="http://www.w3.org/2000/svg" width="186" height="186" viewBox="0 0 186 186">
  <g id="Group_460" data-name="Group 460" transform="translate(-457 -2566)">
    <circle id="楕円形_8" data-name="楕円形 8" cx="93" cy="93" r="93" transform="translate(457 2566)" fill="#fff"/>
    <g id="グループ_123" data-name="グループ 123" transform="translate(130.334 1518)">
      <g id="パス_158" data-name="パス 158">
        <path id="Path_213" data-name="Path 213" d="M420.9,1174.206q-.859,0-1.719-.05a31.514,31.514,0,0,1-23.016-11.419,30.879,30.879,0,0,1-5.764-10.263c-.274-.8-.477-1.614-.674-2.4a.525.525,0,0,0-.515-.481l-.127.012q-3.7.016-7.409.014l-6.442,0c-1.371,0-1.768-.4-1.769-1.769V1136.8c0-1.281.376-1.652,1.676-1.653l10.644-.01c1.05,0,2.1.006,3.146.029a.946.946,0,0,0,.158.016.678.678,0,0,0,.664-.554l.015-.108a27.741,27.741,0,0,1,2.317-6.291,31.683,31.683,0,0,1,15.828-15.036,29.753,29.753,0,0,1,12.424-2.7,30.177,30.177,0,0,1,3.8.242c11.058,1.43,19.39,7.163,24.763,17.039a26.927,26.927,0,0,1,2.6,6.936c.086.38.245.444.677.444q3.57-.01,7.142-.009h5.494c1.3,0,1.5.136,1.9,1.324a17.2,17.2,0,0,1-.112,12.1,1.472,1.472,0,0,1-1.408,1.047,1.414,1.414,0,0,1-.144-.007l-6.33,0q-3.176,0-6.352-.017h0c-.618,0-.78.132-.937.749A31.411,31.411,0,0,1,445,1162.816a31.773,31.773,0,0,1-14.135,9.7A30.181,30.181,0,0,1,420.9,1174.206Zm-28.725-24.554a29.255,29.255,0,0,0,28.4,22.109,29.708,29.708,0,0,0,4.644-.369,28.586,28.586,0,0,0,18.163-10.455,28.277,28.277,0,0,0,5.7-11.32l-1.512,0c-.279,0-.962.007-.962.007-.141,0-.562-.013-.562-.013-.266,0-.276,0-.506.844a6.141,6.141,0,0,1-.284.8c-.048.117-.1.233-.139.352a25.985,25.985,0,0,1-21.39,16.769,26.685,26.685,0,0,1-10.982-1,1.651,1.651,0,0,1-1.175-.878,1.757,1.757,0,0,1,.291-1.525q5.22-8.986,10.4-17.991l13.565-23.508c.415-.719.826-1.054,1.294-1.054a1.55,1.55,0,0,1,1.015.493,25.9,25.9,0,0,1,7.513,11.806.786.786,0,0,0,.322.409c.522.024,1.048.03,1.574.03l1.44-.006c-.178-2.112-2.322-7.393-5.409-11.12a28.986,28.986,0,0,0-21.586-11q-.785-.042-1.556-.042c-14.74,0-25.876,11.228-28.231,22.166q.282,0,.564-.009c.27-.006.539-.012.807-.012.359,0,.715.011,1.069.043.063.006.122.009.178.009.464,0,.669-.187.845-.768a24.448,24.448,0,0,1,5.065-9.126,26.376,26.376,0,0,1,27.8-7.894,1.654,1.654,0,0,1,1.165.853,1.56,1.56,0,0,1-.251,1.347c-3.482,6.038-17.32,30-17.32,30l-6.877,11.888c-.4.692-.851.838-1.157.838a1.467,1.467,0,0,1-.966-.44,26.014,26.014,0,0,1-4.137-4.715,25.071,25.071,0,0,1-3.4-7.072c-.11-.372-.234-.485-.532-.485-.364.025-.631.032-.9.032l-1.257-.012c-.219,0-.435.014-.657.027Zm22.319,15.7a23.67,23.67,0,0,0,19.188-3.136,23.2,23.2,0,0,0,9.541-12.567l-.022,0a1.539,1.539,0,0,0-.2-.02q-9.537,0-19.073-.01l-.019-.2v.2a.616.616,0,0,0-.571.391q-3.539,6.155-7.072,12.242c-.5.868-1,1.741-1.523,2.665Zm-16.487-15.667a23.718,23.718,0,0,0,5.593,9.274c.131.135.179.146.184.147a.876.876,0,0,0,.147-.207c.916-1.61,1.846-3.214,2.776-4.818l1.256-2.167c.368-.637,1.281-2.236,1.281-2.236Zm8.928-2.513q1.587,0,3.172.025h.014a.909.909,0,0,0,.89-.529c.741-1.315,1.487-2.6,2.234-3.892l1.009-1.745c.637-1.111,1.269-2.22,1.944-3.406a1.22,1.22,0,0,0-.191-.019q-6.25,0-12.5-.012a.442.442,0,0,0-.3.068c-.047.048-.069.157-.068.347.011,2.913.016,5.825,0,8.738,0,.378.065.445.439.445C404.714,1147.175,405.826,1147.167,406.937,1147.167Zm18.049-.008c.162.009.288.015.415.015q14.234,0,28.466.017c.565,0,.709-.207.766-.563l.125-.762c.169-1.022.344-2.079.434-3.125a13.847,13.847,0,0,0-.568-4.587c-.112-.442-.263-.581-.626-.581-.685.039-1.285.048-1.887.048l-1.592-.007q-9.765-.008-19.53-.03l-.085-.2v.2a.706.706,0,0,0-.641.413c-.438.791-.886,1.558-1.333,2.325Zm-48.608-9.573a.369.369,0,0,0-.478.481c.022,2.855.022,5.752,0,8.615,0,.228.023.363.082.422s.19.085.415.085c2.177-.015,4.342-.018,6.506-.018l5.6,0v0l5.707,0q2.967,0,5.933.012c.262,0,.41-.032.48-.1a.64.64,0,0,0,.1-.438c-.029-2.836-.029-5.714,0-8.552a.6.6,0,0,0-.093-.418.554.554,0,0,0-.388-.091c-1.027.027-1.99.032-2.953.032h-1q-9.951-.007-19.9-.031Zm81.1,9.565q2.195.01,4.39.014,1.231,0,2.462-.008a.4.4,0,0,0,.261-.23,19.591,19.591,0,0,0,.528-2.174,15.266,15.266,0,0,0-.453-6.643.562.562,0,0,0-.551-.533l-.128.011c-1.056.01-2.112.012-3.169.012h-3.333c-.129,0-.259.009-.417.022l-.045,0a18.055,18.055,0,0,1,.015,9.519ZM403.4,1135.124q6.83.008,13.659.037h.012a.879.879,0,0,0,.853-.5c1.165-2.039,2.333-4.054,3.5-6.068l1.786-3.085c.788-1.362,1.571-2.727,2.382-4.141l1.129-1.967a23.8,23.8,0,0,0-28.755,15.718l.067.005c.166.014.3.024.437.024.585,0,1.149-.005,1.712-.011s1.128-.013,1.689-.013Zm39.725-.015c-.1-1.96-3.907-8.215-5.743-9.432l-5.441,9.432Z" fill="#8cb80c"/>
      </g>
      <g id="パス_159" data-name="パス 159">
        <path id="Path_214" data-name="Path 214" d="M456.631,1133.318a5.805,5.805,0,0,1-5.589-4.33,5.532,5.532,0,0,1,.46-4.154c.144-.275.1-.332-.164-.473a6.562,6.562,0,0,1-3.67-6.754.557.557,0,0,0-.278-.392,8.079,8.079,0,0,1-5.391-5.847,7.906,7.906,0,0,1-.211-2.01c0-.354-.077-.438-.432-.467a9.885,9.885,0,0,1-6.137-16.949,9.953,9.953,0,0,1,3.629-2.245,10.285,10.285,0,0,1,5.508-.306.556.556,0,0,0,.4-.243,9.922,9.922,0,0,1,17.426-.333,9.375,9.375,0,0,1,1.086,6.715.567.567,0,0,0,0,.4.613.613,0,0,0,.393.171,9.566,9.566,0,0,1,7.736,6.686,9.831,9.831,0,0,1-4.616,11.692c-.143.078-.222.142-.235.192-.007.028,0,.1.1.259a6.654,6.654,0,0,1-1.974,9.2,6.69,6.69,0,0,1-2.584.986,18.85,18.85,0,0,1,.358,2.405,5.813,5.813,0,0,1-5.8,5.8Zm-13.539-26.883a1.286,1.286,0,0,1,1.04.371,1.7,1.7,0,0,1,.207,1.415,5.808,5.808,0,0,0,4.494,6.884c.156.032.314.058.474.079a1.338,1.338,0,0,1,.985.564,1.487,1.487,0,0,1,.027,1.245,4.217,4.217,0,0,0,.495,3.783,4.582,4.582,0,0,0,3.078,1.89,1.615,1.615,0,0,1,1.071.8,1.313,1.313,0,0,1-.187.994c-.038.085-.077.169-.108.248a.748.748,0,0,1-.26.294.938.938,0,0,0-.1.085,3.368,3.368,0,1,0,4.761.051,3.166,3.166,0,0,0-.38-.333,1.335,1.335,0,0,1-.588-1.659,1.108,1.108,0,0,1,1.09-.668,2.9,2.9,0,0,1,.669.092,4.287,4.287,0,0,0,3.145-.3,4.208,4.208,0,0,0,.789-6.957c-.666-.607-.73-1.09-.668-1.39s.31-.712,1.145-1a7.4,7.4,0,0,0,4.868-9.254,7.521,7.521,0,0,0-.436-1.089,7.275,7.275,0,0,0-6.6-4.25c-.1,0-.19,0-.286.006a1.53,1.53,0,0,1-1.3-.513,1.458,1.458,0,0,1-.013-1.344,7.53,7.53,0,0,0,.1-5.282,7.432,7.432,0,0,0-11.061-3.761,7.339,7.339,0,0,0-2.933,3.651c-.185.495-.49,1.062-1.231,1.062a2.64,2.64,0,0,1-.752-.132,16.67,16.67,0,0,0-1.648-.365c-.209-.038-.4-.074-.577-.111-.57.038-1.2.1-1.829.2a7.486,7.486,0,0,0-5.741,8.876,7.389,7.389,0,0,0,7.356,5.853c.165,0,.332-.005.5-.016A3.779,3.779,0,0,1,443.092,1106.435Z" fill="#8cb80c"/>
      </g>
      <g id="パス_160" data-name="パス 160">
        <path id="Path_215" data-name="Path 215" d="M463.287,1111.682a1.19,1.19,0,0,1-1.142-.867,1.122,1.122,0,0,1,.65-1.4,4.973,4.973,0,0,1,.565-.267,4.689,4.689,0,0,0,.605-.292,3.658,3.658,0,0,0,1.634-3.58,3.512,3.512,0,0,0-2.7-2.9c-.824-.18-1.652-.35-2.479-.522-1.062-.221-2.125-.441-3.183-.678-.9-.2-1.176-.6-1.046-1.5.085-.6.2-1.2.322-1.793.105-.528.21-1.058.291-1.591a20.147,20.147,0,0,0,.259-2.633,3.352,3.352,0,0,0-1.617-3.1,1.523,1.523,0,0,1-.584-1.229,1.219,1.219,0,0,1,1.2-1.02,1.266,1.266,0,0,1,.227.021,1.2,1.2,0,0,1,.6.3,5.527,5.527,0,0,1,2.64,5.171,22.9,22.9,0,0,1-.32,2.769c-.064.405-.127.809-.181,1.213a2.009,2.009,0,0,1-.063.223,2.013,2.013,0,0,0-.128.933c.069.107.391.168.878.259l.108.021a34.764,34.764,0,0,1,4.6,1.086,5.877,5.877,0,0,1,3.66,5.545,6.105,6.105,0,0,1-3.966,5.676,3.151,3.151,0,0,1-.6.14A1.1,1.1,0,0,1,463.287,1111.682Z" fill="#8cb80c"/>
      </g>
    </g>
  </g>
</svg>
