<svg id="Group_140" data-name="Group 140" xmlns="http://www.w3.org/2000/svg" width="13" height="12" viewBox="0 0 13 12">
  <path id="Path_227" data-name="Path 227" d="M99.515,1020.65v-.183q0-2.782,0-5.565a.341.341,0,0,1,.111-.27c.3-.3.6-.6.923-.924.005.068.011.108.011.148v7.312a.505.505,0,0,1-.455.529,1.241,1.241,0,0,1-.192.011H89.187c-.459,0-.648-.19-.648-.647v-10.716c0-.455.18-.636.635-.636q5.4,0,10.8,0a.557.557,0,0,1,.5.236,1.938,1.938,0,0,0-1.029.7.338.338,0,0,1-.273.109q-4.695,0-9.389,0h-.2v9.894Z" transform="translate(-88.539 -1009.709)" fill="#94c20c"/>
  <path id="Path_228" data-name="Path 228" d="M93.84,1017.3a1.617,1.617,0,0,1,.116-.154l6.272-6.257a.746.746,0,0,1,1.141.962,1.656,1.656,0,0,1-.122.129l-6.828,6.811a.756.756,0,0,1-1.19,0q-1.3-1.3-2.6-2.6a.739.739,0,0,1-.073-.983.748.748,0,0,1,.971-.189.991.991,0,0,1,.181.15C92.408,1015.875,93.106,1016.573,93.84,1017.3Z" transform="translate(-88.539 -1009.709)" fill="#94c20c"/>
</svg>
