<svg xmlns="http://www.w3.org/2000/svg" width="186" height="186" viewBox="0 0 186 186">
  <g id="Group_459" data-name="Group 459" transform="translate(-1105 -2242)">
    <circle id="楕円形_7" data-name="楕円形 7" cx="93" cy="93" r="93" transform="translate(1105 2242)" fill="#fff"/>
    <g id="Group_211" data-name="Group 211" transform="translate(0 -39)">
      <g id="グループ_126" data-name="グループ 126" transform="translate(130.334 1557)">
        <path id="Path_224" data-name="Path 224" d="M1116.354,862.429a7.932,7.932,0,0,1-7.347-4.908,2.774,2.774,0,0,1-.23-.611.878.878,0,0,0-1.007-.762q-5.079.012-10.158.011l-5.249,0q-4.57,0-9.14-.008h-.009a.841.841,0,0,0-.87.69,7.717,7.717,0,0,1-4.192,4.811,7.956,7.956,0,0,1-10.574-3.669,9.212,9.212,0,0,1-.457-1.21.786.786,0,0,0-.777-.624l-.121.008c-.106.006-.242.01-.377.01a6.715,6.715,0,0,1-2.453-.463,6.078,6.078,0,0,1-3.058-2.719,6.754,6.754,0,0,1-.825-3.379c0-.5,0-.984,0-1.472-.005-.817-.009-1.634.009-2.451a6.089,6.089,0,0,1,3.567-5.677,13.944,13.944,0,0,1,2.372-.765c.942-.269,1.866-.519,2.79-.769l5.115-1.4.57-.15c.393-.1.787-.2,1.174-.325a1.345,1.345,0,0,0,.617-.477q3.165-4.126,6.334-8.288a8.028,8.028,0,0,1,4.546-3.1,9.584,9.584,0,0,1,2.179-.251c4.534-.012,9.033-.018,13.529-.018q4.125,0,8.248.007c.114,0,.212-.006.309-.006a7.742,7.742,0,0,1,5.927,2.753,22.84,22.84,0,0,1,1.728,2.554c.691,1.087,1.368,2.167,2.044,3.246q1,1.587,2,3.172a1.653,1.653,0,0,0,.655.58c.716.336,1.43.662,2.144.987,1.231.56,2.5,1.14,3.73,1.752a5.872,5.872,0,0,1,3.222,4.308,2.163,2.163,0,0,0,.126.325l0,6.465-.258.97a6.089,6.089,0,0,1-3.528,4.084,6.381,6.381,0,0,1-2.475.5c-.274.007-.508.014-.742.014-.2,0-.4-.005-.593-.018h-.008a.806.806,0,0,0-.856.624,7.776,7.776,0,0,1-4.692,5.091A7.929,7.929,0,0,1,1116.354,862.429Zm-41.587-13.748a5.743,5.743,0,0,0-.156,11.484h.12a5.742,5.742,0,0,0,.036-11.484Zm41.585,0a5.743,5.743,0,0,0-.112,11.484h.114a5.742,5.742,0,0,0,.029-11.484Zm-27.622-21.992a6.656,6.656,0,0,0-1.451.16,6.068,6.068,0,0,0-3.445,2.312q-3.354,4.4-6.727,8.812a1.6,1.6,0,0,1-.858.611c-1.127.313-2.261.623-3.394.933l-3.68,1c-1.54.418-3.079.835-4.614,1.265a3.863,3.863,0,0,0-2.82,3.638c-.026,1.511-.026,3.042,0,4.552a4.178,4.178,0,0,0,.251,1.355,3.959,3.959,0,0,0,3.722,2.626c.127,0,.255-.007.384-.018h.005a.718.718,0,0,0,.76-.707,7.385,7.385,0,0,1,1.371-3.406,7.942,7.942,0,0,1,6.087-3.344c.145-.007.287-.011.428-.011a7.936,7.936,0,0,1,7.849,6.65.841.841,0,0,0,.931.822q3.747-.01,7.477-.008s12.991,0,16.614.005a.8.8,0,0,0,.874-.714,10.1,10.1,0,0,1,.612-2.053,7.767,7.767,0,0,1,5.49-4.481,7.345,7.345,0,0,1,1.819-.23,7.272,7.272,0,0,1,2.358.392,7.772,7.772,0,0,1,5.468,6.436.7.7,0,0,0,.746.649c.141,0,.27-.005.4-.005l.791.005a4.007,4.007,0,0,0,4.037-3.9v-2.961h0l0-.409c.007-.613.014-1.227-.015-1.839a3.687,3.687,0,0,0-2.061-3.306c-1.284-.65-2.617-1.252-3.908-1.835-.564-.255-1.128-.51-1.69-.77a3.16,3.16,0,0,1-1.607-1.106c-.645-1.052-1.323-2.13-2-3.208-.976-1.553-1.952-3.106-2.9-4.679a5.969,5.969,0,0,0-5.33-3.241Z" fill="#8cb80c"/>
      </g>
      <path id="パス_194" data-name="パス 194" d="M1101.192,843.534a13.135,13.135,0,0,1-.219,1.7,2.115,2.115,0,0,1-4.011-.034,11.918,11.918,0,0,1-.15-1.849c-.019-.335-.014-.672,0-1.007.011-.233-.068-.316-.307-.311q-1.024.02-2.051,0a2.194,2.194,0,0,1-2.262-2.124,1.95,1.95,0,0,1,0-.217,2.116,2.116,0,0,1,1.879-1.951c.777-.045,1.558-.036,2.337-.018.326.008.411-.1.4-.413-.019-.683-.01-1.367-.005-2.05a2.206,2.206,0,0,1,1.593-2.107,2.13,2.13,0,0,1,2.5,1.143,2.357,2.357,0,0,1,.217.893c.031.731.018,1.463.008,2.2,0,.247.08.34.332.336q1.062-.018,2.123,0a2.138,2.138,0,0,1,.821,4.13,2.984,2.984,0,0,1-.981.179c-.659.027-1.319.014-1.979.005-.227,0-.326.067-.316.309.015.4,0,.791,0,1.187Z" transform="translate(130.334 1557)" fill="#8cb80c"/>
      <g id="Group_129" data-name="Group 129" transform="translate(130.334 1557)">
        <path id="Path_225" data-name="Path 225" d="M1059.515,795.6c-.8.564-1.562,1.187-2.341,1.787l-1.145.878c-.012-.192-.023-.3-.023-.4,0-.84.008-1.68,0-2.52a1.126,1.126,0,0,0-.82-1.166,1.051,1.051,0,0,0-1.333,1.093q-.021,2.16,0,4.32a.678.678,0,0,1-.3.6c-.744.564-1.478,1.142-2.217,1.714q-7.257,5.622-14.522,11.233a1.513,1.513,0,0,0-.37.29,1.54,1.54,0,0,0,.07,2.178c.465.579.911,1.172,1.357,1.766a1.514,1.514,0,0,0,2.433.33c.748-.579,1.492-1.163,2.241-1.742q9.183-7.094,18.358-14.2a.33.33,0,0,1,.032-.032.412.412,0,0,1,.582.032c2,1.566,4.012,3.112,6.02,4.666q4.672,3.619,9.35,7.232a.645.645,0,0,1,.3.565q-.012,9.987,0,19.975,1.07-1.4,2.14-2.8,0-7.728.006-15.457a3.064,3.064,0,0,1,.038-.343c.987.762,1.906,1.492,2.845,2.192a1.5,1.5,0,0,0,.248.185,1.461,1.461,0,0,0,2-.512c.318-.42.623-.849.935-1.273l.99-1.343.005-.719a5.362,5.362,0,0,0-.748-.93c-1.5-1.194-3.025-2.353-4.54-3.526q-9.021-6.984-18.041-13.965A2.825,2.825,0,0,0,1059.515,795.6Zm14.5,11.294q4.776,3.714,9.576,7.407c.26.205.289.333.089.6-.6.8-.593.815-1.373.215q-6.92-5.346-13.838-10.7-3.21-2.486-6.422-4.966c-.021-.022-.043-.044-.066-.065a1.144,1.144,0,0,0-1.617.073q-4.536,3.5-9.067,7.008-5.841,4.515-11.671,9.042c-.227.176-.37.181-.513-.07a1.974,1.974,0,0,0-.15-.2c-.511-.652-.507-.644.135-1.144l13.213-10.219q4.161-3.223,8.331-6.434a4.03,4.03,0,0,1,.576-.308,4.244,4.244,0,0,1,.55.29Q1067.891,802.153,1074.013,806.891Z" fill="#8cb80c"/>
        <path id="Path_226" data-name="Path 226" d="M1068.245,838.469l5.115-1.4.57-.15c.393-.1.787-.2,1.174-.325a1.419,1.419,0,0,0,.37-.218q-3.3-.011-6.59,0c-.321,0-.407-.1-.407-.412a15.976,15.976,0,0,0-.06-1.83.953.953,0,0,0-1.041-.833.962.962,0,0,0-.994.851,16.133,16.133,0,0,0-.05,1.8c.006.329-.094.429-.428.429q-4.7-.016-9.4,0c-.319,0-.407-.1-.407-.409q.015-7.852,0-15.7c0-.371.118-.46.475-.46,3.084.013,6.168.008,9.252.008.5,0,.5,0,.5.5v8.532a4.491,4.491,0,0,0,.052.644.948.948,0,0,0,.727.8.975.975,0,0,0,1.14-.392,2.143,2.143,0,0,0,.229-.918c.025-1.212.011-2.424.011-3.636,0-1.884-.021-3.768.006-5.652a1.971,1.971,0,0,0,0-.231,1.933,1.933,0,0,0-2.048-1.81c-.2.008-.412,0-.612,0h-9.864a1.8,1.8,0,0,0-1.756.963,2.774,2.774,0,0,0-.253,1.2q-.012,8.028-.011,16.056c0,.489,0,.489-.5.489-2.436,0-4.872-.005-7.308.007-.318,0-.416-.093-.409-.408.016-.8.015-1.612,0-2.412,0-.051,0-.1,0-.154a1.874,1.874,0,0,0-1.961-1.781h-.851a5.079,5.079,0,0,1,.03-.578,5.867,5.867,0,0,0-.407-3.2,6.6,6.6,0,0,0-4.291-3.984,6.488,6.488,0,0,0-4.368.112,6.979,6.979,0,0,0-2.6,1.743.567.567,0,0,1-.406.2,4.488,4.488,0,0,0-2.064-.083c-.322.079-.5-.069-.673-.321a6.576,6.576,0,0,0-5.86-2.942c-.293.007-.393-.046-.393-.361q.009-17.712,0-35.424a.631.631,0,0,1,.295-.56c.973-.742,1.934-1.494,2.9-2.242q6.227-4.811,12.441-9.637c.01-.011.02-.022.031-.032a.457.457,0,0,1,.645.026q7.719,5.969,15.42,11.951a.7.7,0,0,1,.217.481c.019,1.056.005,2.112.013,3.168a1.675,1.675,0,0,0,.084.6,1,1,0,0,0,1.149.646,1.06,1.06,0,0,0,.916-1.077c.023-.5.009-1.012.009-1.512,0-.125.019-.244.033-.425.139.1.215.153.289.21.854.658,1.7,1.322,2.562,1.973a1.405,1.405,0,0,0,.226.173,1.429,1.429,0,0,0,1.967-.464c.538-.7,1.039-1.436,1.59-2.129a1.373,1.373,0,0,0,.162-.217,1.409,1.409,0,0,0-.47-1.936c-.5-.392-1.006-.777-1.506-1.166l-12.388-9.587c-2.908-2.25-5.811-4.507-8.731-6.74a3.691,3.691,0,0,0-1.2-.6,3.045,3.045,0,0,0-2.817.788c-1.833,1.446-3.691,2.862-5.539,4.289-.1.075-.2.14-.361.249,0-.368.019-.655,0-.939a.451.451,0,0,1,.356-.524,1.511,1.511,0,0,0,1.079-1.308c.063-.775.052-1.556.078-2.334,0-.042,0-.083,0-.125a1.925,1.925,0,0,0-2-1.846c-1.9.046-3.788.014-5.688.014-.972,0-1.944-.011-2.916.006a1.8,1.8,0,0,0-1.705,1.479,23.96,23.96,0,0,0,.009,2.733,1.543,1.543,0,0,0,1.111,1.389.441.441,0,0,1,.338.5c-.006,2.64,0,5.281-.014,7.92a.756.756,0,0,1-.239.5c-.483.41-1,.784-1.5,1.172-1.763,1.362-3.53,2.718-5.286,4.089a1.494,1.494,0,0,0-.3,2.379c.494.627.976,1.268,1.47,1.9a1.5,1.5,0,0,0,.232.3,1.462,1.462,0,0,0,2.068-.01c.674-.519,1.344-1.042,2.018-1.56.241-.186.487-.364.812-.606v34.711c0,.225-.011.406-.251.535a6.467,6.467,0,0,0-3.162,3.828.8.8,0,0,1-.485.515,4.254,4.254,0,0,0-2.346,4.009.915.915,0,0,1-.193.7,1.633,1.633,0,0,0-.347,1.069c.007,1.056,0,2.112.007,3.168a1.908,1.908,0,0,0,.088.6,1.969,1.969,0,0,0,1.987,1.276q26.458-.01,52.924-.01C1068.054,838.522,1068.15,838.494,1068.245,838.469Zm-30.939-12.622a4.608,4.608,0,0,1,3.433,5.539c-.051.251-.215.246-.4.246h-3.31c-.684,0-1.368-.016-2.051.007-.338.012-.464-.071-.431-.435a4.891,4.891,0,0,0-.853-3.232c-.208-.306-.461-.577-.708-.882l0,0A4.607,4.607,0,0,1,1037.306,825.847Zm-16.161-57.382c-.025-.288.083-.364.367-.364,1.991.012,3.982.006,5.973.006.456,0,.912.012,1.368,0,.232-.006.327.078.315.313a6.951,6.951,0,0,0,0,.791c.018.277-.1.344-.36.344-1.223-.006-2.447,0-3.67,0s-2.423-.01-3.633,0c-.293,0-.382-.094-.36-.37A4.546,4.546,0,0,0,1021.145,768.465Zm6.515,3.6c-.014.792,0,1.584-.014,2.376a.623.623,0,0,1-.184.427c-1.534,1.207-3.08,2.4-4.625,3.592a.957.957,0,0,1-.192.075c-.01-.148-.024-.252-.024-.355,0-2.028.006-4.056-.007-6.084,0-.3.085-.384.385-.384q2.16.021,4.32,0C1027.6,771.706,1027.66,771.8,1027.66,772.061ZM1016,788.285l-.864-1.1c.127-.115.24-.231.367-.331l13.211-10.224q4.2-3.25,8.413-6.5c.652-.5.813-.507,1.477.006q5.244,4.055,10.486,8.111,5.553,4.3,11.11,8.6c.385.3.39.295.106.667q-.244.328-.5.654a.94.94,0,0,1-.109.09c-.638-.491-1.282-.978-1.923-1.478l-14.492-11.21q-2.286-1.771-4.573-3.542l-.012-.012a1.183,1.183,0,0,0-1.674.012l-16.478,12.754C1019.045,785.935,1017.547,787.085,1016,788.285Zm27.125,48.1q-6.786-.008-13.571-.007-7-.008-14,.007c-.335,0-.466-.072-.447-.431.029-.574.027-1.152,0-1.727-.015-.341.08-.446.436-.446,3.072.015,6.143.01,9.215.005a2.005,2.005,0,0,0,.7-.088,1,1,0,0,0,.632-1.125,1.065,1.065,0,0,0-.989-.93,3.267,3.267,0,0,0-.431-.014H1016.1c-.14,0-.28-.012-.453-.02a2.1,2.1,0,0,1,1.632-2.115,1.351,1.351,0,0,0,.99-1.187,4.458,4.458,0,0,1,4.643-3.568,4.4,4.4,0,0,1,3.747,2.529,2.728,2.728,0,0,0,.459.721,1.218,1.218,0,0,0,1.409.114,2.871,2.871,0,0,1,3.845,3.106c-.049.321-.173.449-.511.431-.527-.027-1.056-.021-1.584,0a1.068,1.068,0,0,0-1.074.879,1.006,1.006,0,0,0,.634,1.188,2.026,2.026,0,0,0,.706.083h12.491c.53,0,.53,0,.53.536s-.021,1.081.007,1.619C1043.592,836.3,1043.459,836.387,1043.121,836.387Z" fill="#8cb80c"/>
      </g>
      <path id="パス_156" data-name="パス 156" d="M1045.115,792.81c0,2.879-.009,5.759.006,8.639a1.847,1.847,0,0,1-1,1.836,2.067,2.067,0,0,1-.888.229c-3.575.015-7.151.009-10.727.01a1.9,1.9,0,0,1-1.91-1.89c0-.022,0-.043,0-.065.009-.8,0-1.608,0-2.412V784.179a2.035,2.035,0,0,1,.37-1.356,1.711,1.711,0,0,1,1.365-.743q5.526-.008,11.051,0a1.763,1.763,0,0,1,1.71,1.622c.016.179.021.359.021.539Q1045.117,788.525,1045.115,792.81Zm-8.34,6.359c0-.624-.008-1.248,0-1.872,0-.266-.062-.386-.363-.381-1.1.016-2.207.013-3.31,0-.272,0-.353.1-.352.358q.014,1.854,0,3.707c0,.3.112.388.4.384,1.08-.013,2.16-.015,3.239,0,.312.005.392-.115.385-.4C1036.766,800.369,1036.776,799.769,1036.775,799.169Zm6.179-.024c0-.624-.008-1.248,0-1.872,0-.257-.071-.359-.347-.356-1.1.013-2.208.011-3.312,0-.256,0-.368.071-.366.345q.014,1.872,0,3.744c0,.259.087.362.356.359q1.656-.015,3.312,0c.268,0,.362-.086.357-.35-.008-.62,0-1.246,0-1.868Zm-10.2-12.744c0,.611.009,1.223,0,1.834-.007.286.08.413.387.409,1.092-.012,2.183-.01,3.274,0,.262,0,.365-.09.364-.355q-.012-1.871,0-3.742c0-.227-.072-.32-.311-.318q-1.692.012-3.382,0c-.255,0-.335.094-.331.339.01.611,0,1.223,0,1.835Zm10.2.016c0-.612-.009-1.223,0-1.835,0-.258-.068-.36-.346-.356q-1.655.021-3.31,0c-.285,0-.374.093-.372.374q.018,1.818,0,3.635c0,.286.084.412.39.409,1.091-.012,2.183-.01,3.275,0,.263,0,.365-.09.36-.355,0-.62,0-1.246,0-1.87Zm-8.192,8.352c.551,0,1.1-.01,1.653,0,.253.006.368-.06.365-.339-.011-1.089-.009-2.179,0-3.269,0-.258-.084-.365-.353-.363q-1.653.015-3.305,0c-.256,0-.369.083-.367.352q.014,1.653,0,3.3c0,.236.089.316.319.312C1033.637,794.757,1034.2,794.769,1034.762,794.769Zm8.192-1.99c0-.539-.008-1.078,0-1.617.006-.259-.083-.363-.353-.36-1.1.01-2.2.008-3.306,0-.255,0-.368.085-.366.355q.014,1.635,0,3.27c0,.239.066.346.325.344q1.689-.013,3.378,0c.263,0,.327-.1.322-.342-.007-.552,0-1.1,0-1.654Z" transform="translate(130.334 1557)" fill="#8cb80c"/>
      <path id="パス_157" data-name="パス 157" d="M1056.733,827.569c0-.419-.009-.838,0-1.257a1.077,1.077,0,0,1,2.151-.114,1.11,1.11,0,0,1,0,.114q.024,1.239,0,2.478a1.077,1.077,0,0,1-2.153.066c0-.022,0-.044,0-.066C1056.725,828.38,1056.733,827.969,1056.733,827.569Z" transform="translate(130.334 1557)" fill="#8cb80c"/>
    </g>
  </g>
</svg>
