<svg xmlns="http://www.w3.org/2000/svg" width="91.144" height="71.482" viewBox="0 0 91.144 71.482">
  <g id="Group_156" data-name="Group 156" transform="translate(569.563 -1979.049)">
    <path id="Path_265" data-name="Path 265" d="M-540.613,2050.531c-4.282,0-6.142-.843-6.82-1.281-1.682-.717-13.754-6.427-20.192-25.054-7.2-20.816,7.956-34.873,8.109-35.012a1.468,1.468,0,0,1,1.147-.382l52.165,4.844a1.5,1.5,0,0,1,1.057.586,1.5,1.5,0,0,1,.28,1.176c-.028.154-2.781,15.468-1,24.018,1.738,8.336,5.766,12.5,5.806,12.539a1.5,1.5,0,0,1,.431,1.16,1.507,1.507,0,0,1-.585,1.089c-.676.515-16.706,12.665-30.068,15.185A56.5,56.5,0,0,1-540.613,2050.531Zm-5.136-3.759c.015,0,3.161,1.9,14.909-.32,10.585-2,23.5-10.8,27.536-13.693a31.8,31.8,0,0,1-5.5-12.722c-1.565-7.51.034-19.266.715-23.554l-49.87-4.63a30.308,30.308,0,0,0-6.832,31.363c6.3,18.234,18.51,23.265,18.632,23.314a1.526,1.526,0,0,1,.41.243Z" fill="#94c20c"/>
    <path id="Path_266" data-name="Path 266" d="M-541.446,2050.529a1.5,1.5,0,0,1-1.048-.426c-.569-.557-13.995-13.772-17.315-26.388-4.217-16.021,3-32.291,3.3-32.976a1.5,1.5,0,0,1,1.983-.75,1.5,1.5,0,0,1,.752,1.984c-.071.158-7.08,16.006-3.139,30.978,3.112,11.821,16.376,24.874,16.51,25.005a1.5,1.5,0,0,1,.025,2.121A1.5,1.5,0,0,1-541.446,2050.529Z" fill="#94c20c"/>
    <path id="Path_267" data-name="Path 267" d="M-502.411,2032.938a1.5,1.5,0,0,1-1.172-.564,1.5,1.5,0,0,1,.234-2.108c.05-.039,5.089-4.09,14.838-13.6,6.243-6.086,7.123-11.557,7.091-14.275a8.317,8.317,0,0,0-2.077-5.91c-2.937-2.733-9.882-1.231-12.31-.42-2.6.865-9.192,2.905-9.471,2.992a1.5,1.5,0,0,1-1.876-.991,1.5,1.5,0,0,1,.99-1.877c.068-.02,6.845-2.116,9.408-2.969.425-.143,10.477-3.425,15.3,1.07,1.861,1.732,2.995,4.749,3.033,8.069.064,5.525-2.776,11.37-8,16.459-9.876,9.628-14.853,13.625-15.06,13.791A1.493,1.493,0,0,1-502.411,2032.938Z" fill="#94c20c"/>
    <path id="Path_268" data-name="Path 268" d="M-537.517,1993.427a1.523,1.523,0,0,1-.414-.058,1.5,1.5,0,0,1-1.028-1.855c.016-.057,1.649-6.035-1.865-8.893-3.365-2.742-12.649,4.694-16.614,8.726a1.5,1.5,0,0,1-2.122.017,1.5,1.5,0,0,1-.017-2.121c1.44-1.463,14.25-14.149,20.647-8.95,5.056,4.114,2.947,11.725,2.854,12.047A1.5,1.5,0,0,1-537.517,1993.427Z" fill="#94c20c"/>
    <path id="Path_269" data-name="Path 269" d="M-566.736,2014.865a1.5,1.5,0,0,1-1.279-.715,1.5,1.5,0,0,1,.493-2.063,17.738,17.738,0,0,1,8.007-2.305c4.09-.1,41.827,1.668,43.432,1.744a1.5,1.5,0,0,1,1.427,1.57,1.508,1.508,0,0,1-1.57,1.426c-.391-.018-39.241-1.832-43.2-1.742a14.716,14.716,0,0,0-6.526,1.864A1.5,1.5,0,0,1-566.736,2014.865Z" fill="#94c20c"/>
    <path id="Path_270" data-name="Path 270" d="M-551.434,2038.349h-.012c-2.64-.024-9.3-2.135-10.055-2.375a1.5,1.5,0,0,1-.972-1.886,1.5,1.5,0,0,1,1.887-.972c1.921.615,7.314,2.216,9.167,2.233,1.892-.03,25.389-5.034,39.754-8.18a1.5,1.5,0,0,1,1.786,1.144,1.5,1.5,0,0,1-1.144,1.786C-517.319,2031.479-548.809,2038.349-551.434,2038.349Z" fill="#94c20c"/>
    <path id="Path_271" data-name="Path 271" d="M-506.612,2038.349a1.5,1.5,0,0,1-1.164-.554,44.215,44.215,0,0,1-8.119-19.183,59.233,59.233,0,0,1,1.352-23.643,1.5,1.5,0,0,1,1.858-1.022,1.5,1.5,0,0,1,1.022,1.86c-.032.109-3.149,11.057-1.273,22.312a41.954,41.954,0,0,0,7.489,17.784,1.5,1.5,0,0,1-.221,2.11A1.5,1.5,0,0,1-506.612,2038.349Z" fill="#94c20c"/>
  </g>
</svg>
