<svg xmlns="http://www.w3.org/2000/svg" width="186" height="186" viewBox="0 0 186 186">
  <g id="Group_461" data-name="Group 461" transform="translate(-781 -2566)">
    <circle id="楕円形_9" data-name="楕円形 9" cx="93" cy="93" r="93" transform="translate(781 2566)" fill="#fff"/>
    <g id="グループ_122" data-name="グループ 122" transform="translate(130.334 1518)">
      <g id="パス_151" data-name="パス 151">
        <path id="Path_209" data-name="Path 209" d="M700.777,1173.822a1.456,1.456,0,0,1-1.282-.764,1.274,1.274,0,0,1,1.11-1.857c.313-.01.624-.013.934-.013l1.407.007H711.6l-.191-.306a4.2,4.2,0,0,0-.26-.367,9.955,9.955,0,0,1-2.454-5.048c-.1-.511-.167-1.024-.239-1.536a.652.652,0,0,0-.572-.678,1.232,1.232,0,0,1-1.027-1.334l.068-1.1c.116-1.907.237-3.879.462-5.8a49.2,49.2,0,0,1,.973-5.45,26.781,26.781,0,0,1,4.284-10.333,16.672,16.672,0,0,1,2.255-2.276,1.113,1.113,0,0,1,1.411-.074,1.141,1.141,0,0,1,.613,1.227,1.546,1.546,0,0,1-.478.875,12.566,12.566,0,0,0-3.615,5.145,36.782,36.782,0,0,0-2.645,9.557c-.21,1.452-.362,2.936-.51,4.37q-.089.864-.18,1.726a3.078,3.078,0,0,0-.007.432l.005.418.32.033a2.664,2.664,0,0,0,.292.024l2.555,0c.852,0,1.7,0,2.554.011.524,0,.64-.257.655-.643l.075-2.267c.075-2.4.154-4.885.325-7.326.192-2.806.548-5.647.867-8.089.224-1.717.539-3.572.992-5.841.251-1.253.568-2.517.873-3.739l.488-1.981c.207-.86.422-1.75.688-2.6a7.482,7.482,0,0,1,2.512-3.933,5.53,5.53,0,0,1,3.322-1.116,5.4,5.4,0,0,1,.811.06,7.242,7.242,0,0,1,6.629,7.8,7.135,7.135,0,0,1-.111.8,5.281,5.281,0,0,1-1.619,3.1,4.1,4.1,0,0,0-1.272,3.222c.017,8.269.028,16.374-.018,24.5a12.645,12.645,0,0,1-2.023,7.12c-.1.155-.22.306-.335.458l-.738.926.635.032c.142.007.244.013.346.013l2.61-.007c.722,0,1.444.005,2.167.023h0c.757,0,.88-.423.908-.836a9.27,9.27,0,0,1,.891-3.428,6.835,6.835,0,0,1,3.972-3.447,17.969,17.969,0,0,1,5.622-1.062c2.6-.115,5.242-.155,7.8-.193l2.321-.037a1.3,1.3,0,0,1,1.346,1.222,1.324,1.324,0,0,1-.374.979,1.3,1.3,0,0,1-.923.392c-1.055.019-2.047.035-3.039.051-2.251.035-4.578.072-6.866.162a14.118,14.118,0,0,0-5.4,1.08,4.609,4.609,0,0,0-2.692,3.815c-.085.566-.121.877.056,1.082s.488.212,1.1.212l33.048-.005a7.9,7.9,0,0,0,1.381-.125,2.321,2.321,0,0,0,1.906-2.023,11.516,11.516,0,0,0,0-4.579.6.6,0,0,0-.534-.344,19.1,19.1,0,0,1-6.722,1.231,18.907,18.907,0,0,1-2.27-.137c-1.416-.117-2.8-.277-4.1-.428a1.251,1.251,0,0,1-1.129-.972c-.287-1.08-.552-2.159-.818-3.238l-.414-1.681c-.075-.312-.15-.625-.237-.933a1.314,1.314,0,1,1,2.522-.7l.314,1.27c.277,1.123.554,2.246.846,3.365a.741.741,0,0,0,.5.47,26.628,26.628,0,0,0,7.5.178,8.508,8.508,0,0,0,3.806-1.315c.8-.569.891-.712.571-1.643l-.565-1.642c-1.079-3.136-2.2-6.378-3.343-9.549-.374-1.029-.815-2.051-1.242-3.041-.282-.652-.563-1.3-.829-1.965a7.914,7.914,0,0,0-4.441-4.27,38.988,38.988,0,0,0-5.783-1.907c-1.137-.3-2.279-.615-3.413-.945a1.313,1.313,0,0,1-.822-.589,1.311,1.311,0,0,1,1.114-2,1.313,1.313,0,0,1,.3.036,1.552,1.552,0,0,1,.168.052c.779.224,1.544.431,2.309.637.948.257,1.9.513,2.838.79a20.275,20.275,0,0,1,7.5,3.495,10.3,10.3,0,0,1,2.635,3.735,106.493,106.493,0,0,1,4.145,10.679c.356,1.045.7,2.09,1.047,3.136.407,1.23.813,2.46,1.235,3.685a1.779,1.779,0,0,1-.233,1.6,1.58,1.58,0,0,0-.161,1.194l.129.8c.141.861.287,1.751.356,2.628a9.81,9.81,0,0,1-.719,4.737l-.11.261.5.029c.133.008.254.016.377.016h13.546c.063-.006.107-.008.149-.008a1.3,1.3,0,0,1,.126,2.6c-.09.009-.183.01-.276.01l-89.476,0A1.968,1.968,0,0,1,700.777,1173.822Zm10.191-10.252c.066.293.123.577.178.854.116.577.226,1.122.39,1.661a6.452,6.452,0,0,0,3.6,4.17,11.857,11.857,0,0,0,4.714.973h0a11.988,11.988,0,0,0,1.391-.082,6.412,6.412,0,0,0,5.585-3.778,11.377,11.377,0,0,0,1.018-4.806c.021-2.016.018-4.036.015-6.053l0-5.95q0-6.159.014-12.317a12.092,12.092,0,0,1,.273-2.365,5.455,5.455,0,0,1,1.553-2.586,3.741,3.741,0,0,0,.929-1.31,4.557,4.557,0,0,0-2.443-5.692,3.845,3.845,0,0,0-1.884-.49,3.9,3.9,0,0,0-1.7.393,3.948,3.948,0,0,0-1.8,2.4c-.243.77-.446,1.575-.643,2.352-.1.389-.2.777-.3,1.163-.084.314-.174.625-.264.938-.18.623-.366,1.268-.5,1.915-.415,2.038-.843,4.146-1.164,6.26-.391,2.573-.676,4.871-.868,7.025-.423,4.751-.621,9.182-.606,13.544a1.341,1.341,0,0,1-1.156,1.509,1.5,1.5,0,0,1-.166.01,1.36,1.36,0,0,1-.155-.009l-5.134,0c-.115,0-.23.007-.377.015l-.312.015.009.4Z" fill="#8cb80c"/>
      </g>
      <g id="パス_152" data-name="パス 152">
        <path id="Path_210" data-name="Path 210" d="M757.662,1110.805a2.815,2.815,0,0,1-2.8-2.623,2.86,2.86,0,0,1,0-.358q-.006-7.353,0-14.679a2.8,2.8,0,0,1,2.659-2.943l.139,0,.14,0,26.861,0a2.8,2.8,0,0,1,2.8,2.68q.006.133,0,.267v1.556h1.66a2.822,2.822,0,0,1,2.838,2.777c.011,2.025.011,4.008,0,5.992a2.813,2.813,0,0,1-2.793,2.828h-1.7v1.494a2.825,2.825,0,0,1-2.627,3.005c-.06,0-.119.005-.178.005l-.169,0H757.863C757.787,1110.8,757.725,1110.805,757.662,1110.805Zm-.173-2.643h27.377l0-.634c0-.282.009-.553,0-.823a2.855,2.855,0,0,1,2.691-3.009l.161,0,.16,0c.142.009.283.012.426.012l1.031-.011v-6.4H787.89c-.079.005-.145.008-.21.008a2.828,2.828,0,0,1-2.81-2.626,2.727,2.727,0,0,1,0-.383v-1.467H757.494Z" fill="#8cb80c"/>
      </g>
      <g id="パス_153" data-name="パス 153">
        <path id="Path_211" data-name="Path 211" d="M739.665,1146.832a9.468,9.468,0,0,1-1.62-.141,11.543,11.543,0,0,1-5.183-1.878,1.277,1.277,0,0,1,.1-2.232,1.353,1.353,0,0,1,1.43.137,9.322,9.322,0,0,0,4.941,1.472c.118.006.245.01.37.01a7,7,0,0,0,5.952-3.281,13.675,13.675,0,0,0,2.081-4.94c.091-.409.162-.825.234-1.242.082-.473.163-.946.274-1.413a1.777,1.777,0,0,1,.449-.82,5.359,5.359,0,0,0,1.565-2.833,2.2,2.2,0,0,0-1.539-2.692,1.971,1.971,0,0,0-.2-.045,1.624,1.624,0,0,1-1.033-.7,9.173,9.173,0,0,0-3-2.894,3.62,3.62,0,0,0-3.72-.031,10.7,10.7,0,0,1-3.095,1.234,13.158,13.158,0,0,1-3.892.043c-.323-.038-.64-.095-.957-.15-.234-.042-.468-.083-.7-.119a1.3,1.3,0,0,1-.922-.4,1.278,1.278,0,0,1-.353-.919,1.237,1.237,0,0,1,.016-.171,1.312,1.312,0,0,1,1.294-1.142,1.456,1.456,0,0,1,.173.011,1.621,1.621,0,0,1,.181.037l.251.042c.7.115,1.4.228,2.1.3a7.643,7.643,0,0,0,4.654-1.027,6.021,6.021,0,0,1,6.781.366,22.089,22.089,0,0,1,2.291,2.014.439.439,0,0,1,.074.17c.016.053.032.107.052.157l.1.247.422-.343c1.64-3.874,1.45-7.234-.523-10.353a.671.671,0,0,0-.542-.388.853.853,0,0,0-.429.147,5.325,5.325,0,0,1-4.811.326,15.225,15.225,0,0,0-5.667-1.088,15.441,15.441,0,0,0-2.584.219,14.343,14.343,0,0,0-9.531,6.06,6.006,6.006,0,0,0-.706,1.63,1.4,1.4,0,0,1-1.6,1.012,1.286,1.286,0,0,1-.972-1.53,1.415,1.415,0,0,1,.05-.169,10.925,10.925,0,0,1,2.527-4.117,17.261,17.261,0,0,1,7.335-4.913,16.724,16.724,0,0,1,5.155-.813c.533,0,1.072.026,1.6.077a21.14,21.14,0,0,1,5.672,1.289,2.79,2.79,0,0,0,.891.146,2.762,2.762,0,0,0,1.567-.484c.3-.168.595-.362.894-.557l.171-.11a1.368,1.368,0,0,1,.9-.345,1.34,1.34,0,0,1,1.015.464,7.946,7.946,0,0,1,1.893,2.866,14.005,14.005,0,0,1,1.394,6.348,17.28,17.28,0,0,1-1.176,5.1,4.19,4.19,0,0,0-.247.677.808.808,0,0,0,.108.618c1.462,1.649,1.677,3.544.7,5.989a4.74,4.74,0,0,1-.909,1.542,4.03,4.03,0,0,0-.9,2.273,15.809,15.809,0,0,1-4.452,8.76A9.425,9.425,0,0,1,739.665,1146.832Z" fill="#8cb80c"/>
      </g>
      <g id="パス_154" data-name="パス 154">
        <path id="Path_212" data-name="Path 212" d="M762.155,1104.67a1.3,1.3,0,0,1-1.294-1.305q-.009-2.86,0-5.716a1.312,1.312,0,0,1,1.2-1.419l.1,0a1.312,1.312,0,0,1,1.3,1.2,1.372,1.372,0,0,1,0,.213c0,.652,0,3.826,0,3.826,0,.634,0,1.266,0,1.905a1.3,1.3,0,0,1-1.3,1.3Z" fill="#8cb80c"/>
      </g>
    </g>
  </g>
</svg>
