<svg xmlns="http://www.w3.org/2000/svg" width="186" height="186" viewBox="0 0 186 186">
  <g id="Group_458" data-name="Group 458" transform="translate(-781 -2242)">
    <circle id="楕円形_6" data-name="楕円形 6" cx="93" cy="93" r="93" transform="translate(781 2242)" fill="#fff"/>
    <g id="グループ_125" data-name="グループ 125" transform="translate(130.334 1518)">
      <g id="パス_127" data-name="パス 127">
        <path id="Path_218" data-name="Path 218" d="M699.852,861.7l-.887-.739V841.784l.134-.5c.061-.24.121-.48.177-.72a11.484,11.484,0,0,1,5.776-7.681,14.107,14.107,0,0,1,3.7-1.321l.728-.178c1.365-.333,2.777-.678,4.148-1.086a3.347,3.347,0,0,0,2.422-2.77,7.651,7.651,0,0,0,.1-1.383,2.716,2.716,0,0,0-.935-2.088,11.7,11.7,0,0,1-2.861-3.872,18.9,18.9,0,0,1-.653-1.808l-.2-.6a1.084,1.084,0,0,0-.817-.85,6.3,6.3,0,0,1-4.648-6.243,3.749,3.749,0,0,1,3.66-3.694.843.843,0,0,0,.621-.219.809.809,0,0,0,.161-.607c-.022-.4-.047-.794-.073-1.19a33.957,33.957,0,0,1-.1-3.624,12.739,12.739,0,0,1,4.118-8.853,12.908,12.908,0,0,1,8.255-3.6c.437-.031.927-.166.879-.956-.024-.4-.019-.8-.013-1.206.005-.313.009-.625,0-.939a1.064,1.064,0,0,1,1.034-1.092,1.085,1.085,0,0,1,1.054,1.1c.021.858.011,1.707,0,2.557a.714.714,0,0,0,.615.8,12.717,12.717,0,0,1,6.956,3.87,12.915,12.915,0,0,1,3.4,6.6.723.723,0,0,0,.814.645l2.744.012c.646,0,1.292-.006,1.937-.027a1.473,1.473,0,0,1,.2-.016,1.165,1.165,0,0,1,1.149,1.346,7.075,7.075,0,0,0-.017.89c0,.147.007.3.007.469v.634l.629-.513a2.963,2.963,0,0,0,.24-.207l.555-.547c.489-.481.978-.961,1.444-1.466a1.781,1.781,0,0,1,1.324-.592l.107,0c2.407.01,4.8.012,7.19.012l6.8,0,.659-.008c.1,0,.207,0,.31.008h.019a.632.632,0,0,0,.724-.78.931.931,0,0,1,0-.128v-26.03c0-.772-.136-.908-.913-.908H726.564c-.774,0-.911.136-.918.91v2c0,1.328,0,2.655,0,3.982a1.067,1.067,0,0,1-.957,1.177l-.121,0a1,1,0,0,1-1.005-.943c-.007-.1-.009-.2-.009-.3v-7.638a1.153,1.153,0,0,1,.217-.869,1.115,1.115,0,0,1,.741-.431,1.266,1.266,0,0,1,.151-.01,1.244,1.244,0,0,1,.148.01l39.421,0c.083-.008.131-.011.177-.011a1.154,1.154,0,0,1,1.142,1.309l0,22.684c0,.415,0,.843.568.843.08,0,.181-.007.31-.017a12.413,12.413,0,0,1,1.291-.068,12.1,12.1,0,0,1,4.54.881,1.048,1.048,0,0,1,.629.523,1.031,1.031,0,0,1,.065.8,1.067,1.067,0,0,1-1.424.635l-.064-.024a10.445,10.445,0,0,0-3.762-.7q-.378,0-.756.027h-.113c-1.144.056-1.286.205-1.286,1.322v2.6a1.114,1.114,0,0,1-.989,1.235.963.963,0,0,1-.107.005.94.94,0,0,1-.107-.005c-.8,0-1.578.006-2.352.006-.8,0-1.593,0-2.388-.015h-.015a1.01,1.01,0,0,0-1.02.687,10.359,10.359,0,0,0-.9,4.865c.078,1.288.169,2.573.261,3.857a1.376,1.376,0,0,0,.177.6l.258.454.263-.452a6.97,6.97,0,0,0,.894-2.649,4.784,4.784,0,0,1,.673-3.1,3.517,3.517,0,0,1,2.916-1.618q2.309-.026,4.62-.027t4.623.027a3.762,3.762,0,0,1,3.607,3.59,1.159,1.159,0,0,1,0,.228,6.4,6.4,0,0,0,.82,3.477l.05.089.148.072.311.131.172-.288a3.291,3.291,0,0,0,.1-.464l.083-1.263c.073-1.079.148-2.2.172-3.3a9.365,9.365,0,0,0-1.623-5.5,1.3,1.3,0,0,1-.24-1.518,1.011,1.011,0,0,1,1.685-.083,11.862,11.862,0,0,1,1.944,4.257,14.653,14.653,0,0,1,.218,5.067c-.026.24-.032.476-.039.712-.006.214-.012.429-.034.642a.758.758,0,0,0,.146.6.647.647,0,0,0,.509.19l.117-.005a3.791,3.791,0,0,1,.391-.021,3.548,3.548,0,0,1,2.209.775,3.615,3.615,0,0,1,1.263,3.721,5.833,5.833,0,0,1-3.669,4.549,6.9,6.9,0,0,1-1.11.31.906.906,0,0,0-.766.749,11.073,11.073,0,0,1-3.526,5.717,1.531,1.531,0,0,0-.612,1.408c.021.24.019.487.017.735,0,.2,0,.4.008.594a1.058,1.058,0,0,0,1.052.963l.11-.005a1.047,1.047,0,0,0,.29-.074,1.108,1.108,0,0,1,.546-.154,1.036,1.036,0,0,1,.894.516,12.778,12.778,0,0,1,.824,1.4,1.49,1.49,0,0,0,1.272.824c.107.02.212.04.314.069.567.157,1.139.295,1.711.433.834.2,1.7.41,2.517.676a8.509,8.509,0,0,1,5.411,5.01,9.44,9.44,0,0,1,.7,3.816c-.023,5.521-.023,11.114,0,16.629a1.239,1.239,0,0,1-.8,1.369l-.089.031-.042.049ZM766.3,839.574l.477.067c1.09.152,1.275.718,1.275,1.931-.018,4.075-.015,8.153-.013,12.229l0,4.3c0,1.332.134,1.471,1.43,1.485h.008a.832.832,0,0,0,.625-.191.812.812,0,0,0,.187-.6c-.016-1.689-.009-3.38,0-5.069a2.85,2.85,0,0,1,.055-.658c.177-.721.365-1.453.552-2.183l.435-1.708q.894-3.56,1.779-7.123c.047-.192.088-.384.129-.575l.241-1.079-.622.412a2.087,2.087,0,0,0-.574.565,1.067,1.067,0,0,1-1.463.443,1.061,1.061,0,0,1-.445-.471c-.292-.431-.552-.824-.812-1.217l-.4-.607-1.408-2.094Zm14.425-3.048.242.475.107.182q.912,1.53,1.826,3.058a1.074,1.074,0,0,1,.108,1.114,1.952,1.952,0,0,1-1.044.765.89.89,0,0,0-.629.9c.017,2.051.017,4.116,0,6.18a.831.831,0,0,0,.546.831,3.52,3.52,0,0,1,1.3,5.134,1.521,1.521,0,0,0-.268.763c-.014.541-.013,1.068-.011,1.595,0,.432,0,.864-.005,1.3a.663.663,0,0,0,.727.757c.668-.008,1.317-.013,1.968-.013s1.3.005,1.949.013h0a.717.717,0,0,0,.529-.178.745.745,0,0,0,.174-.549l0-6.182q0-4.86-.011-9.72a6.22,6.22,0,0,0-.672-2.675,6.773,6.773,0,0,0-4.579-3.694c-.408-.113-.835-.21-1.261-.307l-.7-.162Zm-41.789,18.359a.7.7,0,0,0-.514.174.707.707,0,0,0-.17.524q.016,1.635,0,3.273a.63.63,0,0,0,.7.72c.426-.005,2.2-.005,2.2-.005l4.182,0a.756.756,0,0,0,.561-.183.693.693,0,0,0,.176-.521c-.011-1.106-.008-2.214,0-3.318a.6.6,0,0,0-.666-.666l-3.239,0Zm39.9-5.985a.736.736,0,0,0-.2.058c-2.041,1.612-4.01,3.187-5.974,4.762a.806.806,0,0,0-.277.555c-.012,1.577-.014,3.134.007,4.691a.75.75,0,0,0,.527.584c1.685.022,3.292.023,4.9.024l2.311,0a.687.687,0,0,0,.509-.18.671.671,0,0,0,.173-.5l0-.522c0-.347,0-.693,0-1.04.008-.41-.213-.636-.661-.669a4.972,4.972,0,0,1-.951-.161,3.524,3.524,0,0,1-2.272-4.426c.017-.058.037-.114.058-.171a3.6,3.6,0,0,1,1.78-1.921.761.761,0,0,0,.465-.432.63.63,0,0,0-.1-.511l-.088-.22Zm-68.9-5.04a1.056,1.056,0,0,1,1.052.991,1.133,1.133,0,0,1-.008.209c-.013,4.546-.013,9.053,0,13.561,0,.82.136.954.972.954l23.3,0c.777,0,.913-.135.913-.9V845.192c0-.126,0-.251.008-.376a1.045,1.045,0,0,1,1.035-.957,1.19,1.19,0,0,1,.354.062.994.994,0,0,1,.7,1.041c0,2.377,0,4.727,0,7.079,0,.229,0,.763.7.763,1.079-.007,2.148-.01,3.218-.01s2.139,0,3.208.01h0a.7.7,0,0,0,.533-.184.729.729,0,0,0,.169-.554c-.015-.5-.022-1.008,0-1.5a1.059,1.059,0,0,1,.292-.771,1.046,1.046,0,0,1,.736-.325h0a1.082,1.082,0,0,1,.334.048.993.993,0,0,1,.726,1.083c0,2.7,0,5.367,0,8.03,0,.812.132.944.947.944h15.9c.806,0,.937-.133.937-.948V843.217c0-1.3-.133-1.436-1.437-1.436H749.013c-.348,0-.558,0-.718.162s-.155.376-.149.73l.005.261c.009.45.017.9-.005,1.35a1.013,1.013,0,0,1-1.01.948,1.04,1.04,0,0,1-.967-.7,3.748,3.748,0,0,1-.1-1,9.764,9.764,0,0,0-.78-4.193,9.252,9.252,0,0,0-5.788-5.294c-1.288-.416-2.626-.74-3.919-1.055l-.727-.176c-.068-.017-.134-.039-.2-.062a1.679,1.679,0,0,0-.552-.116,1.023,1.023,0,0,0-.634.222,16.718,16.718,0,0,1-19.8.024,1.183,1.183,0,0,0-.614-.177,1.1,1.1,0,0,0-.228.023c-.531.1-1.058.238-1.582.375l-.171.045c-.347.088-.7.171-1.048.254a23.927,23.927,0,0,0-2.565.707,9.532,9.532,0,0,0-6.391,9.074c-.009,1.57-.008,3.143-.008,4.718q0,2.064-.005,4.127c0,.7.423.787.792.787.863-.008,1.7-.01,2.531-.01l3.063,0c1.3,0,1.434-.133,1.434-1.425l0-2.126c0-1.417,0-2.834,0-4.251a1.061,1.061,0,0,1,.262-.783,1.045,1.045,0,0,1,.725-.354Zm-8.209,11.023a.591.591,0,0,0-.661.668c.009,1.1.011,2.21,0,3.312a.627.627,0,0,0,.717.712c.4,0,.795-.006,1.191-.006l5.168,0a.758.758,0,0,0,.567-.18.693.693,0,0,0,.174-.516q-.02-1.658,0-3.313a.61.61,0,0,0-.7-.681q-1.621.006-3.232.007C703.869,854.89,701.718,854.883,701.718,854.883Zm78.563-3.142a1.417,1.417,0,0,0-1.053,2.379,1.414,1.414,0,0,0,.989.458h0a1.457,1.457,0,0,0,1.492-1.4,1.434,1.434,0,0,0-1.4-1.435Zm-3.353-16.412-3.743,14.99.572-.269a3.538,3.538,0,0,0,.437-.246s3.51-2.811,4.327-3.462a.569.569,0,0,0,.262-.335.627.627,0,0,0-.04-.48l-.058-.091c-.185-.364-.991-1.989-.991-1.989a1.158,1.158,0,0,1,.191-1.639,1.1,1.1,0,0,1,.386-.191c.5-.238.935-.462,1.4-.7l.915-.466-3.136-5.226Zm-22.579.829c-2.183.425-4.262.971-5.7,2.967l-.206.286.315.158.17.08.158.032,2.044.007c.456,0,.912,0,1.367-.013a.988.988,0,0,0,.686-.442c.4-.625.778-1.261,1.159-1.9l.236-.4a1.757,1.757,0,0,0,.128-.442l.061-.418Zm1.046,3.484h4.243l-1.1-4.357H758Zm18.9-6.223q-2.208,1.094-4.4,2.216a.756.756,0,0,0-.316.427l-.037.122.058.21c.4.627.8,1.231,1.231,1.863l.511.76.374-.429a2.727,2.727,0,0,0,.186-.22q.747-.977,1.488-1.964l.223-.3c.448-.6.894-1.191,1.324-1.8a.754.754,0,0,0,.1-.461c0-.039,0-.078,0-.115l.036-.332h-.334a1.984,1.984,0,0,0-.239-.026h-.071Zm-13.9.019.027.31a1.789,1.789,0,0,0,.167.612c.674.93,1.331,1.8,1.989,2.672l1.339,1.778.307.1.13-.19.437-.667c.335-.515.649-.995.985-1.459a.722.722,0,0,0,.17-.589.734.734,0,0,0-.455-.452l-1.772-.88q-1.175-.586-2.356-1.165a1.821,1.821,0,0,0-.562-.09h-.008Zm-22.9-31.087a.6.6,0,0,0-.663.624l-.014.292c-.048.961-.1,1.921-.179,2.879a.8.8,0,0,0,.149.615.834.834,0,0,0,.63.222,3.821,3.821,0,0,1,3.7,3.449,6.3,6.3,0,0,1-4.126,6.3,1.944,1.944,0,0,0-1.507,1.554A11.98,11.98,0,0,1,732,823.975a2.549,2.549,0,0,0-.8,1.108,7.919,7.919,0,0,0-.15,2.209,3,3,0,0,0,1.741,2.65,17.631,17.631,0,0,0,2.869.889c.544.147,1.106.283,1.668.419.886.215,1.8.437,2.681.712a11.5,11.5,0,0,1,6.463,5.054c.179.289.3.477.547.477.206,0,.341-.141.565-.375a8.782,8.782,0,0,1,4.323-2.534c1.451-.357,2.9-.717,4.347-1.1a1.3,1.3,0,0,0,.684-.511c.212-.312.4-.639.6-.966.1-.179.209-.357.319-.533a1.035,1.035,0,0,1,.939-.606,1.02,1.02,0,0,1,.449.1l.135.07a1.044,1.044,0,0,0,.357.062,1.064,1.064,0,0,0,1-.7.98.98,0,0,0,.042-.157c.019-.306.022-.569.024-.832s0-.55.02-.824a1.2,1.2,0,0,0-.485-1.066,11.228,11.228,0,0,1-3.668-5.885.871.871,0,0,0-.758-.7,7.434,7.434,0,0,1-1.094-.3,5.837,5.837,0,0,1-3.689-4.6,3.616,3.616,0,0,1,.948-3.391,3.509,3.509,0,0,1,2.893-1.046l.126,0a.663.663,0,0,0,.521-.194.791.791,0,0,0,.153-.618c-.067-.721-.135-1.466-.14-2.214a25.155,25.155,0,0,1,.094-3.012,15.2,15.2,0,0,1,.371-1.905c.071-.3.144-.6.211-.919l.074-.344-.505-.028c-.123-.009-.249-.017-.373-.017h-3.153q-1.971,0-3.94-.009h0a1.416,1.416,0,0,0-1.086.473c-.673.682-1.364,1.371-2.055,2.061-.675.674-1.351,1.348-2.021,2.026a1.065,1.065,0,0,1-.815.386,1.067,1.067,0,0,1-1.061-1.14c.01-.647.008-1.271.006-1.9v-1.232a.575.575,0,0,0-.6-.677c-.494,0-.981.006-1.468.006C738.7,802.357,737.49,802.351,737.49,802.351Zm25.4,27.808c-.08.434-.153.835-.2,1.239a.718.718,0,0,0,.4.626q2.135,1.085,4.285,2.132a.9.9,0,0,0,.375.083.875.875,0,0,0,.324-.061c1.455-.711,2.882-1.425,4.3-2.154a.79.79,0,0,0,.4-.6c-.042-.46-.113-.852-.19-1.278l-.145-.818-.331.11a11.757,11.757,0,0,1-8.731.017l-.343-.137Zm-49.1-12.728a.614.614,0,0,0-.1.536,10.629,10.629,0,0,0,2.924,4.535,4.6,4.6,0,0,1,1.572,2.99,6.2,6.2,0,0,1-1.931,5.689,2.723,2.723,0,0,0-.261.3l-.191.264.278.17a14.426,14.426,0,0,0,14.911.03l.194-.115-.058-.219a.484.484,0,0,0-.09-.229,1.74,1.74,0,0,0-.182-.194,5.91,5.91,0,0,1-1.988-4.243,5.325,5.325,0,0,1,1.788-4.623,9.568,9.568,0,0,0,2.365-3.343c.117-.262.212-.542.3-.82l.221-.631-.558-.258-.148.16c-.109.114-.163.171-.212.231a18.427,18.427,0,0,1-5.842,4.97,6.4,6.4,0,0,1-6.17.143,18.027,18.027,0,0,1-6.019-4.942l-.578-.717Zm49.489-10.36a1.665,1.665,0,0,0-1.667,1.6v.115c-.005.166,0,.349,0,.531s.005.352,0,.53a3.25,3.25,0,0,1-.081,1c-.466,1.205-.962,2.44-1.457,3.676-.352.88-.7,1.76-1.052,2.643a8.552,8.552,0,0,0-.608,1.9,4.808,4.808,0,0,0,.193,1.741,9.2,9.2,0,0,0,5.285,6.532,8.856,8.856,0,0,0,3.836.878h0a8.754,8.754,0,0,0,3.54-.743,9.255,9.255,0,0,0,5.8-7.894,2.261,2.261,0,0,0-.05-1.029c-.691-1.788-1.507-3.871-2.389-5.963a7.782,7.782,0,0,1-.778-3.676,1.672,1.672,0,0,0-.4-1.3,1.909,1.909,0,0,0-1.45-.54q-1.116-.006-2.234-.005ZM723.41,790.914a10.508,10.508,0,0,0-6.264,2.054,10.682,10.682,0,0,0-4.759,8.763c-.033,1.376.068,2.778.165,4.132.031.439.063.877.091,1.316a16.082,16.082,0,0,0,1.07,4.93,16.743,16.743,0,0,0,7.387,8.567,4.45,4.45,0,0,0,2.437.721h0a4.478,4.478,0,0,0,2.42-.71,22.147,22.147,0,0,0,3.268-2.418,15.851,15.851,0,0,0,5.07-9.623c.2-1.371.289-2.778.372-4.14.037-.61.074-1.219.121-1.826a11.119,11.119,0,0,0-.8-4.616,11,11,0,0,0-8.48-6.939A10.5,10.5,0,0,0,723.41,790.914ZM754.881,813.7a4.755,4.755,0,0,0-.548.031,1.41,1.41,0,0,0-1.174,1.238,3.748,3.748,0,0,0,2.729,3.8l.415.117s-.152-1.833-.176-2.165l-.049-.81c-.029-.523-.059-1.046-.107-1.567a.777.777,0,0,0-.459-.6A3.783,3.783,0,0,0,754.881,813.7Zm25.476-.044c-.8,0-.847.561-.912,1.409-.059.772-.1,1.547-.144,2.336l-.083,1.473.406-.116a3.744,3.744,0,0,0,2.7-3.818,1.423,1.423,0,0,0-1.2-1.215A7.265,7.265,0,0,0,780.357,813.653Zm-70.468-4.611a1.721,1.721,0,0,0-1.675,1.319,3.505,3.505,0,0,0,.055,1.428,4.261,4.261,0,0,0,2.368,2.893l.454.208-.134-2.266c-.06-1.025-.117-2.017-.185-3.008a.7.7,0,0,0-.452-.518A1.748,1.748,0,0,0,709.889,809.042Zm27.237.021a.74.74,0,0,0-.815.808c-.041.874-.092,1.749-.144,2.624l-.082,1.446a3.353,3.353,0,0,0,.018.432l.019.18.285.114.117-.05a4.149,4.149,0,0,0,2.493-3.634,1.761,1.761,0,0,0-1.575-1.911,1.674,1.674,0,0,0-.176-.009Z" fill="#8cb80c"/>
      </g>
      <g id="パス_128" data-name="パス 128">
        <path id="Path_219" data-name="Path 219" d="M744.657,789.681a1.032,1.032,0,0,1-.213-.023,1.015,1.015,0,0,1-.782-.783,8.6,8.6,0,0,1-.063-1.006c0-.082-.005-.163-.007-.245l.013-.2v-.361c0-.237,0-.473,0-.712a1.036,1.036,0,0,1,.87-1.19,1.114,1.114,0,0,1,.132-.008,2.761,2.761,0,0,0,2.537-1.782,2.653,2.653,0,0,0-4.919-1.987,4.441,4.441,0,0,0-.225,1.088,1.153,1.153,0,0,1-.964,1.042c-.028,0-.068.005-.108.005a1,1,0,0,1-.941-.662,3.1,3.1,0,0,1-.026-1.221,4.758,4.758,0,1,1,9.378,1.613c-.022.132-.05.262-.084.392a4.61,4.61,0,0,1-2.976,3.295.806.806,0,0,0-.579.88,8.209,8.209,0,0,1-.057,1.09A1.015,1.015,0,0,1,744.657,789.681Z" fill="#8cb80c"/>
      </g>
      <g id="パス_129" data-name="パス 129">
        <path id="Path_220" data-name="Path 220" d="M744.611,794.711a.987.987,0,0,1-.99-.954,1.049,1.049,0,0,1,1.027-1.1,1.037,1.037,0,0,1,1.037,1.029.989.989,0,0,1-.961,1.025Z" fill="#8cb80c"/>
      </g>
      <g id="パス_130" data-name="パス 130">
        <path id="Path_221" data-name="Path 221" d="M754.559,854.186a3.51,3.51,0,0,1-3.5-3.492,3.479,3.479,0,0,1,3.445-3.519,3.523,3.523,0,0,1,3.562,3.491,3.506,3.506,0,0,1-3.49,3.52Zm-.011-4.914a1.408,1.408,0,0,0-.057,2.814,1.453,1.453,0,0,0,1.074-.421,1.407,1.407,0,0,0-1-2.393h-.014Z" fill="#8cb80c"/>
      </g>
      <g id="パス_131" data-name="パス 131">
        <path id="Path_222" data-name="Path 222" d="M767.755,824.437a6.388,6.388,0,0,1-4.449-1.795,1.044,1.044,0,0,1-.156-1.484,1.039,1.039,0,0,1,1.468-.138.909.909,0,0,1,.087.08,4.309,4.309,0,0,0,3.908,1.14,4.529,4.529,0,0,0,2.174-1.144,1.041,1.041,0,0,1,1.475.031,1.046,1.046,0,0,1-.033,1.476A6.382,6.382,0,0,1,767.755,824.437Z" fill="#8cb80c"/>
      </g>
      <g id="パス_132" data-name="パス 132">
        <path id="Path_223" data-name="Path 223" d="M767.012,819.487a2.942,2.942,0,0,1-.362-.023,1.059,1.059,0,0,1-.864-1.091,1,1,0,0,1,.936-.971h.006a.93.93,0,0,0,.69-.237.964.964,0,0,0,.193-.748c-.028-.464-.018-.928-.009-1.392l0-.2a1.07,1.07,0,0,1,1.028-1.115h0a1.023,1.023,0,0,1,1.062.994c.005.354,0,.611,0,.9v.4a4.113,4.113,0,0,1-.318,2.1A2.715,2.715,0,0,1,767.012,819.487Z" fill="#8cb80c"/>
      </g>
    </g>
  </g>
</svg>
