<svg xmlns="http://www.w3.org/2000/svg" width="103.314" height="89.992" viewBox="0 0 103.314 89.992">
  <g id="Group_155" data-name="Group 155" transform="translate(337.657 -1969.785)">
    <g id="Group_150" data-name="Group 150">
      <path id="Path_243" data-name="Path 243" d="M-292.171,2036.842h-15.61a1.5,1.5,0,0,1-1.5-1.5,1.5,1.5,0,0,1,1.5-1.5h15.61a2.326,2.326,0,0,0,2.323-2.323,2.326,2.326,0,0,0-2.323-2.323H-314.24a1.5,1.5,0,0,1-1.5-1.5,1.5,1.5,0,0,1,1.5-1.5h22.069a5.329,5.329,0,0,1,5.323,5.323A5.329,5.329,0,0,1-292.171,2036.842Z" fill="#94c20c"/>
      <path id="Path_244" data-name="Path 244" d="M-287.821,2044.487h-19.96a1.5,1.5,0,0,1-1.5-1.5,1.5,1.5,0,0,1,1.5-1.5h19.96a2.326,2.326,0,0,0,2.323-2.323,2.325,2.325,0,0,0-2.323-2.322h-6.214a1.5,1.5,0,0,1-1.5-1.5,1.5,1.5,0,0,1,1.5-1.5h6.214a5.328,5.328,0,0,1,5.323,5.322A5.329,5.329,0,0,1-287.821,2044.487Z" fill="#94c20c"/>
      <path id="Path_245" data-name="Path 245" d="M-292.171,2052.133h-15.61a1.5,1.5,0,0,1-1.5-1.5,1.5,1.5,0,0,1,1.5-1.5h15.61a2.326,2.326,0,0,0,2.323-2.323,2.326,2.326,0,0,0-2.323-2.323,1.5,1.5,0,0,1-1.5-1.5,1.5,1.5,0,0,1,1.5-1.5,5.329,5.329,0,0,1,5.323,5.323A5.329,5.329,0,0,1-292.171,2052.133Z" fill="#94c20c"/>
      <path id="Path_246" data-name="Path 246" d="M-298.385,2059.777h-18.452c-9.677,0-14.107-5.475-15.482-7.644h-3.838a1.5,1.5,0,0,1-1.5-1.5,1.5,1.5,0,0,1,1.5-1.5h4.706a1.5,1.5,0,0,1,1.356.858c.132.271,3.415,6.786,13.258,6.786h18.452a2.324,2.324,0,0,0,2.322-2.322,2.324,2.324,0,0,0-2.322-2.322,1.5,1.5,0,0,1-1.5-1.5,1.5,1.5,0,0,1,1.5-1.5,5.328,5.328,0,0,1,5.322,5.322A5.328,5.328,0,0,1-298.385,2059.777Z" fill="#94c20c"/>
      <path id="Path_247" data-name="Path 247" d="M-331.76,2031.608h-4.4a1.5,1.5,0,0,1-1.5-1.5,1.5,1.5,0,0,1,1.5-1.5h3.776l15.963-15.962a5.735,5.735,0,0,1,8.1,0,5.734,5.734,0,0,1,0,8.1l-5.564,5.565a1.5,1.5,0,0,1-2.121,0,1.5,1.5,0,0,1,0-2.122l5.564-5.564a2.732,2.732,0,0,0,0-3.858,2.732,2.732,0,0,0-3.858,0l-16.4,16.4A1.5,1.5,0,0,1-331.76,2031.608Z" fill="#94c20c"/>
      <path id="Path_248" data-name="Path 248" d="M-325.574,2039.932a1.5,1.5,0,0,1-1.458-1.153,1.5,1.5,0,0,1,1.112-1.806c8.246-1.965,9.478-8.189,9.478-11.723a1.5,1.5,0,0,1,1.5-1.5,1.5,1.5,0,0,1,1.5,1.5c0,3.558-1.148,12.106-11.783,14.641A1.5,1.5,0,0,1-325.574,2039.932Z" fill="#94c20c"/>
    </g>
    <path id="Path_249" data-name="Path 249" d="M-247.918,1995.554H-264.88a1.5,1.5,0,0,1-1.5-1.5V1989.8a3.489,3.489,0,0,1,3.485-3.486H-249.9a3.49,3.49,0,0,1,3.486,3.486v4.253A1.5,1.5,0,0,1-247.918,1995.554Zm-15.462-3h13.962V1989.8a.487.487,0,0,0-.486-.486h-12.991a.486.486,0,0,0-.485.486Z" fill="#94c20c"/>
    <path id="Path_250" data-name="Path 250" d="M-242.956,2005.682h-26.887a1.5,1.5,0,0,1-1.5-1.5v-8.143a3.489,3.489,0,0,1,3.485-3.485h22.917a3.488,3.488,0,0,1,3.485,3.485v8.143A1.5,1.5,0,0,1-242.956,2005.682Zm-25.387-3h23.887v-6.643a.485.485,0,0,0-.485-.485h-22.917a.485.485,0,0,0-.485.485Z" fill="#94c20c"/>
    <path id="Path_251" data-name="Path 251" d="M-247.918,1981.731H-264.88a1.5,1.5,0,0,1-1.5-1.5v-4.976a5.476,5.476,0,0,1,5.47-5.47h9.021a5.477,5.477,0,0,1,5.471,5.47v4.976A1.5,1.5,0,0,1-247.918,1981.731Zm-15.462-3h13.962v-3.476a2.474,2.474,0,0,0-2.471-2.47h-9.021a2.473,2.473,0,0,0-2.47,2.47Z" fill="#94c20c"/>
    <path id="Path_252" data-name="Path 252" d="M-253.623,1989.315h-5.553a1.5,1.5,0,0,1-1.5-1.5v-7.584a1.5,1.5,0,0,1,1.5-1.5h5.553a1.5,1.5,0,0,1,1.5,1.5v7.584A1.5,1.5,0,0,1-253.623,1989.315Zm-4.053-3h2.553v-4.584h-2.553Z" fill="#94c20c"/>
    <path id="Path_253" data-name="Path 253" d="M-239.159,2059.777h-34.48a4.821,4.821,0,0,1-4.816-4.815v-41.715a4.807,4.807,0,0,1,1.261-3.249l6.244-6.829a1.5,1.5,0,0,1,1.107-.487h26.887a1.5,1.5,0,0,1,1.107.488L-235.6,2010a4.808,4.808,0,0,1,1.262,3.249v41.715A4.821,4.821,0,0,1-239.159,2059.777Zm-30.023-54.1-5.8,6.34a1.81,1.81,0,0,0-.476,1.225v41.715a1.817,1.817,0,0,0,1.816,1.815h34.48a1.818,1.818,0,0,0,1.816-1.815v-41.715a1.81,1.81,0,0,0-.476-1.225l-5.8-6.34Z" fill="#94c20c"/>
    <path id="Path_254" data-name="Path 254" d="M-289.173,1982.16a1.5,1.5,0,0,1-1.061-.439,1.5,1.5,0,0,1,0-2.121l4.406-4.407a1.5,1.5,0,0,1,1.061-.439h19.887a1.5,1.5,0,0,1,1.5,1.5,1.5,1.5,0,0,1-1.5,1.5h-19.266l-3.967,3.967A1.494,1.494,0,0,1-289.173,1982.16Z" fill="#94c20c"/>
    <path id="Path_255" data-name="Path 255" d="M-235.843,2044.89h-41.112a1.5,1.5,0,0,1-1.5-1.5v-24.051a1.5,1.5,0,0,1,1.5-1.5h41.112a1.5,1.5,0,0,1,1.5,1.5v24.051A1.5,1.5,0,0,1-235.843,2044.89Zm-39.612-3h38.112v-21.051h-38.112Z" fill="#94c20c"/>
    <g id="Group_154" data-name="Group 154">
      <g id="Group_151" data-name="Group 151">
        <path id="Path_256" data-name="Path 256" d="M-295.185,1988.675a2.006,2.006,0,0,1-1.96-2.39,1.516,1.516,0,0,1,.109-.37,1.974,1.974,0,0,1,.181-.351,2.008,2.008,0,0,1,2.059-.849,1.935,1.935,0,0,1,1.021.549,2.072,2.072,0,0,1,.55,1.021A2.02,2.02,0,0,1-295.185,1988.675Z" fill="#94c20c"/>
        <path id="Path_257" data-name="Path 257" d="M-310.615,2002.094a2,2,0,0,1,0-2.83h0a2,2,0,0,1,2.829,0h0a2,2,0,0,1,0,2.83h0a1.991,1.991,0,0,1-1.409.59A2.014,2.014,0,0,1-310.615,2002.094Zm4.67-4.669a2.005,2.005,0,0,1,0-2.831h0a2,2,0,0,1,2.83,0h0a2.007,2.007,0,0,1,0,2.831h0a2,2,0,0,1-1.41.589A2.018,2.018,0,0,1-305.945,1997.425Zm4.67-4.67a2,2,0,0,1,0-2.83h0a2,2,0,0,1,2.83,0h0a2.006,2.006,0,0,1,0,2.83h0a2,2,0,0,1-1.41.589A2.019,2.019,0,0,1-301.275,1992.755Z" fill="#94c20c"/>
        <path id="Path_258" data-name="Path 258" d="M-313.865,2007.354a2.013,2.013,0,0,1-1.41-.59,2.012,2.012,0,0,1,.3-3.08,2.081,2.081,0,0,1,.34-.179,1.869,1.869,0,0,1,.379-.111,1.743,1.743,0,0,1,.781,0,1.626,1.626,0,0,1,.37.111,1.818,1.818,0,0,1,.349.179A2.013,2.013,0,0,1-313.865,2007.354Z" fill="#94c20c"/>
      </g>
      <g id="Group_152" data-name="Group 152">
        <path id="Path_259" data-name="Path 259" d="M-300.635,1983.234a2.017,2.017,0,0,1-1.411-3.42,2.077,2.077,0,0,1,1.021-.55,2.018,2.018,0,0,1,2.05.85,1.823,1.823,0,0,1,.3.721,2.011,2.011,0,0,1-.54,1.809A2,2,0,0,1-300.635,1983.234Z" fill="#94c20c"/>
        <path id="Path_260" data-name="Path 260" d="M-317.8,1989.255a2,2,0,0,1,.96-2.661h0a2.011,2.011,0,0,1,2.66.97h0a2,2,0,0,1-.959,2.66h0a1.952,1.952,0,0,1-.85.191A2,2,0,0,1-317.8,1989.255Zm5.12-2.391a2,2,0,0,1,.96-2.659h0a2,2,0,0,1,2.661.96h0a1.994,1.994,0,0,1-.97,2.659h0a1.933,1.933,0,0,1-.84.19A2.007,2.007,0,0,1-312.676,1986.864Zm5.111-2.4a1.992,1.992,0,0,1,.97-2.651h0a2,2,0,0,1,2.66.96h0a2.011,2.011,0,0,1-.97,2.66h0a1.96,1.96,0,0,1-.851.191A2,2,0,0,1-307.565,1984.465Z" fill="#94c20c"/>
        <path id="Path_261" data-name="Path 261" d="M-321.105,1992.8a1.681,1.681,0,0,1-.391-.04,1.84,1.84,0,0,1-.72-.3,1.454,1.454,0,0,1-.3-.25,1.973,1.973,0,0,1-.43-2.18,1.815,1.815,0,0,1,.43-.641,1.454,1.454,0,0,1,.3-.25,1.842,1.842,0,0,1,.72-.3,2.09,2.09,0,0,1,.78,0,1.715,1.715,0,0,1,.72.3,1.521,1.521,0,0,1,.311.25,2.562,2.562,0,0,1,.25.3,1.946,1.946,0,0,1,.29.721,2.005,2.005,0,0,1-.54,1.8,1.521,1.521,0,0,1-.311.25,1.748,1.748,0,0,1-.71.3A1.743,1.743,0,0,1-321.105,1992.8Z" fill="#94c20c"/>
      </g>
      <g id="Group_153" data-name="Group 153">
        <path id="Path_262" data-name="Path 262" d="M-289.735,1994.125a2.016,2.016,0,0,1-1.42-3.42,2,2,0,0,1,2.829,2.83,2.17,2.17,0,0,1-1.019.55A2.708,2.708,0,0,1-289.735,1994.125Z" fill="#94c20c"/>
        <path id="Path_263" data-name="Path 263" d="M-297.765,2009.285a1.994,1.994,0,0,1-.97-2.66h0a2.011,2.011,0,0,1,2.659-.971h0a2,2,0,0,1,.961,2.66h0a2,2,0,0,1-1.811,1.16A1.931,1.931,0,0,1-297.765,2009.285Zm2.389-5.12a2.012,2.012,0,0,1-.969-2.66h0a2,2,0,0,1,2.66-.96h0a2.007,2.007,0,0,1,.969,2.66h0a2,2,0,0,1-1.809,1.149A1.958,1.958,0,0,1-295.376,2004.165Zm2.391-5.111a2,2,0,0,1-.96-2.66h0a2,2,0,0,1,2.659-.969h0a2,2,0,0,1,.96,2.66h0a1.989,1.989,0,0,1-1.809,1.149A2.1,2.1,0,0,1-292.985,1999.054Z" fill="#94c20c"/>
        <path id="Path_264" data-name="Path 264" d="M-299.315,2014.585a2.021,2.021,0,0,1-1.42-.58,2.027,2.027,0,0,1-.54-1.811,2.022,2.022,0,0,1,.29-.72,2.066,2.066,0,0,1,1.279-.849,2.006,2.006,0,0,1,.78,0A2,2,0,0,1-299.315,2014.585Z" fill="#94c20c"/>
      </g>
    </g>
  </g>
</svg>
