<svg xmlns="http://www.w3.org/2000/svg" width="343" height="53.001" viewBox="0 0 343 53.001">
  <g id="Group_457" data-name="Group 457" transform="translate(-16 -591)">
    <g id="Group_363" data-name="Group 363">
      <path id="Path_729" data-name="Path 729" d="M1778.68,679.448c1-.386,2.06-.816,3.1-1.247l.113.249c-1.449,1.111-3.575,2.765-6.472,4.623a.939.939,0,0,1-.5.657l-1.131-2.561c.633-.181,1.629-.521,2.851-.952v-7.659h-2.4l-.182-.657h2.58v-6.481l2.874.295c-.068.317-.249.544-.837.612V671.9h.407l1.063-1.677s1.2,1.2,1.856,1.972c-.045.249-.272.363-.588.363h-2.738Zm15.568,3.4c.769.272,1,.522,1,.929,0,1.065-1.109,1.427-6.087,1.427H1785.9c-2.557,0-3.44-.453-3.44-2.4v-8.815l-2.466.907-.43-.544,2.9-1.088v-6.5l2.874.34c-.045.295-.271.544-.814.634v4.782l2.444-.907v-6.616l2.829.295c-.045.317-.226.544-.815.634v4.94l2.354-.884.2-.068h-.023l1.109-1.088,2.036,1.677a1.385,1.385,0,0,1-.86.363c-.067,6.005-.294,7.886-1.154,8.679a3.039,3.039,0,0,1-2.149.748,2.318,2.318,0,0,0-.249-1.382,1.926,1.926,0,0,0-1.131-.612v-.363c.43.045,1.131.091,1.471.091.317,0,.43-.045.566-.2.385-.408.543-2.356.611-7.274l-2.783,1.02v9.4c0,.227-.882.68-1.629.68h-.385V672.31l-2.444.906v9.064c0,.658.295.907,1.584.907h3.191a26.786,26.786,0,0,0,2.828-.091.906.906,0,0,0,.747-.34,15.129,15.129,0,0,0,1.063-3.263h.249Z" transform="translate(-1757.793 -73.899)" fill="#fff"/>
      <path id="Path_730" data-name="Path 730" d="M1827.694,678.823c-1.267,1-3.213,2.493-5.884,4.329a.93.93,0,0,1-.475.634l-1.313-2.493c.566-.159,1.562-.521,2.784-.952v-8h-2.354l-.181-.657h2.535v-6.1l2.941.272c-.068.317-.248.566-.837.634v5.19h.2l1.041-1.587s1.109,1.043,1.811,1.79l1.584.657h1.991l.837-.838,1.7,1.269a1.261,1.261,0,0,1-.634.317v4.962a2.307,2.307,0,0,1-1.448.544h-.272v-1.179h-2.331v1.291c0,.136-.542.521-1.38.521h-.294V672.3a1.133,1.133,0,0,1-.271.045h-2.535v7.229c.86-.318,1.788-.68,2.693-1.02Zm6.879.93c-1.629.861-3.983,2.062-7.241,3.49a.755.755,0,0,1-.5.566l-1.154-2.2c1.516-.272,5.137-1.2,8.8-2.176Zm6.54,4.147c.5.861.634,1.7.317,1.949-.815.679-2.037-.046-2.9-1.065a12.424,12.424,0,0,1-2.218-3.49,17.443,17.443,0,0,1-7.4,4.668l-.181-.362a17.345,17.345,0,0,0,6.948-5.96,37.9,37.9,0,0,1-1.471-9.63h-7.037l-.181-.612h7.2c-.068-1.291-.091-2.629-.091-3.965l2.806.317c-.045.295-.249.544-.792.634-.022,1-.022,2.016,0,3.014h2.33l.476-.635a1.254,1.254,0,0,1-.724-.271,4.012,4.012,0,0,0-1.29-2.289l.226-.159c2.466.272,3.01,1.427,2.715,2.152.407.34,1.154.975,1.675,1.473-.068.227-.271.34-.588.34h-4.8a38.2,38.2,0,0,0,.86,7.3,28.449,28.449,0,0,0,1.833-5.507l2.67.884c-.114.272-.317.385-.928.363a23.943,23.943,0,0,1-2.9,6.481,8.457,8.457,0,0,0,1.992,3.172c.271.272.453.318.656-.067a20.939,20.939,0,0,0,1-2.651l.249.045Zm-11.722-10.718v3.784h2.331v-3.784Z" transform="translate(-1780.25 -74.113)" fill="#fff"/>
      <path id="Path_731" data-name="Path 731" d="M1876.688,686.726c5.635-1.179,8.011-4.215,8.011-8.226a6.332,6.332,0,0,0-6.517-6.73c-.272,0-.566.023-.86.045a4.452,4.452,0,0,1,1.29,2.7,11.568,11.568,0,0,1-.747,3.852c-.973,2.809-3.553,7.047-6.11,7.047-1.7,0-3.326-2.606-3.326-5.507a8.9,8.9,0,0,1,3.19-6.572,9.978,9.978,0,0,1,6.766-2.4c4.956,0,8.622,3.376,8.622,8.09,0,4.056-2.739,7.8-10.228,8.18ZM1876.394,672a8.551,8.551,0,0,0-4.119,2.334,7.17,7.17,0,0,0-2.149,5.008c0,1.971.86,3.626,1.787,3.626,1.381,0,3.417-3.308,4.209-5.121a10.409,10.409,0,0,0,.927-3.83A3.817,3.817,0,0,0,1876.394,672Z" transform="translate(-1803.766 -76.781)" fill="#fff"/>
      <path id="Path_732" data-name="Path 732" d="M1922.011,672.085c-1.9.793-4.662,1.9-8.667,3.308a.809.809,0,0,1-.566.522l-1.222-2.538c.679-.068,1.7-.2,2.919-.408v-8.022l2.9.272c-.068.317-.249.544-.86.635v2.923h2.15l1.222-1.609s1.358,1.111,2.15,1.9c-.045.249-.25.362-.589.362h-4.933v3.24c1.675-.272,3.553-.589,5.454-.907Zm5.295,3.354,2.263,1.722a1.689,1.689,0,0,1-.951.476V685.3a3.146,3.146,0,0,1-1.787.589h-.362v-1.5h-9.007v.884c0,.2-.9.68-1.811.68h-.294V675.665l2.263.929h2.263c.136-.748.317-1.768.407-2.493l3.258.566c-.09.362-.407.544-.882.567-.408.385-1,.906-1.516,1.359h5.091Zm-9.844,1.813v2.833h9.007v-2.833Zm9.007,6.481v-2.991h-9.007v2.991Zm4.955-11.036c.588.2.769.431.769.816,0,.884-.86,1.246-4.526,1.246h-2.421c-2.037,0-2.489-.408-2.489-1.881v-7.931l2.715.272c-.023.295-.248.5-.679.566v3.6a23.908,23.908,0,0,0,4.526-2.81l2.285,1.881c-.2.227-.634.249-1.244.045a33.735,33.735,0,0,1-5.567,1.541v2.4c0,.317.114.43.86.43h2.172c.86,0,1.629,0,1.924-.023a.729.729,0,0,0,.566-.227,12.634,12.634,0,0,0,.769-2.221h.249Z" transform="translate(-1824.717 -73.879)" fill="#fff"/>
      <path id="Path_733" data-name="Path 733" d="M1961.96,673.335c4.57,2.062,2.715,5.257,1.154,3.807a8.782,8.782,0,0,0-1.154-3.218v11.285c0,.249-.86.634-1.607.634h-.43v-9.426a16.617,16.617,0,0,1-3.1,4.215l-.294-.294a25.043,25.043,0,0,0,3.19-9.359h-2.76l-.181-.657h3.146V664.86l2.851.294c-.045.34-.227.566-.814.657v4.509h.43l1.086-1.518s1.2,1.065,1.923,1.813a.541.541,0,0,1-.588.362h-2.851Zm15.5,3.988c-.135.227-.339.317-.837.181a23.945,23.945,0,0,1-3.3,2.04,9.378,9.378,0,0,0,4.843,3.082l-.023.249a2.483,2.483,0,0,0-1.561,1.994c-2.512-1.563-4.073-3.58-4.911-7.682v6.118c0,1.4-.316,2.356-2.693,2.56a2.417,2.417,0,0,0-.385-1.359,2.7,2.7,0,0,0-1.652-.657v-.317s1.811.136,2.218.136c.362,0,.453-.136.453-.43v-3.082c-.974.884-2.331,2.176-4.164,3.762a.8.8,0,0,1-.407.634l-1.584-2.084c1.063-.362,3.621-1.519,6.155-2.7v-4.487h-5l-.181-.658h5.182V672.2h-4.028l-.181-.634h4.209v-2.2h-4.685l-.181-.657h6.879c.407-1.179.928-2.765,1.245-3.9l2.805.794c-.091.272-.339.453-.86.43a36.53,36.53,0,0,1-2.647,2.674h2.081l1.177-1.451s1.335,1,2.127,1.745a.542.542,0,0,1-.588.362h-5.3v2.2h2.06l1.154-1.451s1.335,1,2.1,1.722c-.045.249-.249.363-.565.363h-4.752v2.424h2.9l1.177-1.541s1.334,1.065,2.15,1.835c-.069.25-.294.363-.611.363h-5.612v.589a9.267,9.267,0,0,0,1.358,3.241,23.545,23.545,0,0,0,2.127-3.308Zm-11.948-1.246c4.775,1.246,2.9,4.69,1.222,3.263a5.5,5.5,0,0,0-1.448-3.1Zm1.131-11.171c4.82,1.337,2.92,4.872,1.155,3.422a7,7,0,0,0-1.38-3.286Z" transform="translate(-1846.564 -73.814)" fill="#fff"/>
      <path id="Path_734" data-name="Path 734" d="M2012.844,672.852a11.539,11.539,0,0,1,1.675-.159c1.742,0,2.851,1.02,2.851,3.9,0,2.832-.769,6.05-2.286,7.818a3.708,3.708,0,0,1-2.851,1.359c-.838,0-1.087-.34-1.358-1.269-.136-.385-.294-.634-1.471-1.768l.226-.317a7.4,7.4,0,0,0,2.67,1.133,1.808,1.808,0,0,0,1.652-.952c.928-1.246,1.652-4.283,1.652-6.685,0-1.4-.385-2.062-1.516-2.062a8.017,8.017,0,0,0-1.811.317c-.634,1.5-1.357,3.2-1.991,4.532-1.131,2.38-2.421,4.986-3.3,6.39-.43.725-.747.929-1.244.929a1.069,1.069,0,0,1-.928-1.178,1.781,1.781,0,0,1,.453-1.291,30.58,30.58,0,0,0,3.485-5.575c.5-.974.973-2.062,1.4-3.127-.679.249-1.313.5-1.743.7a5.071,5.071,0,0,1-1.833.589c-.634,0-1.584-1.042-1.765-1.88a2.869,2.869,0,0,1,.181-1.45l.362-.068c.34.68.566,1.269,1.177,1.269a34,34,0,0,0,4.254-.793,16.345,16.345,0,0,0,1.041-3.512.658.658,0,0,0-.339-.658,6.149,6.149,0,0,0-1.7-.43v-.408a3.976,3.976,0,0,1,1.811-.453c1,0,2.9.862,2.9,1.541,0,.59-.566.884-.838,1.564Zm5.861-.227a6.4,6.4,0,0,1,4.051,1.745,6.1,6.1,0,0,1,1.629,4.373c0,1.156-.407,2.04-1.267,2.062-.724,0-.724-.68-1.425-.906a11.157,11.157,0,0,0-2.557-.136l-.113-.475a24.354,24.354,0,0,0,2.511-.658c.5-.2.656-.43.634-1.042a5.225,5.225,0,0,0-.837-2.606,4.256,4.256,0,0,0-2.806-1.881Zm.973-3.807a8.03,8.03,0,0,1,2.829,1.45,1.742,1.742,0,0,1,.724,1.314.684.684,0,0,1-.7.725c-.385,0-.657-.408-1.064-.952a9.245,9.245,0,0,0-2.059-2.175Zm2.059-1.5a8.264,8.264,0,0,1,2.806,1.178,1.766,1.766,0,0,1,.814,1.405.639.639,0,0,1-.657.725c-.407,0-.656-.453-1.131-1a9.643,9.643,0,0,0-2.06-1.972Z" transform="translate(-1870.002 -75.031)" fill="#fff"/>
      <path id="Path_735" data-name="Path 735" d="M2054.289,671.384c-.068.2-.272.362-.679.431V685.3a2.516,2.516,0,0,1-1.629.566h-.362V673.877a17.519,17.519,0,0,1-1.969,2.651l-.317-.181a44.092,44.092,0,0,0,3.53-11.489l2.919.907c-.091.272-.362.476-.882.476a36.151,36.151,0,0,1-1.72,4.713Zm12.332,3.376v-.612h-2.036v2.312h1.719l1.086-1.4s1.267.974,2.059,1.7c-.068.249-.294.363-.611.363h-4.254V679.5h2.466l1.177-1.473s1.313,1.043,2.1,1.768a.54.54,0,0,1-.588.363h-5.159v2.084c0,.227-.883.658-1.63.658h-.362v-2.742h-3.53l-.181-.657h3.711v-2.379h-2.761l-.181-.657h2.942v-2.312h-2.15c-.158.2-.339.272-.814.34a20.113,20.113,0,0,1-1.787,6.956c1.833,1.564,4.39,1.949,8.033,1.949,1.131,0,3.666,0,4.933-.023v.294c-.793.159-1.154.929-1.177,1.813h-3.915c-3.983,0-6.7-.612-8.553-2.878a11.233,11.233,0,0,1-3.259,3.286l-.227-.294a11.272,11.272,0,0,0,2.648-4.261,17.316,17.316,0,0,1-1.675-4.962l.294-.113a12.543,12.543,0,0,0,1.765,3.943,27.489,27.489,0,0,0,.883-5.96h-1.222l-.34.793a2.983,2.983,0,0,1-1.923-.181c1.041-2.243,2.173-5.144,2.9-7.138h-1.9l-.2-.657h2.082l.951-1.019,2.06,1.677a1.62,1.62,0,0,1-1.064.362c-.5,1.337-1.426,3.581-2.263,5.507h.747l1.086-1.11,1.652,1.427-.113-.408h2.557V671h-3.643l-.181-.657h3.824v-2.4h-2.285l-.182-.658h2.467V665.13l2.806.295c-.045.317-.227.544-.815.634v1.223h1.833l.927-1.02,2.082,1.541a1.763,1.763,0,0,1-.95.453v2.085h.067l.928-1.36s1.041.974,1.652,1.654a.542.542,0,0,1-.589.363h-2.059v3.24a2.609,2.609,0,0,1-1.562.521Zm-2.036-4.419h2.036v-2.4h-2.036Zm2.036,3.15V671h-2.036v2.493Z" transform="translate(-1891.646 -73.835)" fill="#fff"/>
      <path id="Path_736" data-name="Path 736" d="M2102.951,667.233a5.226,5.226,0,0,1,4.1,1.382,2.58,2.58,0,0,1,.724,1.7.787.787,0,0,1-.837.884,14.729,14.729,0,0,1-1.47-.272,23.926,23.926,0,0,0-3.938-.091c-.611.045-.927.136-.927.612s.9,1.519,1.629,2.538c3.1-1.5,6.064-2.651,8.44-2.651,2.942,0,4.8,1.745,4.8,4.033,0,2.38-2.06,3.9-4.843,3.9a6.219,6.219,0,0,1-5.024-3.014l.339-.318a6.5,6.5,0,0,0,4.39,1.632c1.879,0,3.236-1.02,3.236-2.742a2.751,2.751,0,0,0-2.987-2.628c-2.1,0-4.91,1.4-7.535,3.036a45.7,45.7,0,0,1,3.327,6.708,10.432,10.432,0,0,1,.837,3.218c0,.816-.407,1.383-1.109,1.383-.544,0-.861-.318-1.086-1.088-.2-.634-.407-1.858-.792-3.286a27.3,27.3,0,0,0-2.558-6.051c-.656.431-1.312.862-1.9,1.269-.95.657-1.29,1.178-1.991,1.178a3.363,3.363,0,0,1-2.218-1.314,2.527,2.527,0,0,1-.317-1.7l.407-.181c.362.5.815,1,1.335,1a5.568,5.568,0,0,0,2.059-.771c.565-.295,1.154-.589,1.719-.884a16.652,16.652,0,0,0-1.018-1.4c-.475-.589-1-1-.86-1.858.159-1.45,1.426-1.337,2.218-1.4,1.562-.091,3.146-.227,3.734-.295.317-.045.43-.227.271-.544a3.647,3.647,0,0,0-2.285-1.563Z" transform="translate(-1913.936 -74.986)" fill="#fff"/>
      <path id="Path_737" data-name="Path 737" d="M2149.936,672.905a11.526,11.526,0,0,1,1.675-.159c1.742,0,2.851,1.02,2.851,3.9,0,2.832-.77,6.05-2.285,7.818a3.71,3.71,0,0,1-2.851,1.359c-.837,0-1.086-.34-1.357-1.269-.136-.385-.295-.634-1.472-1.767l.227-.318a7.388,7.388,0,0,0,2.67,1.133,1.809,1.809,0,0,0,1.652-.952c.928-1.246,1.652-4.283,1.652-6.685,0-1.4-.385-2.062-1.517-2.062a8.013,8.013,0,0,0-1.81.317c-.633,1.5-1.358,3.2-1.991,4.532-1.131,2.38-2.421,4.986-3.3,6.39-.43.725-.747.929-1.245.929a1.068,1.068,0,0,1-.927-1.178,1.781,1.781,0,0,1,.452-1.292,30.657,30.657,0,0,0,3.485-5.574c.5-.974.972-2.062,1.4-3.127-.679.249-1.312.5-1.742.7a5.085,5.085,0,0,1-1.833.589c-.633,0-1.584-1.042-1.764-1.881a2.871,2.871,0,0,1,.18-1.45l.362-.068c.339.68.566,1.269,1.177,1.269a33.975,33.975,0,0,0,4.254-.793,16.329,16.329,0,0,0,1.041-3.512.659.659,0,0,0-.339-.658,6.172,6.172,0,0,0-1.7-.43v-.408a3.976,3.976,0,0,1,1.811-.453c1,0,2.9.861,2.9,1.541,0,.59-.566.884-.838,1.564Zm5.861-.226a6.4,6.4,0,0,1,4.051,1.745,6.106,6.106,0,0,1,1.629,4.373c0,1.156-.407,2.04-1.268,2.062-.724,0-.724-.68-1.426-.906a11.121,11.121,0,0,0-2.557-.137l-.113-.476a24.3,24.3,0,0,0,2.512-.657c.5-.2.656-.43.634-1.042a5.219,5.219,0,0,0-.838-2.606,4.254,4.254,0,0,0-2.805-1.881Z" transform="translate(-1936.6 -75.266)" fill="#fff"/>
      <path id="Path_738" data-name="Path 738" d="M2190.648,667.136a4.531,4.531,0,0,1,1.629-.385,3.373,3.373,0,0,1,1.9.521c.452.295.249.884-.475,3.241,1.856-.612,2.376-1.088,2.739-1.088a.963.963,0,0,1,1.018.906c0,.453-.407.748-.724.974a14.009,14.009,0,0,1-3.666,1.224,40.979,40.979,0,0,1-4.005,9.041c-.476.725-.837,1.2-1.381,1.2-.634,0-.973-.612-.973-1.246a2,2,0,0,1,.5-1.314,24.471,24.471,0,0,0,4.141-7.41,14.729,14.729,0,0,1-1.675.114c-1.811,0-2.625-.589-3.281-2.719l.339-.249a4.292,4.292,0,0,0,3.1,1.291,10.221,10.221,0,0,0,2.037-.249,12.6,12.6,0,0,0,.316-2.107.912.912,0,0,0-.521-.952,4.717,4.717,0,0,0-1.018-.453Zm8.259,3.92a6.365,6.365,0,0,1,3.349.068c1.471.476,2.331,1.451,2.331,2.561,0,.657-.249,1.088-.838,1.088-.747,0-1.244-.566-2.376-.521a2.676,2.676,0,0,0-1.878.816,2.954,2.954,0,0,0-.339,2.108c.068.657.294,1.9.5,3.173a11.24,11.24,0,0,1,3.123,1.337c1.29.748,2.059,1.541,2.059,2.38,0,.7-.385,1.02-.837,1.02-.566,0-.883-.521-1.584-1.156a9.424,9.424,0,0,0-2.557-1.745c.023.317.045.612.045.884,0,1.948-1.493,3.036-3.96,3.036-2.444,0-3.825-1.224-3.825-2.765,0-1.767,1.811-3.285,4.979-3.285.294,0,.566,0,.837.022-.045-.816-.113-1.654-.113-2.379a4.161,4.161,0,0,1,1-3.059,7.92,7.92,0,0,1,2.624-1.7c.272-.181.181-.43-.113-.68a4.385,4.385,0,0,0-2.422-.725Zm-.9,10.514a9.113,9.113,0,0,0-1.991-.2c-1.946,0-2.9.861-2.9,1.609,0,.771.678,1.36,2.285,1.36,1.878,0,2.6-.884,2.6-2.2Z" transform="translate(-1958.229 -74.754)" fill="#fff"/>
      <path id="Path_739" data-name="Path 739" d="M2247.908,668.807a1.848,1.848,0,0,1-.928.475v16.61a3.12,3.12,0,0,1-1.946.725h-.362v-1.972h-9.64v1.291c0,.295-.86.839-1.832.839h-.385V667.22l2.4,1h9.233l1.154-1.246Zm-12.876.067v7.093h9.64v-7.093Zm9.64,15.115v-7.365h-9.64v7.365Z" transform="translate(-1980.779 -74.86)" fill="#fff"/>
      <path id="Path_740" data-name="Path 740" d="M2290.454,670c-.181.181-.43.227-.882.249a15.507,15.507,0,0,1-2.919,2.017l-.227-.159a22.745,22.745,0,0,0,.7-2.288H2272.85a3.3,3.3,0,0,1-1.29,3.127,1.272,1.272,0,0,1-1.9-.385,1.316,1.316,0,0,1,.792-1.564,3.563,3.563,0,0,0,1.652-3.082h.339a7.659,7.659,0,0,1,.34,1.269h6V664.9l2.942.272c-.045.294-.226.521-.792.589v3.422h1.561a37.448,37.448,0,0,0,1.7-4.033l3.032,1.088c-.113.227-.407.385-.905.34a26.719,26.719,0,0,1-3.145,2.606h3.87l1.244-1.247Zm-4.276,7.138,2.308,1.722a1.615,1.615,0,0,1-.951.43v3.149c0,1.428-.317,2.312-2.829,2.538a2.349,2.349,0,0,0-.429-1.45,2.841,2.841,0,0,0-1.7-.7v-.317s1.878.135,2.375.135c.362,0,.475-.135.475-.408v-3.285h-4.571v6.209a1.922,1.922,0,0,1-1.72.748h-.362v-6.956h-4.367v5.393c0,.2-.928.68-1.788.68h-.317v-7.682l2.263.952h4.209v-2.356H2276.2v.544c0,.181-.951.657-1.811.657h-.294V670.93l2.218.907h7.105l1.018-1.088,2.15,1.632a1.448,1.448,0,0,1-.815.408v3.467a3.282,3.282,0,0,1-1.788.544h-.362v-.861h-2.761v2.356h4.345ZM2273.437,665.2c5.273,1.02,3.44,4.962,1.517,3.49a5.9,5.9,0,0,0-1.742-3.331ZM2276.2,675.3h7.422v-2.81H2276.2Z" transform="translate(-1998.648 -73.857)" fill="#fff"/>
      <path id="Path_741" data-name="Path 741" d="M2331.367,682.483s1.63,1.224,2.624,2.108c-.067.249-.293.362-.633.362h-20.23l-.2-.657h9.278v-6.73h-6.472l-.181-.657h6.654v-5.755h-4.481a19.059,19.059,0,0,1-4.684,5.416l-.294-.2a30.672,30.672,0,0,0,4.571-10.628l3.19.974c-.09.272-.362.476-.882.453a28.214,28.214,0,0,1-1.539,3.331h4.119v-5.461l3.146.317c-.046.34-.227.566-.815.657V670.5h4.231l1.381-1.7s1.539,1.11,2.557,1.994c-.068.249-.295.363-.634.363h-7.535v5.755H2328l1.4-1.722s1.584,1.178,2.557,2.016c-.045.249-.294.362-.611.362h-6.812v6.73h5.386Z" transform="translate(-2019.609 -73.921)" fill="#fff"/>
      <path id="Path_742" data-name="Path 742" d="M2358.795,670.42c5.567.385,4.209,4.441,2.15,3.218a7.1,7.1,0,0,0-2.331-3.036Zm6.925-.725c-.973,2.7-2.761,7.7-3.055,8.815a8.231,8.231,0,0,0-.385,2.039c.045,1.11.814,1.994.747,3.9a1.607,1.607,0,0,1-1.652,1.745c-.475,0-.9-.385-1.018-1.133.362-2.356.249-4.283-.271-4.623a2.169,2.169,0,0,0-1.132-.362v-.453h1.019c.317,0,.407,0,.656-.431.5-.838.5-.838,4.707-9.562Zm-5.25-4.237c5.747.476,4.458,4.623,2.331,3.444a8.4,8.4,0,0,0-2.511-3.263Zm17.107,5.189s1.471,1.2,2.331,2.017c-.045.249-.294.34-.611.34h-6.042v4.441h2.422l1.086-1.178,2.241,1.722a1.532,1.532,0,0,1-.928.476v6.866a3.021,3.021,0,0,1-1.788.635h-.362v-1.79h-7.512V685.4c0,.2-.906.656-1.811.656h-.317v-9.562l2.263.952h2.511V673h-5.928l-.181-.634h6.109V668.4c-1.878.227-3.823.385-5.656.453l-.068-.386a57.527,57.527,0,0,0,11.292-3.172l2.263,2.13c-.226.2-.7.226-1.358-.023-1.2.249-2.67.5-4.277.725v4.238h3.032Zm-9.164,7.455v5.416h7.512V678.1Z" transform="translate(-2041.891 -74.049)" fill="#fff"/>
      <path id="Path_743" data-name="Path 743" d="M2420.756,672.1a4.593,4.593,0,0,1,2.014.544,3.177,3.177,0,0,1,1.538,2.152c0,.566-.475.589-1.493.884a54,54,0,0,0-6.02,2.2c.091,1.292.114,2.719.114,3.512,0,.68-.34,1.156-.973,1.156a.992.992,0,0,1-1.064-1.088c0-.589.091-1.586.113-2.674-2.014,1.133-3.575,2.47-3.575,3.762,0,1.043,1.109,1.677,3.3,1.677,3.371,0,4.684-.748,5.657-.748s1.719.272,1.719,1c0,.521-.2.861-1,1.088a21.983,21.983,0,0,1-5.091.612c-4.323,0-5.7-1.473-5.7-3.354,0-1.9,2.263-3.83,4.707-5.37-.068-1.813-.385-2.515-1.516-2.515-1.177,0-2.625,1.473-3.485,2.47-.815.952-1.494,2.22-2.218,2.243-.633.023-.95-.521-.973-1.269,0-.725.792-1.2,1.72-2.2a19.36,19.36,0,0,0,3.055-4.033c-.566.045-1.132.091-1.7.091-1.833,0-2.241-.884-2.987-2.674l.385-.227a3.674,3.674,0,0,0,3.055,1.315,15.98,15.98,0,0,0,2.172-.249,8.968,8.968,0,0,0,.612-1.722.645.645,0,0,0-.339-.861,6.825,6.825,0,0,0-1.335-.476v-.362a5.224,5.224,0,0,1,1.516-.363c.837,0,2.512.34,2.512,1.042,0,.317-.182.476-.408.952-.181.362-.43.839-.679,1.337.95-.272,1.81-.566,2.376-.793.838-.363,1.041-.635,1.357-.635.68,0,1.268.227,1.268.862,0,.317-.2.612-.724.861a22.763,22.763,0,0,1-5.318,1.631,24.142,24.142,0,0,1-1.923,2.923c-.091.136-.023.249.158.136a4.8,4.8,0,0,1,2.466-.838,2.55,2.55,0,0,1,2.557,2.425c1.7-.884,3.734-1.768,4.887-2.425.385-.2.453-.453.136-.793a3.622,3.622,0,0,0-1.109-.816Z" transform="translate(-2065.309 -74.689)" fill="#fff"/>
    </g>
    <g id="Group_364" data-name="Group 364" transform="translate(-28.66)">
      <path id="Path_744" data-name="Path 744" d="M1890.838,743.618c1.606,1.7,3.258,1.949,7.331,1.949,2.648,0,6.2-.023,9.006-.091v.295a1.774,1.774,0,0,0-1.448,1.79h-7.536c-4.254,0-6.065-.612-7.648-3.535a39.648,39.648,0,0,1-3.055,3.49.459.459,0,0,1-.294.521l-1.267-2.424c.747-.294,1.81-.793,2.9-1.337v-6.8h-2.716l-.136-.656h2.534l1.087-1.473,2.376,1.971a1.839,1.839,0,0,1-1.131.454Zm-3.508-15.5c6.155,1.473,4.367,5.937,2.24,4.351a9.074,9.074,0,0,0-2.444-4.192Zm7.309,15.659c0,.2-.837.657-1.629.657h-.294V734.01l1.878.793v-7.3l2.127.884h4.842l.928-1.224,2.285,1.631a1.4,1.4,0,0,1-1.041.43v5.529l.792-.884,2.059,1.519a1.423,1.423,0,0,1-.769.385v6.866c0,1.269-.294,1.926-2.511,2.107a1.438,1.438,0,0,0-.362-1.088,2.315,2.315,0,0,0-1.4-.521v-.317s1.516.113,1.923.113c.317,0,.385-.159.385-.408v-7h-9.21Zm5.884-1.5V741.4h-2.489v.974c0,.159-.724.521-1.4.521h-.226v-6.458l1.742.748h2.2l.814-.839,1.72,1.315a1.069,1.069,0,0,1-.7.34v3.739c0,.159-.837.544-1.38.544Zm-4.05-13.257v5.847h1.81v-4.4l1.924.793h1.584v-2.244Zm4.05,11.738V737.84h-2.489v2.923Zm-.611-5.891h1.878V731.9h-1.878Z" transform="translate(-1812.266 -104.06)" fill="#fff"/>
      <path id="Path_745" data-name="Path 745" d="M1934.778,739.728c.113,3.06.9,5.054,5.7,5.054a22.932,22.932,0,0,0,6-.929c.724,0,1.787.408,1.787,1.156,0,.612-.249.861-1.109,1.156a20.322,20.322,0,0,1-6.155.748c-6.246,0-7.807-2.969-6.743-7.161Zm2.783-4.1c1-.68,2.263-1.609,2.986-2.153.227-.181.2-.249-.09-.249-2.466-.046-4.277-.3-5.5-2.448l.294-.3a6.479,6.479,0,0,0,4.232,1.156c2.851,0,3.417-.544,4.413-.544.973,0,2.489.589,2.489,1.314,0,.521-.317.793-1.019.929a17.946,17.946,0,0,0-2.421.566,41.354,41.354,0,0,0-5.136,2.108Zm8.3-6.572a7.826,7.826,0,0,1,2.828,1.473,1.746,1.746,0,0,1,.7,1.337.665.665,0,0,1-.7.7c-.362-.023-.633-.408-1.041-.974a10.61,10.61,0,0,0-2.037-2.176Zm2.014-1.4a8.312,8.312,0,0,1,2.783,1.178,1.7,1.7,0,0,1,.792,1.4c0,.454-.226.7-.634.7s-.656-.431-1.109-1a12.031,12.031,0,0,0-2.082-1.971Z" transform="translate(-1835.594 -104.294)" fill="#fff"/>
      <path id="Path_746" data-name="Path 746" d="M1976.6,730.512a4.405,4.405,0,0,1,2.24-.793c1.086,0,2.036.362,2.172.838a20.36,20.36,0,0,0,1.063,3.014,20.089,20.089,0,0,0,3.6-2.039,1.744,1.744,0,0,1,1.539.317.906.906,0,0,1-.182,1.2,14.839,14.839,0,0,1-4.073,2.153,23.637,23.637,0,0,0,3.915,4.623c.52.521.724.793.724,1.246.023.725-.362,1.835-1.041,1.835-.611,0-1-.407-1.7-.838a10.3,10.3,0,0,0-5.454-1.632c-2.444,0-4.186,1.337-4.186,3.1,0,1.564,1.742,2.674,5.069,2.674,1.629,0,2.512-.25,3.349-.25.86,0,1.584.318,1.584,1.088s-1.131,1.292-4.254,1.292c-4.074,0-7.31-1.428-7.31-4.4,0-2.515,2.671-4.441,6.246-4.441a17.946,17.946,0,0,1,4.661.657c.249.045.317,0,.113-.2a40.687,40.687,0,0,1-3.213-4.26,18.212,18.212,0,0,1-4.729.838c-2.58.045-3.372-.861-4.48-2.946l.362-.295a5.22,5.22,0,0,0,3.892,1.541,16.694,16.694,0,0,0,4.005-.726c-.5-.906-.995-1.88-1.4-2.492-.385-.59-1.132-.68-2.444-.726Z" transform="translate(-1854.203 -105.297)" fill="#fff"/>
      <path id="Path_747" data-name="Path 747" d="M2032.466,742.96c-.882,1.586-2.58,3.309-4.843,3.309-1.72,0-2.828-1.02-2.828-3.24,0-2.629.927-5.145.927-7.614,0-1.405-.385-2.153-1.494-2.153-1.923,0-4.435,1.972-6.449,4.419l-.022.295a38.944,38.944,0,0,0,.181,6.119,18.43,18.43,0,0,1,.2,1.9c0,1.088-.543,2.154-1.29,2.154-.634,0-.906-.34-1-.93a9.188,9.188,0,0,0-.452-1.677,14.169,14.169,0,0,0-1.29-2.334l-1.018,1.518c-.363.522-.634.952-1.109.975-.43,0-.815-.408-.815-1.065a1.87,1.87,0,0,1,.588-1.428,50.756,50.756,0,0,0,4.8-6.141c.045-.521.091-1.02.136-1.518-.656.362-1.335.77-1.742,1.02-.475.317-.7.906-1.131.906a3,3,0,0,1-2.263-1.9,4.1,4.1,0,0,1-.045-1.179l.362-.113c.362.635.724,1.043,1.2,1.043a16.348,16.348,0,0,0,3.825-1.563c.158-1.337.294-2.447.294-3.014,0-.5-.091-.634-.5-.816a5.743,5.743,0,0,0-1.312-.453l-.023-.408a4.385,4.385,0,0,1,1.629-.363c1.132,0,2.489,1.2,2.489,1.949,0,.521-.271.794-.542,1.587-.114.294-.25.77-.408,1.337.408.272.815.748.815.952,0,.294-.2.5-.521.861l-.045.045c1.788-1.586,4.1-3.172,6.11-3.172,1.923,0,2.851,1.156,2.851,3.354,0,1.972-.906,4.645-.906,7,0,1.2.453,1.654,1.494,1.654a5.721,5.721,0,0,0,3.847-1.631Zm-16.066-3.15c-.634.952-1.29,1.926-1.946,2.9.543.635,1.2,1.383,1.471,1.677.249.25.43.2.43-.2C2016.378,743.277,2016.332,741.578,2016.4,739.81Z" transform="translate(-1873.109 -104.807)" fill="#fff"/>
      <path id="Path_748" data-name="Path 748" d="M2059.011,730.934c.339.68.792,1.36,1.38,1.36a24.6,24.6,0,0,0,4.571-1c.724-.227.747-.521,1.154-.521.906,0,2.467,1.223,2.467,2.04,0,.544-.679.68-1.449,1.269a52.488,52.488,0,0,0-5.159,4.577c-.2.2-.091.385.113.3a11.521,11.521,0,0,1,3.847-.771c2.987,0,5.521,1.926,5.477,5.212-.022,2.946-2.648,5.348-7.151,5.348-2.6,0-4.458-1.11-4.458-2.923,0-1.383,1.222-2.334,2.829-2.334a3.839,3.839,0,0,1,3.823,3.172,4.05,4.05,0,0,0,2.987-3.874c.045-1.994-1.357-3.717-4.05-3.717-3.146,0-5.364,2.153-7.286,4.623-.453.612-.679.77-1.131.748-.407,0-.837-.5-.792-1.223.022-.544.317-.952.972-1.587,2.783-2.832,7.264-7.093,8.327-8.656.317-.408.114-.544-.2-.5a18.525,18.525,0,0,0-3.326,1.337c-.43.227-.792.589-1.222.589a2.636,2.636,0,0,1-2.172-2.04,3.632,3.632,0,0,1,.091-1.382Zm5.679,16.089c-.294-1.632-1.289-2.561-2.557-2.561-.837,0-1.4.453-1.4,1.156,0,.838,1,1.45,2.919,1.45C2064.011,747.068,2064.351,747.045,2064.69,747.023Z" transform="translate(-1894.973 -105.81)" fill="#fff"/>
      <path id="Path_749" data-name="Path 749" d="M2101.52,733.411a17.258,17.258,0,0,0,2.557-1.088,2.344,2.344,0,0,1,.905-.43c.5,0,1.38.272,1.38.952,0,.544-.385.861-1.7,1.337a29.207,29.207,0,0,1-3.688,1.133c-.294,1.02-.634,2.153-1,3.2a61.41,61.41,0,0,1-3.281,8.271c-.362.657-.656,1.043-1.334,1.043-.566,0-.973-.635-.973-1.36,0-.748.407-1.043.905-1.9a31.117,31.117,0,0,0,3.191-6.662c.226-.658.475-1.428.679-2.2a14.9,14.9,0,0,1-2.149.2c-1.561,0-2.625-.453-3.349-2.629l.317-.227a4.251,4.251,0,0,0,2.76,1.179,13.942,13.942,0,0,0,2.851-.3,19.346,19.346,0,0,0,.5-2.787c.022-.544-.069-.725-.453-.975a6.8,6.8,0,0,0-1.357-.544l.022-.408a4.147,4.147,0,0,1,1.675-.294c1.132.023,2.58.657,2.58,1.246a16.944,16.944,0,0,1-.792,2.357Zm1.087,8.384a5,5,0,0,0,.724,2.085c.837,1.269,2.173,1.722,4.051,1.722a18.413,18.413,0,0,0,3.462-.431c.725,0,1.584.34,1.584,1.111,0,.543-.566.884-1.38,1.065a14.23,14.23,0,0,1-3.146.294c-3.1,0-5.137-1.133-5.567-3.444a6.539,6.539,0,0,1-.181-2.357Zm1.018-4.781a9.481,9.481,0,0,1,4.526-1.2,6.473,6.473,0,0,1,2.987.589,1.552,1.552,0,0,1,.905,1.246c0,.521-.407.771-1.222.816a4.565,4.565,0,0,0-1.4.249,17.654,17.654,0,0,0-2.67.906l-.249-.34a17.168,17.168,0,0,0,2.15-1.586c.159-.136.091-.25-.09-.318a6.67,6.67,0,0,0-1.969-.272,16.862,16.862,0,0,0-2.829.317Z" transform="translate(-1913.184 -104.91)" fill="#fff"/>
      <path id="Path_750" data-name="Path 750" d="M2149.534,733.822c3.96.5,6.381,3.286,6.381,6.753,0,3.966-2.6,7.183-10.748,7.523l-.091-.476c6.766-1.269,8.622-4.351,8.622-7.433a5.309,5.309,0,0,0-4.5-5.325,39.361,39.361,0,0,1-1.946,4.555,17.133,17.133,0,0,1-1.086,1.926,1.714,1.714,0,0,1,1.131,1.473c0,.5-.362.747-.906.747a2.916,2.916,0,0,1-1.425-.543,9.632,9.632,0,0,1-1.765,1.722,5.347,5.347,0,0,1-3.35,1.428c-1.493,0-2.172-1.518-2.172-3.014a9.117,9.117,0,0,1,3.326-6.685c-.181-.566-.339-1.088-.5-1.518a7.29,7.29,0,0,0-2.059-2.7l.226-.272a5.963,5.963,0,0,1,2.173.838,3.159,3.159,0,0,1,1.471,1.835c.045.2.114.453.159.7a10.252,10.252,0,0,1,5.091-1.609,16.211,16.211,0,0,0,.385-2.2c.023-.522-.2-.657-.588-.77a5.652,5.652,0,0,0-1.335-.2l-.046-.386a3.431,3.431,0,0,1,1.652-.521c.951,0,2.761.907,2.761,1.677,0,.475-.362.77-.565,1.473Zm-5.951,8.068a8.441,8.441,0,0,1-1.493-2.289,20.622,20.622,0,0,1-.747-2.017,7.679,7.679,0,0,0-2.1,4.714c0,1.2.452,1.745,1.041,1.745a3.174,3.174,0,0,0,1.991-.884A13.449,13.449,0,0,0,2143.583,741.889Zm3.711-7.115a8.3,8.3,0,0,0-4.594,1.563,11.22,11.22,0,0,0,.883,2.425,7.407,7.407,0,0,0,1.177,1.563,12.992,12.992,0,0,0,.928-1.518A21.735,21.735,0,0,0,2147.294,734.774Z" transform="translate(-1934.563 -105.275)" fill="#fff"/>
      <path id="Path_751" data-name="Path 751" d="M2189.712,748.726c5.635-1.179,8.011-4.215,8.011-8.226a6.333,6.333,0,0,0-6.517-6.73c-.271,0-.566.023-.86.045a4.454,4.454,0,0,1,1.29,2.7,11.576,11.576,0,0,1-.747,3.852c-.973,2.81-3.552,7.047-6.109,7.047-1.7,0-3.327-2.607-3.327-5.507a8.9,8.9,0,0,1,3.19-6.572,9.979,9.979,0,0,1,6.766-2.4c4.956,0,8.622,3.376,8.622,8.09,0,4.057-2.738,7.794-10.228,8.18ZM2189.418,734a8.549,8.549,0,0,0-4.118,2.334,7.166,7.166,0,0,0-2.15,5.008c0,1.971.86,3.626,1.787,3.626,1.381,0,3.417-3.308,4.209-5.121a10.4,10.4,0,0,0,.927-3.83A3.816,3.816,0,0,0,2189.418,734Z" transform="translate(-1955.828 -106.855)" fill="#fff"/>
      <path id="Path_752" data-name="Path 752" d="M2231.639,740.035a13.523,13.523,0,0,1,5.974-1.564c2.828,0,4.82,1.655,4.82,4.419,0,2.356-1.832,4.4-4.842,4.4a4.889,4.889,0,0,1-4.3-2.765l.317-.317a5.115,5.115,0,0,0,3.507,1.359,3.075,3.075,0,0,0,3.326-3.172c0-1.609-.973-2.991-3.372-2.991a11.428,11.428,0,0,0-5.408,1.926c.113,3.218.407,3.989.407,4.85,0,1.088-.769,2.356-1.584,2.356-.679,0-.7-.838-1.4-1.518a18.412,18.412,0,0,0-2.217-1.745c-.656.68-.905,1.019-1.29,1.019a1.3,1.3,0,0,1-.905-.453,1.8,1.8,0,0,1-.521-1.269c0-.725.159-.906.747-.884a1.872,1.872,0,0,0,1.335-.295c.747-.408,2.467-1.745,4.028-2.651v-3.966a11.568,11.568,0,0,1-2.421.385c-1.268,0-2.353-.408-3.123-2.674l.339-.249c1.109,1.065,1.561,1.292,2.648,1.269a12.108,12.108,0,0,0,2.557-.476c0-1.5.022-2.855,0-3.421,0-.612-.135-.7-.5-.839a4.848,4.848,0,0,0-1.561-.227l-.045-.385a3.21,3.21,0,0,1,1.879-.612c1.041,0,2.647.77,2.647,1.383,0,.589-.362.952-.52,1.677-.091.431-.181,1.088-.272,1.881,1.449-.589,2.082-1.178,2.467-1.2.317,0,1.47.023,1.516.862,0,.408-.294.748-.815,1.02a27.518,27.518,0,0,1-3.326,1.224c-.045.952-.091,1.949-.091,2.833Zm-1.38,2.2a29.709,29.709,0,0,0-2.919,2.583c.792.363,1.675.77,2.286.975.475.159.633-.023.633-.454Zm6.925-9.654a6.985,6.985,0,0,1,3.145-.272c2.014.317,3.621,1.858,3.666,3.422a.983.983,0,0,1-.928,1.155c-.543.068-.9-.612-1.561-.521a10.986,10.986,0,0,0-1.878.566l-.2-.34a16.541,16.541,0,0,0,1.742-1.246.616.616,0,0,0,.091-.884c-.792-1.178-2.557-1.473-4.028-1.4Z" transform="translate(-1976.57 -105.212)" fill="#fff"/>
      <path id="Path_753" data-name="Path 753" d="M2286.406,737.508s1.584,1.156,2.58,1.994c-.068.249-.317.363-.656.363h-8.847v5.054c0,1.609-.476,2.764-3.553,2.991a2.182,2.182,0,0,0-.747-1.631,5.484,5.484,0,0,0-2.693-.838v-.318s3.373.227,4.074.227c.453,0,.61-.159.61-.521v-4.963h-9.436l-.2-.657h9.639v-4.328h-8.1l-.181-.634h8.282V730.3c-2.67.25-5.521.408-8.214.408l-.068-.385a67.147,67.147,0,0,0,15.343-3.422l2.33,2.243c-.226.2-.724.227-1.426-.045a56.98,56.98,0,0,1-5.656.93v4.215h4.48l1.358-1.7s1.561,1.178,2.512,1.994c-.045.227-.294.34-.634.34h-7.716v4.328H2285Z" transform="translate(-1997.646 -103.932)" fill="#fff"/>
      <path id="Path_754" data-name="Path 754" d="M2322.142,727.81c-.091.272-.385.453-.861.453a31.8,31.8,0,0,1-2.24,4.758l1.064.408c-.068.2-.272.363-.7.43v13.392a2.43,2.43,0,0,1-1.742.656h-.407V735.718a20.726,20.726,0,0,1-2.693,2.9l-.317-.2a36.713,36.713,0,0,0,4.82-11.557Zm6.109,8.543a69.272,69.272,0,0,1-4.322,8.113c2.263-.159,5.114-.385,8.079-.658a31.636,31.636,0,0,0-2.308-4.011l.271-.159c7.286,4.215,5.544,9.472,3.191,7.478a12.89,12.89,0,0,0-.927-2.833c-2.376.68-5.635,1.519-10.206,2.606a.932.932,0,0,1-.611.5l-1.245-2.72c.724-.022,1.788-.091,3.078-.158.7-2.153,1.652-5.688,2.172-8.158h-4.865l-.18-.657h11.518l1.335-1.722s1.493,1.178,2.421,2.016c-.068.249-.317.362-.633.362Zm-5.906-6.209-.181-.658h8.4l1.289-1.7s1.494,1.156,2.4,1.994c-.068.249-.294.363-.611.363Z" transform="translate(-2020.338 -103.909)" fill="#fff"/>
      <path id="Path_755" data-name="Path 755" d="M2362.5,737.012c0-1.269-.385-2.039-1.765-3.081l.158-.295a5.666,5.666,0,0,1,1.833.317c1,.453,2.286,1.609,2.286,2.606,0,1.065-1.018,2.4-1.018,5.03,0,2.356,1.154,3.671,1.991,4.056a.591.591,0,0,0,.837-.181,35.089,35.089,0,0,0,2.264-4.079l.52.227a32.885,32.885,0,0,0-1.177,4.328c-.113,1.2.25,1.224.25,1.836,0,.861-.86,1.314-2.082.816-1.811-.77-4.005-2.765-4.187-6.708C2362.319,740.162,2362.5,738.349,2362.5,737.012Zm10.568-.793.158-.453a7.158,7.158,0,0,1,4.707,2.2,7.339,7.339,0,0,1,1.991,5.008c0,1.2-.407,1.813-1.29,1.813a1,1,0,0,1-.974-.839,17.846,17.846,0,0,0-1.041-4.305A6.507,6.507,0,0,0,2373.068,736.219Z" transform="translate(-2042.922 -107.197)" fill="#fff"/>
      <path id="Path_756" data-name="Path 756" d="M2420.755,734.1a4.6,4.6,0,0,1,2.014.544,3.178,3.178,0,0,1,1.538,2.152c0,.566-.475.589-1.493.884a53.981,53.981,0,0,0-6.02,2.2c.091,1.292.113,2.719.113,3.512,0,.68-.339,1.155-.973,1.155a.992.992,0,0,1-1.064-1.088c0-.589.091-1.586.113-2.674-2.014,1.133-3.575,2.47-3.575,3.762,0,1.043,1.109,1.678,3.3,1.678,3.371,0,4.683-.749,5.657-.749s1.72.272,1.72,1c0,.522-.2.862-1,1.088a21.98,21.98,0,0,1-5.091.612c-4.323,0-5.7-1.473-5.7-3.353,0-1.9,2.263-3.83,4.706-5.371-.068-1.813-.385-2.515-1.516-2.515-1.177,0-2.625,1.473-3.485,2.47-.815.952-1.494,2.221-2.218,2.243-.633.023-.95-.521-.973-1.269,0-.725.792-1.2,1.719-2.2a19.34,19.34,0,0,0,3.056-4.033c-.566.045-1.132.091-1.7.091-1.833,0-2.241-.884-2.987-2.674l.385-.227a3.673,3.673,0,0,0,3.055,1.315,15.985,15.985,0,0,0,2.172-.249,9.012,9.012,0,0,0,.611-1.722.646.646,0,0,0-.339-.861,6.831,6.831,0,0,0-1.335-.476v-.363a5.224,5.224,0,0,1,1.516-.362c.837,0,2.512.34,2.512,1.042,0,.317-.181.476-.407.952-.181.362-.43.839-.679,1.337.95-.272,1.81-.566,2.376-.793.838-.362,1.041-.635,1.357-.635.679,0,1.267.227,1.267.861,0,.317-.2.612-.724.861a22.754,22.754,0,0,1-5.317,1.631,24.1,24.1,0,0,1-1.924,2.923c-.091.136-.023.249.159.136a4.8,4.8,0,0,1,2.466-.838,2.55,2.55,0,0,1,2.557,2.425c1.7-.884,3.734-1.768,4.888-2.425.385-.2.453-.453.136-.793a3.62,3.62,0,0,0-1.109-.816Z" transform="translate(-2065.307 -104.764)" fill="#fff"/>
    </g>
  </g>
</svg>
