<svg xmlns="http://www.w3.org/2000/svg" width="24.6" height="29.6" viewBox="0 0 24.6 29.6">
  <path id="Path_196" data-name="Path 196" d="M120,894.839a1.048,1.048,0,0,1-.582-.176,37.841,37.841,0,0,1-5.806-5,26.275,26.275,0,0,1-4.028-5.4,14.137,14.137,0,0,1-1.885-6.736,12.3,12.3,0,0,1,24.6,0,14.118,14.118,0,0,1-1.883,6.73,26.2,26.2,0,0,1-4.027,5.4,37.8,37.8,0,0,1-5.81,5A1.045,1.045,0,0,1,120,894.839Zm0-27.5a10.212,10.212,0,0,0-10.2,10.2c0,6.862,7.717,13.119,10.081,14.873l.12.089.119-.089c2.364-1.754,10.081-8.011,10.081-14.873A10.212,10.212,0,0,0,120,867.339Zm0,15a4.8,4.8,0,1,1,4.8-4.8A4.805,4.805,0,0,1,120,882.339Zm0-7.5a2.7,2.7,0,1,0,2.7,2.7A2.7,2.7,0,0,0,120,874.839Z" transform="translate(-107.698 -865.239)" fill="#8cb80c"/>
</svg>
