<svg xmlns="http://www.w3.org/2000/svg" width="28.007" height="27.995" viewBox="0 0 28.007 27.995">
  <path id="Path_198" data-name="Path 198" d="M350.5,890.251V870.159a.409.409,0,0,0,.046-.094,3.013,3.013,0,0,1,.608-1.41,3.062,3.062,0,0,1,2.391-1.26c.874-.028,1.749-.011,2.624-.008.133,0,.174-.044.172-.174-.006-.415-.008-.829,0-1.243a1.051,1.051,0,0,1,.07-.4.848.848,0,0,1,.994-.507.893.893,0,0,1,.682.922v1.244c0,.12.038.156.158.156h12.509c.131,0,.162-.046.161-.167,0-.423-.008-.847,0-1.271a.871.871,0,0,1,.755-.9.882.882,0,0,1,.992.756.991.991,0,0,1,.008.144c-.017.418,0,.838,0,1.257,0,.17.006.175.179.175h2.393a3.12,3.12,0,0,1,1.1.173A3.153,3.153,0,0,1,378.4,869.8c.034.126.067.252.1.377v20.064a.762.762,0,0,0-.05.122c-.028.114-.04.233-.076.345a3.166,3.166,0,0,1-2.316,2.221c-.116.031-.231.067-.347.1H353.286a.692.692,0,0,0-.1-.046c-.2-.055-.409-.091-.6-.165a3.119,3.119,0,0,1-1.99-2.216C350.567,890.491,350.531,890.371,350.5,890.251Zm14-15.3h-12.06c-.194,0-.194,0-.194.192v14.61a1.486,1.486,0,0,0,.141.688,1.435,1.435,0,0,0,1.37.843h21.437a1.7,1.7,0,0,0,.562-.08,1.436,1.436,0,0,0,.991-1.445V875.135c0-.181,0-.181-.19-.181Zm0-1.749h12.086c.13,0,.168-.032.167-.165-.006-.806-.011-1.613,0-2.419a1.468,1.468,0,0,0-1.443-1.491h-.01c-.834.005-1.668,0-2.5,0-.111,0-.14.044-.138.147.005.227.009.456,0,.683a1.36,1.36,0,0,1-.068.385.877.877,0,0,1-.846.531.852.852,0,0,1-.792-.674,6.3,6.3,0,0,1-.037-.9c0-.136-.033-.178-.174-.177-1.481.005-2.962,0-4.443,0H358.26c-.143,0-.179.043-.173.178.011.214.01.429,0,.642a1.2,1.2,0,0,1-.062.361.873.873,0,0,1-.919.56.859.859,0,0,1-.765-.869c0-.236-.007-.474,0-.71,0-.117-.03-.161-.153-.161-.82,0-1.641,0-2.461.007a1.489,1.489,0,0,0-.545.1,1.412,1.412,0,0,0-.931,1.39c-.006.806,0,1.613,0,2.419,0,.133.038.165.168.164l12.078,0Zm.023,4.136a.85.85,0,0,1,.806.535c.41.89.831,1.774,1.253,2.658a.233.233,0,0,0,.149.114c.3.056.611.1.917.146.549.084,1.1.166,1.646.252a2.182,2.182,0,0,1,.491.1.865.865,0,0,1,.278,1.44c-.649.67-1.3,1.342-1.959,2a.484.484,0,0,0-.15.481c.115.668.22,1.338.33,2.006.045.274.1.546.141.82a.862.862,0,0,1-.359.9.84.84,0,0,1-.94.043q-1.26-.69-2.515-1.388a.188.188,0,0,0-.213,0c-.821.457-1.647.9-2.466,1.365a.9.9,0,0,1-1.242-.278q-.023-.035-.042-.072a.881.881,0,0,1-.078-.532c.078-.494.166-.987.246-1.481.085-.525.171-1.05.245-1.578a.28.28,0,0,0-.089-.193c-.674-.7-1.353-1.389-2.029-2.083a.871.871,0,0,1,.262-1.445,1.033,1.033,0,0,1,.25-.07c.531-.081,1.062-.157,1.593-.237.4-.061.81-.123,1.213-.2a.267.267,0,0,0,.163-.133c.425-.892.843-1.789,1.265-2.683A.846.846,0,0,1,364.52,877.338Zm-3.149,5.223c.058.065.094.11.134.152.38.392.763.781,1.141,1.176a.851.851,0,0,1,.229.778c-.082.47-.156.942-.232,1.414-.017.109-.03.218-.047.347a.915.915,0,0,0,.1-.047c.445-.245.893-.487,1.336-.736a.873.873,0,0,1,.9-.015l1.086.6.37.2a.267.267,0,0,0,.011-.063c-.091-.561-.178-1.123-.277-1.683a.894.894,0,0,1,.251-.824l1.135-1.162c.036-.037.069-.079.112-.129a.522.522,0,0,0-.069-.025l-1.5-.219a.991.991,0,0,1-.856-.6c-.2-.462-.426-.912-.642-1.367a.4.4,0,0,0-.054-.07.46.46,0,0,0-.065.074q-.327.695-.653,1.391a.857.857,0,0,1-.646.53c-.309.054-.62.1-.93.15Z" transform="translate(-350.497 -865.037)" fill="#8cb80c"/>
</svg>
