<svg xmlns="http://www.w3.org/2000/svg" width="30" height="15.876" viewBox="0 0 30 15.876">
  <path id="Path_197" data-name="Path 197" d="M381.5,958.415c-.037.144-.075.288-.109.434a3.23,3.23,0,0,1-.988,1.7,2.551,2.551,0,0,1-1.746.666h-.776c-.11,0-.141.037-.143.144,0,.273-.015.546-.043.817a3.106,3.106,0,0,1-1.149,2.066,3.221,3.221,0,0,1-2.121.736h-19.6a3.23,3.23,0,0,1-2.543-1.132,2.92,2.92,0,0,1-.727-1.566,5.818,5.818,0,0,1-.053-.769v-9.066a3.284,3.284,0,0,1,.695-2.1,3.014,3.014,0,0,1,1.726-1.125,4.437,4.437,0,0,1,.968-.112q9.761-.009,19.522,0a3.2,3.2,0,0,1,2.772,1.435,3.348,3.348,0,0,1,.558,2.007c0,.317,0,.312.316.318.341.007.684.005,1.021.041a2.365,2.365,0,0,1,1.453.745,3.276,3.276,0,0,1,.919,1.882.626.626,0,0,0,.049.133Zm-16.889,4.8h9.841a1.48,1.48,0,0,0,1.528-1.432c0-.029,0-.059,0-.088v-9.314a1.543,1.543,0,0,0-.079-.5,1.457,1.457,0,0,0-1.47-1.025h-19.64a1.473,1.473,0,0,0-1.531,1.415c0,.037,0,.075,0,.112v9.27a1.723,1.723,0,0,0,.09.587,1.448,1.448,0,0,0,1.446.978Zm13.129-6.189v2.253c0,.143.045.185.184.179.243-.011.487,0,.732,0a.833.833,0,0,0,.628-.26,1.63,1.63,0,0,0,.456-1.138c.014-.683.021-1.366-.005-2.048a2.179,2.179,0,0,0-.194-.769.959.959,0,0,0-1.015-.631c-.179.014-.361,0-.541,0-.241,0-.241,0-.241.248Zm-15.018,4.188h-6.49a.88.88,0,0,1-.882-.53,1.013,1.013,0,0,1-.086-.4q-.008-3.252,0-6.5a.9.9,0,0,1,.87-.929h6.525a1.042,1.042,0,0,1,.768.33q3.114,3.12,6.233,6.234c.1.1.2.191.288.291a.847.847,0,0,1,.177.973.861.861,0,0,1-.811.528c-.175.009-.351,0-.527,0Zm4.416-1.758.02-.038c-.03-.035-.058-.074-.091-.107l-4.589-4.59a.35.35,0,0,0-.27-.11h-4.979c-.21,0-.21,0-.21.21v4.423c0,.211,0,.211.208.211h9.911Z" transform="translate(-351.501 -949.104)" fill="#8cb80c"/>
</svg>
